<?xml version="1.0" standalone="no"?>
<!DOCTYPE svg PUBLIC "-//W3C//DTD SVG 1.1//EN" "http://www.w3.org/Graphics/SVG/1.1/DTD/svg11.dtd" >
<svg>
<metadata>
Created by FontForge 20090914 at Mon Aug 14 12:33:46 2017
 By www-data
Copyright 2011 The Comfortaa Project Authors (aajohan@gmail.com), with Reserved Font Name "Comfortaa".
</metadata>
<defs>
<font id="Comfortaa-Light" horiz-adv-x="679" >
  <font-face 
    font-family="Comfortaa Light"
    font-weight="300"
    font-stretch="normal"
    units-per-em="1000"
    panose-1="0 0 4 0 0 0 0 0 0 0"
    ascent="800"
    descent="-200"
    x-height="546.999"
    cap-height="781"
    bbox="-832 -260 1263 1270"
    underline-thickness="50"
    underline-position="-50"
    unicode-range="U+000D-U+FB02"
  />
<missing-glyph horiz-adv-x="625" 
d="M575 775c4 -4 6 -8.66699 6 -14v-741c0 -5.33301 -2 -10 -6 -14s-8.66699 -6 -14 -6h-501c-6 0 -10.833 2 -14.5 6s-5.5 8.66699 -5.5 14v741c0 5.33301 1.83301 10 5.5 14s8.5 6 14.5 6h501c5.33301 0 10 -2 14 -6zM80 40h461v701h-461v-701zM385 581
c-19.333 17.333 -44.333 25.999 -75 25.999c-30 0 -54.667 -9.5 -74 -28.5s-29 -43.833 -29 -74.5c0 -6.66699 -2.33301 -12.334 -7 -17.001s-10.667 -7 -18 -7s-13.333 2.33301 -18 7s-7 10.334 -7 17.001c0 44.667 14.333 81.334 43 110.001s65.334 43 110.001 43
s81.5 -13.833 110.5 -41.5s43.5 -62.5 43.5 -104.5c0 -28 -5.83301 -51.167 -17.5 -69.5s-30.167 -39.166 -55.5 -62.499l-22 -22c-22 -21.333 -33 -48.666 -33 -81.999c0 -7.33301 -2.5 -13.5 -7.5 -18.5s-11.167 -7.5 -18.5 -7.5s-13.333 2.5 -18 7.5s-7 11.167 -7 18.5
c0 18 4.16699 37.167 12.5 57.5s19.166 37.166 32.499 50.499l22 21c21.333 20 37 37.5 47 52.5s15 34.167 15 57.5c0 27.333 -9.66699 49.666 -29 66.999zM338 194.999c7.33301 -7.33301 11.002 -16.333 11.002 -27s-3.83301 -19.667 -11.5 -27s-16.834 -11 -27.501 -11
s-19.5 3.66699 -26.5 11s-10.5 16.333 -10.5 27s3.5 19.667 10.5 27s15.833 11 26.5 11c11.333 0 20.666 -3.66699 27.999 -11z" />
    <glyph glyph-name="fi" unicode="fi" horiz-adv-x="589" 
d="M347.5 519.5c5 -5 7.50293 -11.501 7.50293 -19.501s-2.5 -14.5 -7.5 -19.5s-11.5 -7.5 -19.5 -7.5h-132v-443c0 -8.66699 -3 -15.834 -9 -21.501s-13.333 -8.5 -22 -8.5s-15.834 2.83301 -21.501 8.5s-8.5 12.834 -8.5 21.501v443h-78c-8 0 -14.5 2.5 -19.5 7.5
s-7.5 11.5 -7.5 19.5s2.5 14.5 7.5 19.5s11.5 7.5 19.5 7.5h78v31c0 66.667 16.167 120.5 48.5 161.5s84.166 61.5 155.499 61.5c40 0 76 -5.83301 108 -17.5s48 -28.5 48 -50.5c0 -14 -4 -24.5 -12 -31.5s-19 -10.5 -33 -10.5c-7.33301 0 -14.333 1.83301 -21 5.5
s-15.334 9.5 -26.001 17.5c-12.667 10.667 -24.5 18.834 -35.5 24.501s-24.167 8.5 -39.5 8.5c-44 0 -77 -13.333 -99 -40s-33 -69.667 -33 -129v-31h132c8 0 14.5 -2.5 19.5 -7.5zM480.003 538.999c5.33301 -5.33301 8 -12.666 8 -21.999v-487
c0 -8.66699 -2.66699 -15.834 -8 -21.501s-12.666 -8.5 -21.999 -8.5c-8.66699 0 -15.834 2.83301 -21.501 8.5s-8.5 12.834 -8.5 21.501v487c0 9.33301 2.83301 16.666 8.5 21.999s12.834 8 21.501 8c9.33301 0 16.666 -2.66699 21.999 -8z" />
    <glyph glyph-name="fl" unicode="fl" horiz-adv-x="638" 
d="M611 52c4.66699 -5.33301 7 -12.667 7 -22c0 -8.66699 -2.66699 -15.834 -8 -21.501s-12.666 -8.5 -21.999 -8.5h-20c-38 0 -69.167 15.333 -93.5 46s-36.5 70.334 -36.5 119.001v542c-39.333 12 -69 18 -89 18c-52 0 -90.5 -12.333 -115.5 -37s-37.5 -65 -37.5 -121v-40
h132c8 0 14.5 -2.5 19.5 -7.5s7.5 -11.5 7.5 -19.5s-2.5 -14.5 -7.5 -19.5s-11.5 -7.5 -19.5 -7.5h-132v-443c0 -8.66699 -3 -15.834 -9 -21.501s-13.333 -8.5 -22 -8.5s-15.834 2.83301 -21.501 8.5s-8.5 12.834 -8.5 21.501v443h-78c-8 0 -14.5 2.5 -19.5 7.5
s-7.5 11.5 -7.5 19.5s2.5 14.5 7.5 19.5s11.5 7.5 19.5 7.5h78v50c0 60 18 109 54 147s87.667 57 155 57c32.667 0 65.334 -5 98.001 -15c4 10 12.667 15 26 15c9.33301 0 16.666 -2.66699 21.999 -8s8 -12.666 8 -21.999v-586c0 -30.667 6.5 -55.834 19.5 -75.501
s29.833 -29.5 50.5 -29.5h25c7.33301 0 13.333 -2.66699 18 -8z" />
    <glyph glyph-name="f_f" unicode="ff" horiz-adv-x="730" 
d="M229 678.5c-22 -32.333 -32.999 -75.833 -32.999 -130.5v-21h132c8 0 14.5 -2.5 19.5 -7.5s7.5 -11.5 7.5 -19.5s-2.5 -14.5 -7.5 -19.5s-11.5 -7.5 -19.5 -7.5h-132v-443c0 -8.66699 -2.83301 -15.834 -8.5 -21.501s-13.167 -8.5 -22.5 -8.5
c-8.66699 0 -15.834 2.83301 -21.501 8.5s-8.5 12.834 -8.5 21.501v443h-78c-8 0 -14.5 2.5 -19.5 7.5s-7.5 11.5 -7.5 19.5s2.5 14.5 7.5 19.5s11.5 7.5 19.5 7.5h78v21c0 71.333 16.667 128 50 170s83.333 63 150 63c8.66699 0 15.834 -2.5 21.501 -7.5
s8.5 -11.5 8.5 -19.5s-2.83301 -14.5 -8.5 -19.5s-12.834 -7.5 -21.501 -7.5c-48.667 0 -84 -16.167 -106 -48.5zM594.001 678.5c-22 -32.333 -32.999 -75.833 -32.999 -130.5v-21h132c8 0 14.5 -2.5 19.5 -7.5s7.5 -11.5 7.5 -19.5s-2.5 -14.5 -7.5 -19.5
s-11.5 -7.5 -19.5 -7.5h-132v-443c0 -8.66699 -2.83301 -15.834 -8.5 -21.501s-13.167 -8.5 -22.5 -8.5c-8.66699 0 -15.834 2.83301 -21.501 8.5s-8.5 12.834 -8.5 21.501v443h-78c-8 0 -14.5 2.5 -19.5 7.5s-7.5 11.5 -7.5 19.5s2.5 14.5 7.5 19.5s11.5 7.5 19.5 7.5h78
v21c0 71.333 16.667 128 50 170s83.333 63 150 63c8.66699 0 15.834 -2.5 21.501 -7.5s8.5 -11.5 8.5 -19.5s-2.83301 -14.5 -8.5 -19.5s-12.834 -7.5 -21.501 -7.5c-48.667 0 -84 -16.167 -106 -48.5z" />
    <glyph glyph-name="f_f_i" unicode="ffi" horiz-adv-x="1010" 
d="M229 678.5c-22 -32.333 -32.999 -75.833 -32.999 -130.5v-21h132c8 0 14.5 -2.5 19.5 -7.5s7.5 -11.5 7.5 -19.5s-2.5 -14.5 -7.5 -19.5s-11.5 -7.5 -19.5 -7.5h-132v-443c0 -8.66699 -2.83301 -15.834 -8.5 -21.501s-13.167 -8.5 -22.5 -8.5
c-8.66699 0 -15.834 2.83301 -21.501 8.5s-8.5 12.834 -8.5 21.501v443h-78c-8 0 -14.5 2.5 -19.5 7.5s-7.5 11.5 -7.5 19.5s2.5 14.5 7.5 19.5s11.5 7.5 19.5 7.5h78v21c0 71.333 16.667 128 50 170s83.333 63 150 63c8.66699 0 15.834 -2.5 21.501 -7.5
s8.5 -11.5 8.5 -19.5s-2.83301 -14.5 -8.5 -19.5s-12.834 -7.5 -21.501 -7.5c-48.667 0 -84 -16.167 -106 -48.5zM594.001 678.5c-22 -32.333 -32.999 -75.833 -32.999 -130.5v-21h132c8 0 14.5 -2.5 19.5 -7.5s7.5 -11.5 7.5 -19.5s-2.5 -14.5 -7.5 -19.5
s-11.5 -7.5 -19.5 -7.5h-132v-443c0 -8.66699 -2.83301 -15.834 -8.5 -21.501s-13.167 -8.5 -22.5 -8.5c-8.66699 0 -15.834 2.83301 -21.501 8.5s-8.5 12.834 -8.5 21.501v443h-78c-8 0 -14.5 2.5 -19.5 7.5s-7.5 11.5 -7.5 19.5s2.5 14.5 7.5 19.5s11.5 7.5 19.5 7.5h78
v21c0 71.333 16.667 128 50 170s83.333 63 150 63c8.66699 0 15.834 -2.5 21.501 -7.5s8.5 -11.5 8.5 -19.5s-2.83301 -14.5 -8.5 -19.5s-12.834 -7.5 -21.501 -7.5c-48.667 0 -84 -16.167 -106 -48.5zM848.502 8.5c-5.66699 5.66699 -8.5 12.834 -8.5 21.501v487
c0 9.33301 2.83301 16.666 8.5 21.999s12.834 8 21.501 8c9.33301 0 16.666 -2.66699 21.999 -8s8 -12.666 8 -21.999v-487c0 -8.66699 -2.66699 -15.834 -8 -21.501s-12.666 -8.5 -21.999 -8.5c-8.66699 -0 -15.834 2.83301 -21.501 8.5zM836.002 675.5
c-8.66699 9 -13 20.167 -13 33.5c0 14.667 4.66699 26 14 34s20.333 12 33 12s23.5 -4 32.5 -12s13.5 -19.333 13.5 -34c0 -13.333 -4.5 -24.5 -13.5 -33.5s-20.167 -13.5 -33.5 -13.5s-24.333 4.5 -33 13.5z" />
    <glyph glyph-name="f_f_l" unicode="ffl" horiz-adv-x="1000" 
d="M229 678.5c-22 -32.333 -32.999 -75.833 -32.999 -130.5v-21h132c8 0 14.5 -2.5 19.5 -7.5s7.5 -11.5 7.5 -19.5s-2.5 -14.5 -7.5 -19.5s-11.5 -7.5 -19.5 -7.5h-132v-443c0 -8.66699 -2.83301 -15.834 -8.5 -21.501s-13.167 -8.5 -22.5 -8.5
c-8.66699 0 -15.834 2.83301 -21.501 8.5s-8.5 12.834 -8.5 21.501v443h-78c-8 0 -14.5 2.5 -19.5 7.5s-7.5 11.5 -7.5 19.5s2.5 14.5 7.5 19.5s11.5 7.5 19.5 7.5h78v21c0 71.333 16.667 128 50 170s83.333 63 150 63c8.66699 0 15.834 -2.5 21.501 -7.5
s8.5 -11.5 8.5 -19.5s-2.83301 -14.5 -8.5 -19.5s-12.834 -7.5 -21.501 -7.5c-48.667 0 -84 -16.167 -106 -48.5zM594.001 678.5c-22 -32.333 -32.999 -75.833 -32.999 -130.5v-21h132c8 0 14.5 -2.5 19.5 -7.5s7.5 -11.5 7.5 -19.5s-2.5 -14.5 -7.5 -19.5
s-11.5 -7.5 -19.5 -7.5h-132v-443c0 -8.66699 -2.83301 -15.834 -8.5 -21.501s-13.167 -8.5 -22.5 -8.5c-8.66699 0 -15.834 2.83301 -21.501 8.5s-8.5 12.834 -8.5 21.501v443h-78c-8 0 -14.5 2.5 -19.5 7.5s-7.5 11.5 -7.5 19.5s2.5 14.5 7.5 19.5s11.5 7.5 19.5 7.5h78
v21c0 71.333 16.667 128 50 170s83.333 63 150 63c8.66699 0 15.834 -2.5 21.501 -7.5s8.5 -11.5 8.5 -19.5s-2.83301 -14.5 -8.5 -19.5s-12.834 -7.5 -21.501 -7.5c-48.667 0 -84 -16.167 -106 -48.5zM836.502 46c-24.333 30.667 -36.501 70.334 -36.501 119.001v586
c0 9.33301 2.83301 16.666 8.5 21.999s12.834 8 21.501 8c9.33301 0 16.666 -2.66699 21.999 -8s8 -12.666 8 -21.999v-586c0 -30.667 6.5 -55.834 19.5 -75.501s29.833 -29.5 50.5 -29.5h25c7.33301 0 13.333 -2.66699 18 -8s7 -12.666 7 -21.999
c0 -8.66699 -2.66699 -15.834 -8 -21.501s-12.666 -8.5 -21.999 -8.5h-20c-38 -0 -69.167 15.333 -93.5 46z" />
    <glyph glyph-name=".notdef" horiz-adv-x="625" 
d="M575 775c4 -4 6 -8.66699 6 -14v-741c0 -5.33301 -2 -10 -6 -14s-8.66699 -6 -14 -6h-501c-6 0 -10.833 2 -14.5 6s-5.5 8.66699 -5.5 14v741c0 5.33301 1.83301 10 5.5 14s8.5 6 14.5 6h501c5.33301 0 10 -2 14 -6zM80 40h461v701h-461v-701zM385 581
c-19.333 17.333 -44.333 25.999 -75 25.999c-30 0 -54.667 -9.5 -74 -28.5s-29 -43.833 -29 -74.5c0 -6.66699 -2.33301 -12.334 -7 -17.001s-10.667 -7 -18 -7s-13.333 2.33301 -18 7s-7 10.334 -7 17.001c0 44.667 14.333 81.334 43 110.001s65.334 43 110.001 43
s81.5 -13.833 110.5 -41.5s43.5 -62.5 43.5 -104.5c0 -28 -5.83301 -51.167 -17.5 -69.5s-30.167 -39.166 -55.5 -62.499l-22 -22c-22 -21.333 -33 -48.666 -33 -81.999c0 -7.33301 -2.5 -13.5 -7.5 -18.5s-11.167 -7.5 -18.5 -7.5s-13.333 2.5 -18 7.5s-7 11.167 -7 18.5
c0 18 4.16699 37.167 12.5 57.5s19.166 37.166 32.499 50.499l22 21c21.333 20 37 37.5 47 52.5s15 34.167 15 57.5c0 27.333 -9.66699 49.666 -29 66.999zM338 194.999c7.33301 -7.33301 11.002 -16.333 11.002 -27s-3.83301 -19.667 -11.5 -27s-16.834 -11 -27.501 -11
s-19.5 3.66699 -26.5 11s-10.5 16.333 -10.5 27s3.5 19.667 10.5 27s15.833 11 26.5 11c11.333 0 20.666 -3.66699 27.999 -11z" />
    <glyph glyph-name="NULL" horiz-adv-x="0" 
 />
    <glyph glyph-name="NULL" horiz-adv-x="0" 
 />
    <glyph glyph-name="nonmarkingreturn" unicode="&#xd;" horiz-adv-x="293" 
 />
    <glyph glyph-name="space" unicode=" " horiz-adv-x="293" 
 />
    <glyph glyph-name="exclam" unicode="!" horiz-adv-x="251" 
d="M79.5 181c-6.33301 6 -9.50098 13 -9.50098 21v549c0 8.66699 3 16 9 22s13.333 9 22 9s15.834 -3 21.501 -9s8.5 -13.333 8.5 -22v-549c0 -8 -3 -15 -9 -21s-13 -9 -21 -9s-15.167 3 -21.5 9zM64.499 14.5c-9.66699 9.66699 -14.499 21.833 -14.499 36.5
c0 14 5 25.833 15 35.5s22 14.5 36 14.5s25.833 -4.83301 35.5 -14.5s14.5 -21.5 14.5 -35.5s-4.83301 -26 -14.5 -36s-21.5 -15 -35.5 -15c-14.667 -0 -26.834 4.83301 -36.501 14.5z" />
    <glyph glyph-name="quotedbl" unicode="&#x22;" horiz-adv-x="273" 
d="M64 585c-4 4 -6.00098 8.66699 -6.00098 14l-10 152c0 8.66699 3 16 9 22s13.333 9 22 9s15.834 -3 21.501 -9s8.5 -13.333 8.5 -22l-10 -152c0 -5.33301 -2 -10 -6 -14s-8.66699 -6 -14 -6c-6 0 -11 2 -15 6zM185.999 585c-4 4 -6.00098 8.66699 -6.00098 14l-11 152
c0 8.66699 3 16 9 22s13.333 9 22 9s15.834 -3 21.501 -9s8.5 -13.333 8.5 -22l-10 -152c0 -5.33301 -2 -10 -6 -14s-8.66699 -6 -14 -6s-10 2 -14 6z" />
    <glyph glyph-name="numbersign" unicode="#" horiz-adv-x="729" 
d="M677 535.5c4.66699 -4.33301 6.99805 -9.50098 6.99805 -15.501c0 -9.33301 -3 -16.333 -9 -21s-15.667 -7 -29 -7h-88l-34 -193h94c8 0 14 -2.16699 18 -6.5s6 -9.83301 6 -16.5c0 -8 -3.16699 -14.5 -9.5 -19.5s-15.833 -7.5 -28.5 -7.5h-89l-38 -217
c-2 -10 -6.5 -17.833 -13.5 -23.5s-15.167 -8.5 -24.5 -8.5c-16 0 -24 6.66699 -24 20c0 3.33301 0.333008 6 1 8l39 221h-222l-39 -217c-1.33301 -9.33301 -5.66602 -17 -12.999 -23s-15.333 -9 -24 -9c-8 0 -14.333 2.66699 -19 8s-6.33398 12 -5.00098 20l39 221h-94
c-7.33301 0 -13 2.16699 -17 6.5s-6 9.83301 -6 16.5c0 8.66699 3 15.334 9 20.001s13.667 7 23 7h94l34 193h-90c-18.667 0 -28 8.33301 -28 25c0 7.33301 3.16699 13.333 9.5 18s14.833 7 25.5 7h92l38 216c1.33301 8.66699 5.83301 16.167 13.5 22.5
s15.834 9.5 24.501 9.5c8 0 14.167 -2.66699 18.5 -8s5.83301 -12.333 4.5 -21l-39 -219h223l38 216c1.33301 8.66699 5.66602 16.167 12.999 22.5s15.333 9.5 24 9.5c9.33301 0 15.833 -2.83301 19.5 -8.5s4.83398 -12.5 3.50098 -20.5l-38 -219h90
c8.66699 0 15.334 -2.16699 20.001 -6.5zM496.998 491.999h-222l-34 -193h223z" />
    <glyph glyph-name="dollar" unicode="$" horiz-adv-x="572" 
d="M472.5 54.5c-39 -37 -91.5 -58.1699 -157.5 -63.5029v-62c0 -8.66699 -2 -15.167 -6 -19.5s-9 -6.5 -15 -6.5s-11 2.16699 -15 6.5s-6 10.833 -6 19.5v61c-52.667 2.66699 -98.5 16.5 -137.5 41.5s-67.5 58.167 -85.5 99.5c-2 4 -3 8 -3 12c0 8 2.66699 14.667 8 20
s12 8 20 8c5.33301 0 10.333 -1.66699 15 -5s8.33398 -8 11.001 -14c13.333 -30.667 35 -55.167 65 -73.5s65.667 -28.5 107 -30.5v332c-62 12.667 -110.833 37.167 -146.5 73.5s-53.5 81.833 -53.5 136.5c0 52.667 18.333 95.334 55 128.001s85 51.334 145 56.001v48
c0 8.66699 2 15.167 6 19.5s9 6.5 15 6.5s11 -2.16699 15 -6.5s6 -10.833 6 -19.5v-48c42.667 -2.66699 81.5 -15 116.5 -37s60.167 -48 75.5 -78c2.66699 -4.66699 4 -10 4 -16c0 -5.33301 -1.33301 -10.166 -4 -14.499s-6.33398 -7.5 -11.001 -9.5
c-2 -1.33301 -5.66699 -2 -11 -2c-10.667 0 -19 4.66699 -25 14c-13.333 22.667 -32 42 -56 58s-53.667 25 -89 27v-291c144 -29.333 216 -104 216 -224c0 -60.667 -19.5 -109.5 -58.5 -146.5zM165 493.497c22 -27 58.001 -46.834 108.001 -59.501v282
c-44.667 -3.33301 -79.334 -15.666 -104.001 -36.999s-37 -52 -37 -92c0 -35.333 11 -66.5 33 -93.5zM430.001 94.9961c27.333 26 41 61.333 41 106c0 43.333 -13.167 79.833 -39.5 109.5s-65.166 50.167 -116.499 61.5v-323c49.333 4.66699 87.666 20 114.999 46z" />
    <glyph glyph-name="percent" unicode="%" horiz-adv-x="859" 
d="M138.5 423c-29.667 17.333 -53.166 40.8301 -70.499 70.4971s-26 61.834 -26 96.501s8.66699 66.667 26 96s40.833 52.666 70.5 69.999s61.834 26 96.501 26s66.667 -8.66699 96 -26s52.833 -40.666 70.5 -69.999s26.5 -61.333 26.5 -96
c0 -35.333 -8.66699 -67.666 -26 -96.999s-40.833 -52.666 -70.5 -69.999s-61.834 -26 -96.501 -26s-66.834 8.66699 -96.501 26zM132.501 8.49707c-5.66699 5.66699 -8.5 12.833 -8.5 21.5c0 7.33301 2.33301 14.333 7 21l565 718c8.66699 8.66699 17 13 25 13
c8.66699 0 15.834 -3 21.501 -9s8.5 -13.333 8.5 -22c0 -8 -1.66699 -14 -5 -18l-568 -722c-8.66699 -7.33301 -16.667 -11 -24 -11c-8.66699 0 -15.834 2.83301 -21.501 8.5zM302.001 473.496c20.667 12.333 37.168 28.833 49.501 49.5s18.5 43 18.5 67
s-6.33301 46.167 -19 66.5s-29.334 36.666 -50.001 48.999s-42.667 18.5 -66 18.5s-45.333 -6.16699 -66 -18.5s-37.167 -28.666 -49.5 -48.999s-18.5 -42.5 -18.5 -66.5s6 -46.333 18 -67s28.333 -37.167 49 -49.5s43 -18.5 67 -18.5s46.333 6.16699 67 18.5z
M544.002 25.9961c-29.333 17.333 -52.666 40.666 -69.999 69.999s-26 61.333 -26 96s8.66699 66.834 26 96.501s40.666 53.167 69.999 70.5s61.333 26 96 26s66.834 -8.66699 96.501 -26s53.167 -40.833 70.5 -70.5s26 -61.834 26 -96.501s-8.66699 -66.667 -26 -96
s-40.833 -52.666 -70.5 -69.999s-61.834 -26 -96.501 -26s-66.667 8.66699 -96 26zM707.002 76.4961c20.667 12.333 37.167 28.833 49.5 49.5s18.5 42.667 18.5 66s-6.16699 45.5 -18.5 66.5s-29 37.667 -50 50s-43.167 18.5 -66.5 18.5c-24 0 -46.333 -6.16699 -67 -18.5
s-37.167 -28.833 -49.5 -49.5s-18.5 -43 -18.5 -67s6.16699 -46.333 18.5 -67s28.833 -37 49.5 -49s43 -18 67 -18s46.333 6.16699 67 18.5z" />
    <glyph glyph-name="ampersand" unicode="&#x26;" horiz-adv-x="712" 
d="M663 49c0 -5.33301 -3.00098 -10.998 -9.00098 -16.998c-6.66699 -6.66699 -13.667 -10 -21 -10s-14.333 3.33301 -21 10l-111 111l-30 -31c-36.667 -38.667 -72.167 -67.334 -106.5 -86.001s-70.5 -28 -108.5 -28c-42.667 0 -80 7.66699 -112 23
s-56.5 36.666 -73.5 63.999s-25.5 58 -25.5 92c0 41.333 12 80 36 116s64 76 120 120l17 13l-55 55c-21.333 20.667 -38.166 44 -50.499 70s-18.5 52.333 -18.5 79c0 28.667 7.33301 54.834 22 78.501s34.667 42.167 60 55.5s53.666 20 84.999 20c32 0 61 -6.83301 87 -20.5
s46.5 -32.667 61.5 -57s22.5 -51.5 22.5 -81.5c0 -36 -10.167 -69.333 -30.5 -100s-49.166 -60 -86.499 -88l-18 -13l202 -202l87 93c8 8 15 12 21 12s12.333 -3 19 -9c7.33301 -6 11 -12.667 11 -20c0 -6.66699 -3.33301 -13.334 -10 -20.001l-89 -95l112 -112
c8.66699 -8.66699 13 -16 13 -22zM261.999 459.002l24 19c26.667 20.667 48 43.667 64 69s24 50.666 24 75.999c0 30 -10.167 55.333 -30.5 76s-47.833 31 -82.5 31c-30 0 -55.333 -9.83301 -76 -29.5s-31 -43.167 -31 -70.5c0 -22.667 4.33301 -43.167 13 -61.5
s21.667 -36.166 39 -53.499zM460.999 183.002l-206.999 207l-24 -18c-47.333 -37.333 -80 -71.5 -98 -102.5s-27 -62.833 -27 -95.5c0 -35.333 13.667 -64.5 41 -87.5s64.666 -34.5 111.999 -34.5c29.333 0 57.5 8 84.5 24s56.167 40.667 87.5 74z" />
    <glyph glyph-name="quotesingle" unicode="'" horiz-adv-x="156" 
d="M65 585.5c-4 3.66699 -6.00098 8.5 -6.00098 14.5l-10 152c0 8.66699 3 15.834 9 21.501s13.333 8.5 22 8.5s15.834 -2.83301 21.501 -8.5s8.5 -12.834 8.5 -21.501l-10 -152c0 -6 -2 -10.833 -6 -14.5s-8.66699 -5.5 -14 -5.5c-6 0 -11 1.83301 -15 5.5z" />
    <glyph glyph-name="parenleft" unicode="(" horiz-adv-x="245" 
d="M198 -229c-4.66699 3.33301 -8.99902 8.66699 -12.999 16c-80 162 -120 325 -120 489c0 163.333 40 326 120 488c6 13.333 16 20 30 20c8 0 14.833 -2.66699 20.5 -8s8.5 -12 8.5 -20c0 -6 -1.66699 -12.333 -5 -19c-76.667 -153.333 -115 -307.333 -115 -462
c0 -154 38.667 -308.333 116 -463c3.33301 -8 5 -14 5 -18c0 -8 -3 -14.667 -9 -20s-13 -8 -21 -8c-6.66699 0 -12.334 1.66699 -17.001 5z" />
    <glyph glyph-name="parenright" unicode=")" horiz-adv-x="245" 
d="M9 -226c-6 5.33301 -8.99902 11.999 -8.99902 19.999c0 4 1.66699 10 5 18c77.333 154.667 116 309 116 463c0 154.667 -38.333 308.667 -115 462c-3.33301 6.66699 -5 13 -5 19c0 8 2.83301 14.667 8.5 20s12.5 8 20.5 8c14 0 24 -6.66699 30 -20
c80 -162 120 -324.667 120 -488c0 -164 -40 -327 -120 -489c-4 -7.33301 -8.33301 -12.666 -13 -15.999s-10.334 -5 -17.001 -5c-8 0 -15 2.66699 -21 8z" />
    <glyph glyph-name="asterisk" unicode="*" horiz-adv-x="381" 
d="M97.5 513c-5.66699 6 -8.5 13.334 -8.5 22.001c0 8 2.33301 14 7 18l87 76l-102 11c-10 0.666992 -17.667 4 -23 10s-8 13 -8 21c1.33301 9.33301 4.5 16.666 9.5 21.999s11.833 8 20.5 8c5.33301 0 12 -2.33301 20 -7l86 -50l-20 97c-1.33301 5.33301 -2 9 -2 11
c0 8.66699 2.83301 15.834 8.5 21.501s12.834 8.5 21.501 8.5s16 -2.83301 22 -8.5s9 -12.834 9 -21.501c0 -2 -0.666992 -5.66699 -2 -11l-21 -98l97 56c4 1.33301 7.33301 2 10 2c8 0 15.167 -3 21.5 -9s9.5 -13.333 9.5 -22c0 -18.667 -10.333 -28.667 -31 -30l-102 -11
l79 -68c9.33301 -8 14 -16.667 14 -26c0 -8.66699 -3 -16 -9 -22s-13.667 -9 -23 -9c-11.333 0 -20.666 6.66699 -27.999 20l-45 96l-47 -95c-4.66699 -14 -14.334 -21 -29.001 -21c-8.66699 0 -15.834 3 -21.501 9z" />
    <glyph glyph-name="plus" unicode="+" horiz-adv-x="547" 
d="M249.5 170.5c-5.66699 5.66699 -8.5 12.834 -8.5 21.501v173h-172c-8.66699 0 -15.834 2.83301 -21.501 8.5s-8.5 12.834 -8.5 21.501s2.83301 15.834 8.5 21.501s12.834 8.5 21.501 8.5h172v173c0 8.66699 2.83301 15.834 8.5 21.501s12.834 8.5 21.501 8.5
s16 -2.83301 22 -8.5s9 -12.834 9 -21.501v-173h172c8.66699 0 15.834 -2.83301 21.501 -8.5s8.5 -12.834 8.5 -21.501s-2.83301 -15.834 -8.5 -21.501s-12.834 -8.5 -21.501 -8.5h-172v-173c0 -8.66699 -3 -15.834 -9 -21.501s-13.333 -8.5 -22 -8.5
s-15.834 2.83301 -21.501 8.5z" />
    <glyph glyph-name="comma" unicode="," horiz-adv-x="213" 
d="M145.5 64.5c11.667 -15 17.499 -35.166 17.499 -60.499c0 -24 -3.83301 -48.333 -11.5 -73s-17.667 -45.167 -30 -61.5s-25.833 -24.5 -40.5 -24.5c-12.667 0 -19 5.66699 -19 17c0 6.66699 4.66699 16.667 14 30c6 9.33301 10.5 17 13.5 23s4.5 13 4.5 21
c0 12 -1.83301 21.5 -5.5 28.5s-9.5 16.167 -17.5 27.5c-7.33301 8.66699 -12.666 16.167 -15.999 22.5s-5 14.166 -5 23.499c0 15.333 5 27.333 15 36s22 13 36 13c18 0 32.833 -7.5 44.5 -22.5z" />
    <glyph glyph-name="hyphen" unicode="-" horiz-adv-x="391" 
d="M47.5 251.5c-5.66699 5.66699 -8.5 12.834 -8.5 21.501s2.83301 16 8.5 22s12.834 9 21.501 9h243c8.66699 0 16 -3 22 -9s9 -13.333 9 -22s-3 -15.834 -9 -21.501s-13.333 -8.5 -22 -8.5h-243c-8.66699 0 -15.834 2.83301 -21.501 8.5z" />
    <glyph glyph-name="period" unicode="." horiz-adv-x="201" 
d="M64.5 -1.5c-9.66699 9.66699 -14.499 21.833 -14.499 36.5c0 14 5 25.833 15 35.5s22 14.5 36 14.5s25.833 -4.83301 35.5 -14.5s14.5 -21.5 14.5 -35.5s-4.83301 -26 -14.5 -36s-21.5 -15 -35.5 -15c-14.667 0 -26.834 4.83301 -36.501 14.5z" />
    <glyph glyph-name="slash" unicode="/" horiz-adv-x="469" 
d="M375.5 779.5c5 3.66699 10.833 5.5 17.5 5.5c9.33301 0 16.5 -3 21.5 -9s7.5 -13.333 7.5 -22c0 -6 -0.666992 -10.333 -2 -13l-322 -805c-4.66699 -11.333 -14 -17 -28 -17c-8.66699 0 -16 2.83301 -22 8.5s-9 12.834 -9 21.501c0 3.33301 1 7.66602 3 12.999l323 804
c2 5.33301 5.5 9.83301 10.5 13.5z" />
    <glyph glyph-name="zero" unicode="0" horiz-adv-x="566" 
d="M157.5 47c-35 31.333 -61.667 76.3311 -80 134.998s-27.5 128.667 -27.5 210c0 80.667 9.16699 150.334 27.5 209.001s45 103.834 80 135.501s76.833 47.5 125.5 47.5c49.333 0 91.333 -15.833 126 -47.5s61.167 -77 79.5 -136s27.5 -128.5 27.5 -208.5
c0 -122.667 -20.333 -218.667 -61 -288s-98 -104 -172 -104c-48.667 0 -90.5 15.667 -125.5 47zM411.5 150.498c29 60.333 43.5 140.833 43.5 241.5c0 100 -14.667 180.167 -44 240.5s-72 90.5 -128 90.5s-98.667 -30.167 -128 -90.5s-44 -140.5 -44 -240.5
c0 -100.667 14.5 -181.167 43.5 -241.5s71.833 -90.5 128.5 -90.5s99.5 30.167 128.5 90.5z" />
    <glyph glyph-name="one" unicode="1" horiz-adv-x="368" 
d="M216 8.5c-6 5.66699 -8.99902 12.833 -8.99902 21.5v679l-119 -39c-4.66699 -2 -9 -3 -13 -3c-8.66699 0 -15.834 2.83301 -21.501 8.5s-8.5 12.834 -8.5 21.501c0 14.667 6.33301 24.334 19 29.001l153 51c12 3.33301 19 5 21 5c8.66699 0 15.834 -2.83301 21.501 -8.5
s8.5 -12.834 8.5 -21.501v-722c0 -8.66699 -2.83301 -15.834 -8.5 -21.501s-12.834 -8.5 -21.501 -8.5s-16 2.83301 -22 8.5z" />
    <glyph glyph-name="two" unicode="2" horiz-adv-x="576" 
d="M84 8.5c-6 5.66699 -8.99902 12.834 -8.99902 21.501c0 8 3 15.333 9 22l316 376c14 14.667 25.833 33.5 35.5 56.5s14.5 44.5 14.5 64.5c0 32 -7.16699 61.167 -21.5 87.5s-33.833 47 -58.5 62s-52 22.5 -82 22.5s-57.333 -7.5 -82 -22.5s-44.167 -35.667 -58.5 -62
s-21.5 -55.5 -21.5 -87.5c0 -8.66699 -2.83301 -15.834 -8.5 -21.501s-12.834 -8.5 -21.501 -8.5s-16 2.83301 -22 8.5s-9 12.834 -9 21.501c0 44 9.66699 83.667 29 119s46 63.166 80 83.499s72 30.5 114 30.5s80 -10.167 114 -30.5s60.667 -48.166 80 -83.499
s29 -75 29 -119c0 -30.667 -6.16699 -59.167 -18.5 -85.5s-29.833 -52.833 -52.5 -79.5l-275 -323h336c8.66699 0 15.834 -3 21.501 -9s8.5 -13.333 8.5 -22s-2.83301 -15.834 -8.5 -21.501s-12.834 -8.5 -21.501 -8.5h-395c-8.66699 -0 -16 2.83301 -22 8.5z" />
    <glyph glyph-name="three" unicode="3" horiz-adv-x="576" 
d="M171 21c-36 20 -64.333 47.6602 -85 82.9932s-31 74.333 -31 117c0 9.33301 2.83301 17.166 8.5 23.499s13.167 9.5 22.5 9.5s16.666 -3.16699 21.999 -9.5s8 -14.166 8 -23.499c0 -32 7.66699 -60.833 23 -86.5s36.5 -46 63.5 -61s56.5 -22.5 88.5 -22.5
c55.333 0 99 15.833 131 47.5s48 72.167 48 121.5c0 34.667 -7.66699 65 -23 91s-36.166 46 -62.499 60s-55.833 21 -88.5 21c-8.66699 0 -15.834 2.83301 -21.501 8.5s-8.5 12.834 -8.5 21.501s2.83301 15.834 8.5 21.501s12.834 8.5 21.501 8.5c26 0 49.667 6.33301 71 19
s38.166 29.834 50.499 51.501s18.5 44.834 18.5 69.501c0 40.667 -12.833 73.834 -38.5 99.501s-60.5 38.5 -104.5 38.5c-44.667 0 -81 -12.333 -109 -37s-42 -56 -42 -94c0 -8.66699 -3 -15.834 -9 -21.501s-13.333 -8.5 -22 -8.5c-9.33301 0 -16.666 2.83301 -21.999 8.5
s-8 12.834 -8 21.501c0 36 9 68.333 27 97s43.167 51.334 75.5 68.001s68.833 25 109.5 25c38 0 72.5 -8.66699 103.5 -26s55.5 -41 73.5 -71s27 -63.333 27 -100c0 -31.333 -11.5 -63.5 -34.5 -96.5s-51.167 -56.5 -84.5 -70.5
c48.667 -12.667 86.334 -38.167 113.001 -76.5s40 -81.166 40 -128.499c0 -43.333 -10.333 -82.333 -31 -117s-49.334 -62 -86.001 -82s-77.667 -30 -123 -30c-44 0 -84 10 -120 30z" />
    <glyph glyph-name="four" unicode="4" horiz-adv-x="643" 
d="M598 220c0 -6 -2.99902 -11.834 -8.99902 -17.501s-13 -8.5 -21 -8.5h-92v-164c0 -8.66699 -2.83301 -15.834 -8.5 -21.501s-12.834 -8.5 -21.501 -8.5s-15.834 2.83301 -21.501 8.5s-8.5 12.834 -8.5 21.501v164h-375c-8.66699 0 -16 3.16699 -22 9.5s-9 13.5 -9 21.5
c0 6.66699 2 12.334 6 17.001l405 528c3.33301 4 6.83301 7 10.5 9s8.5 3 14.5 3c8.66699 0 15.834 -3 21.501 -9s8.5 -13.333 8.5 -22v-503h92c20 0 30 -9.33301 30 -28zM416.001 247.999v418l-323 -418h323z" />
    <glyph glyph-name="five" unicode="5" horiz-adv-x="626" 
d="M189 33c-38.667 22 -69.001 52.332 -91.001 90.999s-33 81.667 -33 129c0 8.66699 2.83301 16 8.5 22s12.834 9 21.501 9s16 -3 22 -9s9 -13.333 9 -22c0 -36 8.33301 -68.667 25 -98s39.667 -52.333 69 -69s62 -25 98 -25s68.667 8.33301 98 25s52.333 39.667 69 69
s25 62 25 98s-8.33301 68.667 -25 98s-39.667 52.5 -69 69.5s-62 25.5 -98 25.5h-182c-8.66699 0 -15.834 2.83301 -21.501 8.5s-8.5 12.834 -8.5 21.501v276c0 8.66699 2.83301 15.834 8.5 21.501s12.834 8.5 21.501 8.5h364c8.66699 0 16 -2.83301 22 -8.5
s9 -12.834 9 -21.501s-3 -16 -9 -22s-13.333 -9 -22 -9h-334v-215h152c47.333 0 90.333 -11 129 -33s69 -52.333 91 -91s33 -81.667 33 -129s-11 -90.333 -33 -129s-52.333 -69 -91 -91s-81.667 -33 -129 -33s-90.333 11 -129 33z" />
    <glyph glyph-name="six" unicode="6" horiz-adv-x="577" 
d="M418 436.5c35.333 -20.333 63.167 -48.332 83.5 -83.999s30.5 -75.5 30.5 -119.5s-10.167 -83.667 -30.5 -119s-48.166 -63.166 -83.499 -83.499s-75 -30.5 -119 -30.5s-83.833 10.167 -119.5 30.5s-63.667 48.166 -84 83.499s-30.5 75 -30.5 119
c0 41.333 9.33301 79 28 113h-1l4 6l7 12l245 401c7.33301 11.333 16.666 17 27.999 17c8.66699 0 16 -3 22 -9s9 -13 9 -21c0 -4.66699 -1.66699 -10.334 -5 -17.001l-172 -278c20.667 6.66699 43.667 10 69 10c44 0 83.667 -10.167 119 -30.5zM387.501 82.001
c26.333 15.333 47.166 36.166 62.499 62.499s23 55.833 23 88.5s-7.66699 62.334 -23 89.001s-36.166 47.667 -62.499 63s-55.833 23 -88.5 23s-62.334 -7.66699 -89.001 -23s-47.667 -36.333 -63 -63s-23 -56.334 -23 -89.001s7.66699 -62.167 23 -88.5
s36.333 -47.166 63 -62.499s56.334 -23 89.001 -23s62.167 7.66699 88.5 23z" />
    <glyph glyph-name="seven" unicode="7" horiz-adv-x="583" 
d="M154 8.5c-6 5.66699 -9.00098 12.833 -9.00098 21.5c0 3.33301 2.33301 10.333 7 21l307 670h-373c-8.66699 0 -16 3 -22 9s-9 13.333 -9 22s3 15.834 9 21.501s13.333 8.5 22 8.5h425c8.66699 0 15.834 -2.83301 21.501 -8.5s8.5 -12.834 8.5 -21.501
c0 -2.66699 -1.66699 -8.33398 -5 -17.001l-332 -717c-2.66699 -5.33301 -6.5 -9.66602 -11.5 -12.999s-10.5 -5 -16.5 -5c-8.66699 -0 -16 2.83301 -22 8.5z" />
    <glyph glyph-name="eight" unicode="8" horiz-adv-x="601" 
d="M501 355.5c23.333 -36.333 35.0068 -76.832 35.0068 -121.499c0 -45.333 -10.333 -86.333 -31 -123s-48.834 -65.5 -84.501 -86.5s-75.5 -31.5 -119.5 -31.5c-44.667 0 -84.834 10.333 -120.501 31s-63.834 49.167 -84.501 85.5s-31 76.833 -31 121.5
c0 46 11.667 87.333 35 124s54.666 64 93.999 82c-26 17.333 -46.333 40 -61 68s-22 59 -22 93s8.33301 65 25 93s39.667 50 69 66s62 24 98 24c35.333 0 67.166 -7.83301 95.499 -23.5s50.666 -37.334 66.999 -65.001s24.5 -58.5 24.5 -92.5s-7.5 -65.333 -22.5 -94
s-35.167 -51.667 -60.5 -69c39.333 -18 70.666 -45.167 93.999 -81.5zM206.007 500.001c25.333 -25.333 57 -37.998 95 -37.998c37.333 0 68.666 13.167 93.999 39.5s38 59.166 38 98.499c0 35.333 -12.667 65 -38 89s-56.666 36 -93.999 36c-38 0 -69.667 -12.333 -95 -37
s-38 -55.334 -38 -92.001c0 -38.667 12.667 -70.667 38 -96zM450.507 321.503c-15 26.333 -35.667 47.001 -62 62.001s-55.5 22.5 -87.5 22.5c-32.667 0 -62.167 -7.66699 -88.5 -23s-47 -36.5 -62 -63.5s-22.5 -57.167 -22.5 -90.5c0 -34 7.5 -64.833 22.5 -92.5
s35.667 -49.5 62 -65.5s55.833 -24 88.5 -24s62 8.16699 88 24.5s46.5 38.666 61.5 66.999s22.5 59.833 22.5 94.5c0 32.667 -7.5 62.167 -22.5 88.5z" />
    <glyph glyph-name="nine" unicode="9" horiz-adv-x="577" 
d="M481 430l-7.00098 -12.001l-245 -401c-7.33301 -11.333 -16.666 -17 -27.999 -17c-8.66699 0 -16 3 -22 9s-9 13 -9 21c0 4.66699 1.66699 10.334 5 17.001l172 278c-20.667 -6.66699 -43.667 -10 -69 -10c-44 0 -83.667 10.167 -119 30.5s-63.166 48.333 -83.499 84
s-30.5 75.5 -30.5 119.5s10.167 83.667 30.5 119s48.166 63.166 83.499 83.499s75 30.5 119 30.5s83.833 -10.167 119.5 -30.5s63.667 -48.166 84 -83.499s30.5 -75 30.5 -119c0 -41.333 -9.33301 -79 -28 -113h1zM126.999 459.999
c15.333 -26.667 36.166 -47.667 62.499 -63s55.833 -23 88.5 -23s62.334 7.66699 89.001 23s47.667 36.333 63 63s23 56.334 23 89.001s-7.66699 62.167 -23 88.5s-36.333 47.166 -63 62.499s-56.334 23 -89.001 23s-62.167 -7.66699 -88.5 -23
s-47.166 -36.166 -62.499 -62.499s-23 -55.833 -23 -88.5s7.66699 -62.334 23 -89.001z" />
    <glyph glyph-name="colon" unicode=":" horiz-adv-x="195" 
d="M52 449.5c-10 9.66699 -15.001 21.834 -15.001 36.501c0 14 4.83301 25.833 14.5 35.5s21.834 14.5 36.501 14.5c14 0 25.833 -4.83301 35.5 -14.5s14.5 -21.5 14.5 -35.5c0 -14.667 -4.83301 -26.834 -14.5 -36.501s-21.5 -14.5 -35.5 -14.5s-26 4.83301 -36 14.5z
M48.499 -1.5c-9.66699 9.66699 -14.499 21.833 -14.499 36.5c0 14 5 25.833 15 35.5s22 14.5 36 14.5s25.833 -4.83301 35.5 -14.5s14.5 -21.5 14.5 -35.5s-4.83301 -26 -14.5 -36s-21.5 -15 -35.5 -15c-14.667 0 -26.834 4.83301 -36.501 14.5z" />
    <glyph glyph-name="semicolon" unicode=";" horiz-adv-x="204" 
d="M145.5 64.5c11.667 -15 17.499 -35.166 17.499 -60.499c0 -24 -3.83301 -48.333 -11.5 -73s-17.667 -45.167 -30 -61.5s-25.833 -24.5 -40.5 -24.5c-12.667 0 -19 5.66699 -19 17c0 6.66699 4.66699 16.667 14 30c6 9.33301 10.5 17 13.5 23s4.5 13 4.5 21
c0 12 -1.83301 21.5 -5.5 28.5s-9.5 16.167 -17.5 27.5c-7.33301 8.66699 -12.666 16.167 -15.999 22.5s-5 14.166 -5 23.499c0 15.333 5 27.333 15 36s22 13 36 13c18 0 32.833 -7.5 44.5 -22.5zM51.999 449.501c-10 9.66699 -15.001 21.834 -15.001 36.501
c0 14 4.83301 25.833 14.5 35.5s21.834 14.5 36.501 14.5c14 0 25.833 -4.83301 35.5 -14.5s14.5 -21.5 14.5 -35.5c0 -14.667 -4.83301 -26.834 -14.5 -36.501s-21.5 -14.5 -35.5 -14.5s-26 4.83301 -36 14.5z" />
    <glyph glyph-name="less" unicode="&#x3c;" horiz-adv-x="547" 
d="M505 111c0 -8.66699 -3.33398 -16 -10.001 -22s-14 -9 -22 -9c-5.33301 0 -9.66602 1.33301 -12.999 4l-403 243c-12 6 -18 15 -18 27c0 10.667 6 20 18 28l403 243c6.66699 2.66699 12 4 16 4c8 0 14.833 -2.5 20.5 -7.5s8.5 -11.833 8.5 -20.5
c0 -11.333 -5.33301 -20.333 -16 -27l-364 -218l364 -218c10.667 -6.66699 16 -15.667 16 -27z" />
    <glyph glyph-name="equal" unicode="=" horiz-adv-x="508" 
d="M48.5 454.5c-5.66699 5.66699 -8.5 12.834 -8.5 21.501s2.83301 15.834 8.5 21.501s12.834 8.5 21.501 8.5h365c8.66699 0 15.834 -2.83301 21.501 -8.5s8.5 -12.834 8.5 -21.501s-2.83301 -15.834 -8.5 -21.501s-12.834 -8.5 -21.501 -8.5h-365
c-8.66699 0 -15.834 2.83301 -21.501 8.5zM48.5 211.5c-5.66699 5.66699 -8.5 12.833 -8.5 21.5s2.83301 15.834 8.5 21.501s12.834 8.5 21.501 8.5h365c8.66699 0 15.834 -2.83301 21.501 -8.5s8.5 -12.834 8.5 -21.501s-2.83301 -15.834 -8.5 -21.501
s-12.834 -8.5 -21.501 -8.5l-365 -1c-8.66699 0.666992 -15.834 3.83398 -21.501 9.50098z" />
    <glyph glyph-name="greater" unicode="&#x3e;" horiz-adv-x="547" 
d="M505 354c0 -12 -6.00098 -21 -18.001 -27l-403 -243c-3.33301 -2.66699 -7.66602 -4 -12.999 -4c-8 0 -15.333 3 -22 9s-10 13.333 -10 22c0 11.333 5.33301 20.333 16 27l364 218l-364 218c-10.667 6.66699 -16 15.667 -16 27c0 8.66699 2.83301 15.5 8.5 20.5
s12.5 7.5 20.5 7.5c4 0 9.33301 -1.33301 16 -4l403 -243c12 -8 18 -17.333 18 -28z" />
    <glyph glyph-name="question" unicode="?" horiz-adv-x="547" 
d="M423 660.5c-14.667 23.667 -35.167 42.333 -61.5 56s-56.166 20.5 -89.499 20.5c-50.667 0 -92 -16 -124 -48s-48 -73.333 -48 -124c0 -8.66699 -2.83301 -15.667 -8.5 -21s-12.834 -8 -21.501 -8c-9.33301 0 -16.833 2.66699 -22.5 8s-8.5 12.333 -8.5 21
c0 44.667 10 84.667 30 120s47.667 62.833 83 82.5s75.333 29.5 120 29.5s84.667 -9.66699 120 -29s63 -46 83 -80s30 -71.667 30 -113c0 -29.333 -4.66699 -55.333 -14 -78s-21.166 -42.334 -35.499 -59.001s-34.833 -37.667 -61.5 -63l-37 -35
c-36 -36 -54 -81.667 -54 -137c0 -8.66699 -2.83301 -16 -8.5 -22s-13.167 -9 -22.5 -9c-8.66699 0 -15.834 2.83301 -21.501 8.5s-8.5 13.167 -8.5 22.5c0 27.333 6.33301 56.333 19 87s29 56.334 49 77.001l35 34c22.667 21.333 40.667 39.5 54 54.5
s24.333 32.833 33 53.5s13 44.667 13 72c0 29.333 -7.33301 55.833 -22 79.5zM308 86.499c10 -9.66699 15 -21.499 15 -35.499c0 -14.667 -5 -26.834 -15 -36.501s-22 -14.5 -36 -14.5s-25.833 5 -35.5 15s-14.5 22 -14.5 36s4.66699 25.833 14 35.5s21.333 14.5 36 14.5
c14 0 26 -4.83301 36 -14.5z" />
    <glyph glyph-name="at" unicode="@" horiz-adv-x="1094" 
d="M285.5 -168.5c-77 43 -136.999 103 -179.999 180s-64.5 164.5 -64.5 262.5s21.5 185.5 64.5 262.5s103 137.167 180 180.5s164.5 65 262.5 65s185.5 -21.667 262.5 -65s137.167 -103.5 180.5 -180.5s65 -164.5 65 -262.5c0 -59.333 -8 -112.5 -24 -159.5
s-38.333 -83.667 -67 -110s-61.334 -39.5 -98.001 -39.5c-32 0 -58.333 10.333 -79 31s-31 47 -31 79v32c-19.333 -29.333 -48.666 -53.666 -87.999 -72.999s-79.666 -29 -120.999 -29c-52 0 -98.333 11.5 -139 34.5s-72.5 54.833 -95.5 95.5s-34.5 87 -34.5 139
s11.5 98.5 34.5 139.5s54.833 73 95.5 96s87 34.5 139 34.5s98.333 -11.5 139 -34.5s72.5 -55 95.5 -96s34.5 -87.5 34.5 -139.5v-179c0 -46.667 16.667 -70 50 -70c25.333 0 47.666 10.5 66.999 31.5s34.5 50.5 45.5 88.5s16.5 81 16.5 129c0 86 -19.167 163 -57.5 231
s-91.5 121.167 -159.5 159.5s-145 57.5 -231 57.5s-163 -19.167 -231 -57.5s-121 -91.5 -159 -159.5s-57 -145 -57 -231s19 -163 57 -231s91 -121 159 -159s145 -57 231 -57c31.333 0 64.166 3.5 98.499 10.5s62.833 16.167 85.5 27.5c9.33301 4 17 6 23 6
c7.33301 0 13 -2.33301 17 -7s6 -11.334 6 -20.001c0 -10.667 -10.167 -22.167 -30.5 -34.5s-48 -22.5 -83 -30.5s-73.833 -12 -116.5 -12c-98 0 -185.5 21.5 -262.5 64.5zM655.501 92c31.667 18 56.5 42.833 74.5 74.5s27 67.5 27 107.5c0 40.667 -9 76.834 -27 108.501
s-42.833 56.5 -74.5 74.5s-67.5 27 -107.5 27s-75.833 -9 -107.5 -27s-56.5 -42.833 -74.5 -74.5s-27 -67.834 -27 -108.501c0 -40 9 -75.833 27 -107.5s42.833 -56.5 74.5 -74.5s67.5 -27 107.5 -27s75.833 9 107.5 27z" />
    <glyph glyph-name="A" unicode="A" horiz-adv-x="703" 
d="M690 30c0 -8 -3.00195 -15 -9.00195 -21s-13 -9 -21 -9c-13.333 -0 -22.666 6.33301 -27.999 19l-74 177h-407l-74 -177c-4.66699 -12.667 -14 -19 -28 -19c-9.33301 0 -16.666 3 -21.999 9s-8 13 -8 21c0 4.66699 1 9 3 13l303 717c5.33301 14 15 21 29 21
c13.333 0 23 -7 29 -21l304 -717c2 -4 3 -8.33301 3 -13zM534.998 250l-181 432l-180 -432h361z" />
    <glyph glyph-name="B" unicode="B" horiz-adv-x="675" 
d="M110.5 7.5c-7 5 -10.5 12.501 -10.5 22.501v721c0 9.33301 2.83301 16.666 8.5 21.999s12.834 8 21.501 8h245c36.667 0 70.667 -8.16699 102 -24.5s56.166 -38.833 74.499 -67.5s27.5 -61 27.5 -97c0 -37.333 -10 -70.833 -30 -100.5s-46.667 -51.834 -80 -66.501
c46.667 -12.667 83.5 -36.167 110.5 -70.5s40.5 -76.833 40.5 -127.5c0 -44 -9.83301 -83.167 -29.5 -117.5s-47 -61.166 -82 -80.499s-74.5 -29 -118.5 -29h-251c-12 0 -21.5 2.5 -28.5 7.5zM375 451.001c42.667 0 77.332 12.999 103.999 38.999s40 60 40 102
c0 40.667 -13.167 72.334 -39.5 95.001s-61.166 34 -104.499 34h-215v-270h215zM389.998 60c32.667 0 61.834 7.16797 87.501 21.501s45.834 34.166 60.501 59.499s22 54 22 86c0 31.333 -7.33301 59.5 -22 84.5s-34.834 44.5 -60.501 58.5s-54.834 21 -87.501 21h-230v-331
h230z" />
    <glyph glyph-name="C" unicode="C" horiz-adv-x="767" 
d="M256 44.5c-60 36.333 -107.668 85.333 -143.001 147s-53 128.167 -53 199.5s17.5 137.666 52.5 198.999s82.333 110.166 142 146.499s125.167 54.5 196.5 54.5c93.333 0 175.666 -29.667 246.999 -89c6 -4.66699 9 -11.334 9 -20.001c0 -8 -2.66699 -15.167 -8 -21.5
s-12.666 -9.5 -21.999 -9.5c-7.33301 0 -15.666 4 -24.999 12c-50.667 45.333 -117.667 68 -201 68c-58.667 0 -113.5 -15.667 -164.5 -47s-91.5 -73.166 -121.5 -125.499s-45 -108.166 -45 -167.499c0 -61.333 14.833 -118.166 44.5 -170.499s70 -93.833 121 -124.5
s106.167 -46 165.5 -46c78.667 0 147.667 24.333 207 73c4.66699 3.33301 9.66699 5 15 5c8 0 15.167 -3 21.5 -9s9.5 -13.333 9.5 -22s-2.33301 -15.667 -7 -21c-57.333 -57.333 -139.333 -86 -246 -86c-70 0 -135 18.167 -195 54.5z" />
    <glyph glyph-name="D" unicode="D" horiz-adv-x="761" 
d="M108.5 8.5c-5.66699 5.66699 -8.5 12.832 -8.5 21.499v721c0 9.33301 2.83301 16.666 8.5 21.999s12.834 8 21.501 8h180c75.333 0 142.666 -16.667 201.999 -50s105.666 -79.5 138.999 -138.5s50 -126.167 50 -201.5s-16.667 -142.666 -50 -201.999
s-79.666 -105.666 -138.999 -138.999s-126.666 -50 -201.999 -50h-180c-8.66699 -0 -15.834 2.83301 -21.501 8.5zM310 53.998c64 0 121 14.5 171 43.5s89.167 69.167 117.5 120.5s42.5 109 42.5 173s-14.167 121.5 -42.5 172.5s-67.5 91 -117.5 120s-107 43.5 -171 43.5
h-150v-673h150z" />
    <glyph glyph-name="E" unicode="E" horiz-adv-x="686" 
d="M108.5 8.5c-5.66699 5.66699 -8.5 12.835 -8.5 21.502v721c0 8.66699 2.83301 15.834 8.5 21.501s12.834 8.5 21.501 8.5h481c8 0 15 -2.83301 21 -8.5s9 -12.834 9 -21.501c0 -8 -3 -15 -9 -21s-13 -9 -21 -9h-451v-300h331c8.66699 0 15.834 -2.83301 21.501 -8.5
s8.5 -12.834 8.5 -21.501s-2.83301 -16 -8.5 -22s-12.834 -9 -21.501 -9h-331v-300h451c8 0 15 -3 21 -9s9 -13 9 -21c0 -8.66699 -3 -15.834 -9 -21.501s-13 -8.5 -21 -8.5h-481c-8.66699 -0 -15.834 2.83301 -21.501 8.5z" />
    <glyph glyph-name="F" unicode="F" horiz-adv-x="625" 
d="M47.5 8.5c-5.66699 5.66699 -8.49902 12.835 -8.49902 21.502v721c0 8.66699 2.83301 15.834 8.5 21.501s12.834 8.5 21.501 8.5h481c8 0 15 -2.83301 21 -8.5s9 -12.834 9 -21.501c0 -8 -3 -15 -9 -21s-13 -9 -21 -9h-451v-300h331
c8.66699 0 15.834 -2.83301 21.501 -8.5s8.5 -12.834 8.5 -21.501s-2.83301 -16 -8.5 -22s-12.834 -9 -21.501 -9h-331v-330c0 -8.66699 -2.83301 -15.834 -8.5 -21.501s-12.834 -8.5 -21.501 -8.5s-15.834 2.83301 -21.501 8.5z" />
    <glyph glyph-name="G" unicode="G" horiz-adv-x="767" 
d="M695.5 372c5.66699 -5.33301 8.49805 -12.333 8.49805 -21v-254c0 -4.66699 -0.333008 -8.5 -1 -11.5s-2.66699 -6.16699 -6 -9.5c-57.333 -57.333 -139.333 -86 -246 -86c-70 0 -135 18.167 -195 54.5s-107.667 85.333 -143 147s-53 128.167 -53 199.5
s17.5 137.666 52.5 198.999s82.333 110.166 142 146.499s125.167 54.5 196.5 54.5c93.333 0 175.666 -29.667 246.999 -89c6 -4.66699 9 -11.334 9 -20.001c0 -8 -2.66699 -15.167 -8 -21.5s-12.666 -9.5 -21.999 -9.5c-7.33301 0 -15.666 4 -24.999 12
c-50.667 45.333 -117.667 68 -201 68c-58.667 0 -113.5 -15.667 -164.5 -47s-91.5 -73.166 -121.5 -125.499s-45 -108.166 -45 -167.499c0 -61.333 14.833 -118.166 44.5 -170.499s70 -93.833 121 -124.5s106.167 -46 165.5 -46c72.667 0 137 20.667 193 62v214h-168
c-8.66699 0 -15.834 2.66699 -21.501 8s-8.5 12 -8.5 20c0 7.33301 2.83301 13.5 8.5 18.5s12.834 7.5 21.501 7.5h198c8.66699 0 15.834 -2.66699 21.501 -8z" />
    <glyph glyph-name="H" unicode="H" horiz-adv-x="825" 
d="M108.5 8.5c-5.66699 5.66699 -8.5 12.834 -8.5 21.501v721c0 8.66699 2.83301 15.834 8.5 21.501s12.834 8.5 21.501 8.5s15.834 -2.83301 21.501 -8.5s8.5 -12.834 8.5 -21.501v-330h505v330c0 8.66699 2.83301 15.834 8.5 21.501s12.834 8.5 21.501 8.5
c8 0 15 -2.83301 21 -8.5s9 -12.834 9 -21.501v-721c0 -8.66699 -3 -15.834 -9 -21.501s-13 -8.5 -21 -8.5c-8.66699 -0 -15.834 2.83301 -21.501 8.5s-8.5 12.834 -8.5 21.501v337h-505v-337c0 -8.66699 -2.83301 -15.834 -8.5 -21.501s-12.834 -8.5 -21.501 -8.5
s-15.834 2.83301 -21.501 8.5z" />
    <glyph glyph-name="I" unicode="I" horiz-adv-x="260" 
d="M108.5 8.5c-5.66699 5.66699 -8.5 12.834 -8.5 21.501v721c0 8.66699 2.83301 15.834 8.5 21.501s12.834 8.5 21.501 8.5s15.834 -2.83301 21.501 -8.5s8.5 -12.834 8.5 -21.501v-721c0 -8.66699 -2.83301 -15.834 -8.5 -21.501s-12.834 -8.5 -21.501 -8.5
s-15.834 2.83301 -21.501 8.5z" />
    <glyph glyph-name="J" unicode="J" horiz-adv-x="606" 
d="M160 21.5c-35.333 21 -63.3369 49 -84.0039 84s-31 73.167 -31 114.5c0 8.66699 2.83301 15.834 8.5 21.501s12.834 8.5 21.501 8.5s15.834 -2.83301 21.501 -8.5s8.5 -12.834 8.5 -21.501c0 -30.667 7.83301 -59 23.5 -85s36.5 -46.667 62.5 -62s54.333 -23 85 -23
s59 7.66699 85 23s46.667 36.166 62 62.499s23 54.5 23 84.5v531c0 8.66699 3 15.834 9 21.501s13 8.5 21 8.5c8.66699 0 15.834 -2.83301 21.501 -8.5s8.5 -12.834 8.5 -21.501v-531c0 -41.333 -10.333 -79.666 -31 -114.999s-48.667 -63.333 -84 -84
s-73.666 -31 -114.999 -31c-42 0 -80.667 10.5 -116 31.5z" />
    <glyph glyph-name="K" unicode="K" horiz-adv-x="647" 
d="M109 8.5c-6 5.66699 -9.00098 12.833 -9.00098 21.5v721c0 8.66699 3 15.834 9 21.501s13 8.5 21 8.5c8.66699 0 15.834 -2.83301 21.501 -8.5s8.5 -12.834 8.5 -21.501v-367l388 388c7.33301 6 15 9 23 9c8.66699 0 15.834 -3 21.501 -9s8.5 -13 8.5 -21
c0 -7.33301 -3 -14.666 -9 -21.999l-287 -287l290 -394c4 -6 6 -12 6 -18c0 -8 -3 -15 -9 -21s-12.667 -9 -20 -9c-11.333 0 -20 4.33301 -26 13l-285 385l-101 -101v-267c0 -8.66699 -2.83301 -15.834 -8.5 -21.501s-12.834 -8.5 -21.501 -8.5c-8 -0 -15 2.83301 -21 8.5z
" />
    <glyph glyph-name="L" unicode="L" horiz-adv-x="626" 
d="M109 8.5c-6 5.66699 -9.00098 12.833 -9.00098 21.5v721c0 8.66699 3 15.834 9 21.501s13 8.5 21 8.5c8.66699 0 15.834 -2.83301 21.501 -8.5s8.5 -12.834 8.5 -21.501v-697h411c8.66699 0 15.834 -2.5 21.501 -7.5s8.5 -11.5 8.5 -19.5s-2.83301 -14.5 -8.5 -19.5
s-12.834 -7.5 -21.501 -7.5h-441c-8 -0 -15 2.83301 -21 8.5z" />
    <glyph glyph-name="M" unicode="M" horiz-adv-x="981" 
d="M873 772.5c5.33301 -5.66699 8.00195 -12.834 8.00195 -21.501v-721c0 -8.66699 -2.66699 -15.834 -8 -21.501s-12.333 -8.5 -21 -8.5s-16 2.83301 -22 8.5s-9 12.834 -9 21.501v613l-304 -619c-4.66699 -9.33301 -13.334 -14 -26.001 -14c-12 0 -21.333 6.33301 -28 19
l-303 605v-604c0 -8.66699 -2.83301 -15.834 -8.5 -21.501s-12.834 -8.5 -21.501 -8.5s-15.834 2.83301 -21.501 8.5s-8.5 12.834 -8.5 21.501v721c0 8.66699 2.83301 15.834 8.5 21.501s12.834 8.5 21.501 8.5c13.333 0 22.333 -5 27 -15l336 -664l332 664
c6 10 15 15 27 15c8.66699 0 15.667 -2.83301 21 -8.5z" />
    <glyph glyph-name="N" unicode="N" horiz-adv-x="821" 
d="M108.5 8.5c-5.66699 5.66699 -8.50098 12.834 -8.50098 21.501v721c0 8.66699 2.83301 15.834 8.5 21.501s12.834 8.5 21.501 8.5c9.33301 0 17 -3.33301 23 -10l508 -661v641c0 8.66699 2.83301 15.834 8.5 21.501s12.834 8.5 21.501 8.5c8 0 15 -2.83301 21 -8.5
s9 -12.834 9 -21.501v-721c0 -8.66699 -3 -15.834 -9 -21.501s-13 -8.5 -21 -8.5c-9.33301 0 -16.666 3 -21.999 9l-509 662v-641c0 -8.66699 -2.83301 -15.834 -8.5 -21.501s-12.834 -8.5 -21.501 -8.5s-15.834 2.83301 -21.501 8.5z" />
    <glyph glyph-name="O" unicode="O" horiz-adv-x="921" 
d="M256.5 42.5c-61 35 -109 83 -144 144s-52.5 129.167 -52.5 204.5c0 74.667 17.5 142.5 52.5 203.5s83 109 144 144s129.167 52.5 204.5 52.5c74.667 0 142.5 -17.5 203.5 -52.5s109 -83 144 -144s52.5 -128.833 52.5 -203.5c0 -75.333 -17.5 -143.5 -52.5 -204.5
s-83 -109 -144 -144s-128.833 -52.5 -203.5 -52.5c-75.333 0 -143.5 17.5 -204.5 52.5zM634 94.5c52 29.667 92.833 70.5 122.5 122.5s44.5 110 44.5 174c0 63.333 -14.833 121 -44.5 173s-70.5 92.833 -122.5 122.5s-109.667 44.5 -173 44.5c-64 0 -122 -14.833 -174 -44.5
s-92.833 -70.5 -122.5 -122.5s-44.5 -109.667 -44.5 -173c0 -64 14.833 -122 44.5 -174s70.5 -92.833 122.5 -122.5s110 -44.5 174 -44.5c63.333 0 121 14.833 173 44.5z" />
    <glyph glyph-name="P" unicode="P" horiz-adv-x="605" 
d="M108.5 8.5c-5.66699 5.66699 -8.50098 12.835 -8.50098 21.502v721c0 9.33301 2.83301 16.666 8.5 21.999s12.834 8 21.501 8h200c48 0 91 -10.667 129 -32s67.667 -51 89 -89s32 -81 32 -129c0 -48.667 -10.667 -92 -32 -130s-51 -67.667 -89 -89s-81 -32 -129 -32h-170
v-250c0 -8.66699 -2.66699 -15.834 -8 -21.501s-12.666 -8.5 -21.999 -8.5c-8.66699 -0 -15.834 2.83301 -21.501 8.5zM329.999 340.001c36.667 0 69.334 8.16602 98.001 24.499s51.167 39 67.5 68s24.5 61.833 24.5 98.5s-8.16699 69.334 -24.5 98.001
s-38.833 51.167 -67.5 67.5s-61.334 24.5 -98.001 24.5h-170v-381h170z" />
    <glyph glyph-name="Q" unicode="Q" horiz-adv-x="921" 
d="M811 50c6 -6 9 -12.667 9 -20c0 -8 -3 -15 -9 -21s-12.667 -9 -20 -9c-8 0 -15 3 -21 9l-62 62c-34 -26 -72 -46 -114 -60s-86.333 -21 -133 -21c-75.333 0 -143.5 17.5 -204.5 52.5s-109 83 -144 144s-52.5 129.167 -52.5 204.5c0 74.667 17.5 142.5 52.5 203.5
s83 109 144 144s129.167 52.5 204.5 52.5c74.667 0 142.5 -17.5 203.5 -52.5s109 -83 144 -144s52.5 -128.833 52.5 -203.5c0 -55.333 -9.5 -107 -28.5 -155s-46.167 -90.333 -81.5 -127zM664 114l-115.999 114.999c-6 6 -9 13 -9 21c0 7.33301 3 14 9 20s13 9 21 9
c7.33301 0 14 -3 20 -9l119 -118c29.333 31.333 52.166 67.333 68.499 108s24.5 84.334 24.5 131.001c0 63.333 -14.833 121 -44.5 173s-70.5 92.833 -122.5 122.5s-109.667 44.5 -173 44.5c-64 0 -122 -14.833 -174 -44.5s-92.833 -70.5 -122.5 -122.5
s-44.5 -109.667 -44.5 -173c0 -64 14.833 -122 44.5 -174s70.5 -92.833 122.5 -122.5s110 -44.5 174 -44.5c77.333 0 145 21.333 203 64z" />
    <glyph glyph-name="R" unicode="R" horiz-adv-x="608" 
d="M583 23c0 -7.33301 -2.83398 -12.9971 -8.50098 -16.9971s-13.834 -6 -24.501 -6c-6.66699 0 -12 1.33301 -16 4s-7.66699 6.66699 -11 12l-184 294h-18h-161v-280c0 -8.66699 -2.66699 -15.834 -8 -21.501s-12.666 -8.5 -21.999 -8.5
c-8.66699 0 -15.834 2.83301 -21.501 8.5s-8.5 12.834 -8.5 21.501v721c0 9.33301 2.83301 16.666 8.5 21.999s12.834 8 21.501 8h191c48 0 91 -10 129 -30s67.667 -48 89 -84s32 -77 32 -123c0 -54.667 -15.167 -101.834 -45.5 -141.501s-71.166 -66.834 -122.499 -81.501
l172 -275c5.33301 -9.33301 8 -17 8 -23zM320.999 370.003c36.667 0 69.334 7.33203 98.001 21.999s51.167 35.334 67.5 62.001s24.5 56.667 24.5 90c0 34 -8.16699 64.5 -24.5 91.5s-38.833 48 -67.5 63s-61.334 22.5 -98.001 22.5h-161v-351h161z" />
    <glyph glyph-name="S" unicode="S" horiz-adv-x="644" 
d="M171 28.5c-46 25.667 -80.3369 60.8262 -103.004 105.493c-2 4 -3 8 -3 12c0 8 2.83301 14.667 8.5 20s13.167 8 22.5 8c13.333 0 23 -6.33301 29 -19c18 -33.333 44.833 -59.166 80.5 -77.499s78.5 -27.5 128.5 -27.5c57.333 0 102.5 14.333 135.5 43
s49.5 69.334 49.5 122.001c0 45.333 -16.167 82.833 -48.5 112.5s-80.166 48.834 -143.499 57.501c-74 10.667 -132.167 34.834 -174.5 72.501s-63.5 83.5 -63.5 137.5c0 38.667 9.83301 72.834 29.5 102.501s47.334 52.667 83.001 69s76.834 24.5 123.501 24.5
c48.667 0 93.334 -11.667 134.001 -35s70.667 -51.333 90 -84c2.66699 -4.66699 4 -10 4 -16c0 -5.33301 -1.5 -10.166 -4.5 -14.499s-7.16699 -7.83301 -12.5 -10.5c-2.66699 -1.33301 -6.66699 -2 -12 -2c-12 0 -21.333 5 -28 15c-39.333 58 -96.333 87 -171 87
c-55.333 0 -98.5 -12.5 -129.5 -37.5s-46.5 -59.833 -46.5 -104.5c0 -37.333 15.333 -68.666 46 -93.999s78 -43.333 142 -54c84 -14 145.333 -39.833 184 -77.5s58 -87.167 58 -148.5c0 -46 -10.167 -86 -30.5 -120s-49 -60 -86 -78s-79.833 -27 -128.5 -27
c-62.667 0 -117 12.833 -163 38.5z" />
    <glyph glyph-name="T" unicode="T" horiz-adv-x="650" 
d="M627.5 773.5c5 -5 7.50195 -11.5 7.50195 -19.5s-2.5 -14.5 -7.5 -19.5s-11.5 -7.5 -19.5 -7.5h-253v-697c0 -8.66699 -2.83301 -15.834 -8.5 -21.501s-12.834 -8.5 -21.501 -8.5s-15.834 2.83301 -21.501 8.5s-8.5 12.834 -8.5 21.501v697h-253
c-8 0 -14.5 2.5 -19.5 7.5s-7.5 11.5 -7.5 19.5s2.5 14.5 7.5 19.5s11.5 7.5 19.5 7.5h566c8 0 14.5 -2.5 19.5 -7.5z" />
    <glyph glyph-name="U" unicode="U" horiz-adv-x="801" 
d="M244.5 18.5c-45.667 23 -81.165 55 -106.498 96s-38 87.833 -38 140.5v496c0 9.33301 2.83301 16.666 8.5 21.999s12.834 8 21.501 8c9.33301 0 16.666 -2.66699 21.999 -8s8 -12.666 8 -21.999v-496c0 -40.667 10.167 -77 30.5 -109s48.666 -57 84.999 -75
s77.833 -27 124.5 -27s88.167 9 124.5 27s64.833 43 85.5 75s31 68.333 31 109v496c0 9.33301 2.83301 16.666 8.5 21.999s12.834 8 21.501 8c9.33301 0 16.666 -2.66699 21.999 -8s8 -12.666 8 -21.999v-496c0 -52.667 -12.833 -99.5 -38.5 -140.5
s-61.334 -73 -107.001 -96s-97.5 -34.5 -155.5 -34.5s-109.833 11.5 -155.5 34.5z" />
    <glyph glyph-name="V" unicode="V" horiz-adv-x="702" 
d="M675 773c4.66699 -5.33301 7 -12.334 7 -21.001c0 -7.33301 -1.33301 -14 -4 -20l-299 -713c-6 -12.667 -15 -19 -27 -19c-6.66699 0 -12.167 1.5 -16.5 4.5s-7.83301 7.83301 -10.5 14.5l-300 713c-3.33301 8.66699 -5 15.667 -5 21c0 8.66699 3 15.5 9 20.5
s13.333 7.5 22 7.5c6.66699 0 12.334 -1.66699 17.001 -5s8.66699 -8.66602 12 -15.999l273 -654l270 650c3.33301 8.66699 7.66602 15 12.999 19s12 6 20 6s14.333 -2.66699 19 -8z" />
    <glyph glyph-name="W" unicode="W" horiz-adv-x="938" 
d="M900 772.5c5.33301 -5.66699 8.00586 -13.166 8.00586 -22.499c0 -2.66699 -0.666992 -7.33398 -2 -14.001l-206 -710c-2.66699 -8 -6.83398 -14.333 -12.501 -19s-11.834 -7 -18.501 -7c-8 -0 -14.667 2.33301 -20 7s-9 11 -11 19l-170 601l-168 -601
c-6.66699 -17.333 -17.334 -26 -32.001 -26c-7.33301 0 -13.833 2.5 -19.5 7.5s-9.5 11.167 -11.5 18.5l-207 710c-1.33301 6.66699 -2 11 -2 13c0 9.33301 2.66699 17 8 23s12.666 9 21.999 9c15.333 0 25 -7.66699 29 -23l181 -626l172 600
c1.33301 5.33301 4.83301 9.83301 10.5 13.5s11.5 5.5 17.5 5.5c6.66699 0 12.667 -1.83301 18 -5.5s9 -8.5 11 -14.5l172 -599l181 629c1.33301 6 4.66602 10.833 9.99902 14.5s11.666 5.5 18.999 5.5c8.66699 0 15.667 -2.83301 21 -8.5z" />
    <glyph glyph-name="X" unicode="X" horiz-adv-x="701" 
d="M657 29c0 -8 -2.5 -14.832 -7.5 -20.499s-11.833 -8.5 -20.5 -8.5c-4 0 -8.33301 0.833008 -13 2.5s-8 4.16699 -10 7.5l-254 352l-254 -352c-6 -6.66699 -13.667 -10 -23 -10c-8.66699 0 -15.834 2.66699 -21.501 8s-8.5 12 -8.5 20c0 7.33301 2.33301 14.333 7 21
l257 355l-239 330c-4.66699 5.33301 -7 12 -7 20c0 7.33301 2.66699 13.666 8 18.999s12 8 20 8c10 0 18.333 -4.33301 25 -13l235 -325l234 325c6.66699 8.66699 15 13 25 13c8.66699 0 15.834 -3.33301 21.501 -10s8.5 -14 8.5 -22c0 -5.33301 -1.66699 -10.333 -5 -15
l-241 -332l256 -353c4.66699 -5.33301 7 -12 7 -20z" />
    <glyph glyph-name="Y" unicode="Y" horiz-adv-x="633" 
d="M620.5 773c5 -5.33301 7.50195 -12 7.50195 -20c0 -7.33301 -1.66699 -13.666 -5 -18.999l-276 -442v-262c0 -8.66699 -2.83301 -15.834 -8.5 -21.501s-12.834 -8.5 -21.501 -8.5s-15.834 2.83301 -21.501 8.5s-8.5 12.834 -8.5 21.501v262l-276 442
c-4 7.33301 -6 13.666 -6 18.999c0 8 2.66699 14.667 8 20s12.333 8 21 8s16.667 -4 24 -12l259 -422l255 415c4.66699 7.33301 9.16699 12.333 13.5 15s9.5 4 15.5 4c8 0 14.5 -2.66699 19.5 -8z" />
    <glyph glyph-name="Z" unicode="Z" horiz-adv-x="711" 
d="M53.5 9c-5.66699 6 -8.50293 13.0029 -8.50293 21.0029c0 7.33301 2.33301 13.666 7 18.999l535 678h-512c-9.33301 0 -16.666 2.16699 -21.999 6.5s-8 11.166 -8 20.499c0 7.33301 2.83301 13.666 8.5 18.999s12.834 8 21.501 8h561
c8.66699 0 15.834 -3.16699 21.501 -9.5s8.5 -13.5 8.5 -21.5c0 -6 -1.66699 -11.333 -5 -16l-539 -680h514c8.66699 0 15.834 -2.33301 21.501 -7s8.5 -11.334 8.5 -20.001c0 -7.33301 -3 -13.666 -9 -18.999s-13 -8 -21 -8h-561c-8.66699 0 -15.834 3 -21.501 9z" />
    <glyph glyph-name="bracketleft" unicode="[" horiz-adv-x="288" 
d="M73.5 -225.5c-5.66699 5.66699 -8.5 12.834 -8.5 21.501v956c0 8.66699 2.83301 15.834 8.5 21.501s12.834 8.5 21.501 8.5h162c8.66699 0 16 -2.83301 22 -8.5s9 -12.834 9 -21.501s-3 -16 -9 -22s-13.333 -9 -22 -9h-132v-894h132c8.66699 0 16 -3 22 -9
s9 -13.333 9 -22s-3 -15.834 -9 -21.501s-13.333 -8.5 -22 -8.5h-162c-8.66699 0 -15.834 2.83301 -21.501 8.5z" />
    <glyph glyph-name="backslash" unicode="\" horiz-adv-x="469" 
d="M374 -64l-324.998 802.001c-2 4 -3 8.33301 -3 13c0 8.66699 3 16 9 22s13.333 9 22 9c5.33301 0 10.666 -1.5 15.999 -4.5s9 -7.16699 11 -12.5l324 -803c2 -4 3 -8.33301 3 -13c0 -8.66699 -2.83301 -15.834 -8.5 -21.501s-12.834 -8.5 -21.501 -8.5
c-13.333 0 -22.333 5.66699 -27 17z" />
    <glyph glyph-name="bracketright" unicode="]" horiz-adv-x="288" 
d="M31 -234c-8.66699 0 -16 2.83301 -22 8.5s-9 12.834 -9 21.501s3 16 9 22s13.333 9 22 9h132v894h-132c-8.66699 0 -16 3 -22 9s-9 13.333 -9 22s3 15.834 9 21.501s13.333 8.5 22 8.5h162c8.66699 0 15.834 -2.83301 21.501 -8.5s8.5 -12.834 8.5 -21.501v-956
c0 -8.66699 -2.83301 -15.834 -8.5 -21.501s-12.834 -8.5 -21.501 -8.5h-162z" />
    <glyph glyph-name="asciicircum" unicode="^" horiz-adv-x="469" 
d="M55 487.5c-6 5.66699 -8.99902 12.834 -8.99902 21.501c0 4.66699 1.33301 9.66699 4 15l164 246c6.66699 8 15 12 25 12c9.33301 0 17.333 -4 24 -12l164 -246c2.66699 -3.33301 4 -8.33301 4 -15c0 -8.66699 -2.83301 -15.834 -8.5 -21.501s-12.834 -8.5 -21.501 -8.5
c-11.333 0 -19.333 3.33301 -24 10l-138 208l-138 -208c-6.66699 -6.66699 -14.667 -10 -24 -10c-8.66699 0 -16 2.83301 -22 8.5z" />
    <glyph glyph-name="underscore" unicode="_" horiz-adv-x="469" 
d="M-26 -53c-6 6 -9 13.333 -9 22s3 16 9 22s13.333 9 22 9h486c8.66699 0 15.834 -3 21.501 -9s8.5 -13.333 8.5 -22s-2.83301 -16 -8.5 -22s-12.834 -9 -21.501 -9h-486c-8.66699 0 -16 3 -22 9z" />
    <glyph glyph-name="grave" unicode="`" horiz-adv-x="273" 
d="M179 607l-122.999 123.001c-5.33301 5.33301 -8 12.333 -8 21s3 16 9 22s13.333 9 22 9c8 0 15 -3 21 -9l123 -123c4.66699 -4.66699 7 -11.334 7 -20.001s-2.83301 -16 -8.5 -22s-12.834 -9 -21.501 -9c-6.66699 0 -13.667 2.66699 -21 8z" />
    <glyph glyph-name="a" unicode="a" 
d="M482 516.5c42.667 -24.333 76.166 -57.834 100.499 -100.501s36.5 -90.334 36.5 -143.001v-243c0 -8.66699 -2.66699 -15.834 -8 -21.501s-12.666 -8.5 -21.999 -8.5c-8.66699 0 -15.834 2.83301 -21.501 8.5s-8.5 12.834 -8.5 21.501v78
c-22 -35.333 -52.167 -63.166 -90.5 -83.499s-81.166 -30.5 -128.499 -30.5c-52.667 0 -100.334 12.167 -143.001 36.5s-76.167 57.833 -100.5 100.5s-36.5 90 -36.5 142c0 52.667 12.167 100.334 36.5 143.001s57.833 76.167 100.5 100.5s90.334 36.5 143.001 36.5
c52 0 99.333 -12.167 142 -36.5zM451.999 78.999c33.333 19.333 59.5 46 78.5 80s28.5 72 28.5 114s-9.5 80 -28.5 114s-45.167 60.833 -78.5 80.5s-70.666 29.5 -111.999 29.5s-78.666 -9.83301 -111.999 -29.5s-59.666 -46.5 -78.999 -80.5s-29 -72 -29 -114
s9.66699 -80 29 -114s45.666 -60.667 78.999 -80s70.666 -29 111.999 -29s78.666 9.66699 111.999 29z" />
    <glyph glyph-name="b" unicode="b" horiz-adv-x="709" 
d="M512 516.5c42.667 -24.333 76.168 -57.8311 100.501 -100.498s36.5 -90 36.5 -142c0 -52.667 -12.167 -100.334 -36.5 -143.001s-57.833 -76.167 -100.5 -100.5s-90.334 -36.5 -143.001 -36.5c-51.333 0 -98.166 11.833 -140.499 35.5s-75.833 56.5 -100.5 98.5
s-37.334 88.667 -38.001 140v2v481c0 9.33301 2.83301 16.666 8.5 21.999s12.834 8 21.501 8c9.33301 0 16.666 -2.66699 21.999 -8s8 -12.666 8 -21.999v-312c22 35.333 52.167 63.166 90.5 83.499s81.166 30.5 128.499 30.5c52.667 0 100.334 -12.167 143.001 -36.5z
M481.001 79.502c33.333 19.667 59.666 46.5 78.999 80.5s29 72 29 114s-9.66699 80 -29 114s-45.666 60.667 -78.999 80s-70.666 29 -111.999 29s-78.666 -9.66699 -111.999 -29s-59.5 -46 -78.5 -80s-28.5 -72 -28.5 -114s9.5 -80 28.5 -114s45.167 -60.833 78.5 -80.5
s70.666 -29.5 111.999 -29.5s78.666 9.83301 111.999 29.5z" />
    <glyph glyph-name="c" unicode="c" horiz-adv-x="593" 
d="M193 30.5c-41.333 24.333 -73.8359 57.835 -97.5029 100.502s-35.5 90 -35.5 142c0 52.667 11 100.167 33 142.5s52.667 75.666 92 99.999s83.333 36.5 132 36.5c42.667 0 81.667 -8.33301 117 -25s66 -41.334 92 -74.001c4.66699 -6.66699 7 -12.334 7 -17.001
c0 -9.33301 -4.66699 -16.666 -14 -21.999c-4.66699 -4 -10 -6 -16 -6c-9.33301 0 -17 4 -23 12c-42.667 50.667 -97 76 -163 76c-38.667 0 -73 -9.5 -103 -28.5s-53.167 -45.5 -69.5 -79.5s-24.5 -72.333 -24.5 -115c0 -42 9 -80 27 -114s43 -60.667 75 -80
s68.667 -29 110 -29c58.667 0 105.667 16.333 141 49c6 6 13 9 21 9c7.33301 0 13.333 -2.33301 18 -7c6.66699 -6 10 -13.333 10 -22c0 -7.33301 -2.66699 -13.333 -8 -18c-23.333 -21.333 -50.666 -37.833 -81.999 -49.5s-64.666 -17.5 -99.999 -17.5
c-51.333 0 -97.666 12.167 -138.999 36.5z" />
    <glyph glyph-name="d" unicode="d" horiz-adv-x="709" 
d="M611 773c5.33301 -5.33301 8.00098 -12.668 8.00098 -22.001v-481v-2c-0.666992 -51.333 -13.334 -98 -38.001 -140s-58.167 -74.833 -100.5 -98.5s-89.166 -35.5 -140.499 -35.5c-52.667 0 -100.334 12.167 -143.001 36.5s-76.167 57.833 -100.5 100.5
s-36.5 90.334 -36.5 143.001c0 52 12.167 99.333 36.5 142s57.833 76.167 100.5 100.5s90.334 36.5 143.001 36.5c47.333 0 90.166 -10.167 128.499 -30.5s68.5 -48.166 90.5 -83.499v312c0 9.33301 2.83301 16.666 8.5 21.999s12.834 8 21.501 8
c9.33301 0 16.666 -2.66699 21.999 -8zM452.001 79.498c33.333 19.667 59.5 46.5 78.5 80.5s28.5 72 28.5 114s-9.5 80 -28.5 114s-45.167 60.667 -78.5 80s-70.666 29 -111.999 29s-78.666 -9.66699 -111.999 -29s-59.666 -46 -78.999 -80s-29 -72 -29 -114
s9.66699 -80 29 -114s45.666 -60.833 78.999 -80.5s70.666 -29.5 111.999 -29.5s78.666 9.83301 111.999 29.5z" />
    <glyph glyph-name="e" unicode="e" horiz-adv-x="609" 
d="M447.5 517.5c38.333 -23 68.166 -54.832 89.499 -95.499s32 -87 32 -139c0 -8.66699 -2.66699 -15.5 -8 -20.5s-12.333 -7.5 -21 -7.5h-419c2 -39.333 12.333 -74.5 31 -105.5s43.667 -55.167 75 -72.5s66.333 -26 105 -26c26 0 52.167 4.5 78.5 13.5
s47.166 20.833 62.499 35.5c6.66699 5.33301 13.667 8 21 8s13.333 -2 18 -6c7.33301 -6 11 -13 11 -21c0 -6.66699 -3 -13 -9 -19c-21.333 -19.333 -49.166 -35.333 -83.499 -48s-67.166 -19 -98.499 -19c-52.667 0 -99.5 11.833 -140.5 35.5s-73.167 56.667 -96.5 99
s-35 90.166 -35 143.499c0 54 10.833 102.167 32.5 144.5s52 75.333 91 99s83.5 35.5 133.5 35.5c48.667 0 92.167 -11.5 130.5 -34.5zM185.5 444.001c-35.667 -34.667 -56.833 -80.334 -63.5 -137.001h389c-4.66699 56.667 -24.667 102.334 -60 137.001s-80 52 -134 52
c-52 0 -95.833 -17.333 -131.5 -52z" />
    <glyph glyph-name="f" unicode="f" horiz-adv-x="365" 
d="M229 678.5c-22 -32.333 -32.999 -75.833 -32.999 -130.5v-21h132c8 0 14.5 -2.5 19.5 -7.5s7.5 -11.5 7.5 -19.5s-2.5 -14.5 -7.5 -19.5s-11.5 -7.5 -19.5 -7.5h-132v-443c0 -8.66699 -2.83301 -15.834 -8.5 -21.501s-13.167 -8.5 -22.5 -8.5
c-8.66699 0 -15.834 2.83301 -21.501 8.5s-8.5 12.834 -8.5 21.501v443h-78c-8 0 -14.5 2.5 -19.5 7.5s-7.5 11.5 -7.5 19.5s2.5 14.5 7.5 19.5s11.5 7.5 19.5 7.5h78v21c0 71.333 16.667 128 50 170s83.333 63 150 63c8.66699 0 15.834 -2.5 21.501 -7.5
s8.5 -11.5 8.5 -19.5s-2.83301 -14.5 -8.5 -19.5s-12.834 -7.5 -21.501 -7.5c-48.667 0 -84 -16.167 -106 -48.5z" />
    <glyph glyph-name="g" unicode="g" 
d="M484.5 517c42.333 -24 75.3311 -57.168 98.998 -99.501s35.5 -90.5 35.5 -144.5v-196c0 -53.333 -12 -101.833 -36 -145.5s-57 -78 -99 -103s-88.667 -37.5 -140 -37.5c-52.667 0 -98.834 9.83301 -138.501 29.5s-72.834 46.5 -99.501 80.5
c-5.33301 6.66699 -8 13.334 -8 20.001c0 8 3.33301 14.333 10 19c5.33301 4 11.333 6 18 6c10.667 0 19.334 -4.33301 26.001 -13c22 -26.667 49.167 -47.667 81.5 -63s69.166 -23 110.499 -23c40.667 0 77.334 10 110.001 30s58.334 47.5 77.001 82.5s28 74.167 28 117.5
v44c-19.333 -39.333 -48.166 -70.333 -86.499 -93s-82.5 -34 -132.5 -34c-54 0 -102.167 11.833 -144.5 35.5s-75.5 56.667 -99.5 99s-36 90.5 -36 144.5c0 53.333 12.333 101.333 37 144s58.334 76 101.001 100s90 36 142 36c54 0 102.167 -12 144.5 -36zM452.998 78.499
c33.333 19 59.333 45.333 78 79s28 72.167 28 115.5s-9.33301 82 -28 116s-44.667 60.5 -78 79.5s-71 28.5 -113 28.5c-42.667 0 -80.667 -9.5 -114 -28.5s-59.333 -45.5 -78 -79.5s-28 -72.667 -28 -116s9.33301 -81.833 28 -115.5s44.667 -60 78 -79
s71.333 -28.5 114 -28.5c42 0 79.667 9.5 113 28.5z" />
    <glyph glyph-name="h" unicode="h" horiz-adv-x="673" 
d="M470.5 524c38.333 -20 68.333 -49.168 90 -87.501s32.5 -84.166 32.5 -137.499v-269c0 -8.66699 -2.83301 -15.834 -8.5 -21.501s-12.834 -8.5 -21.501 -8.5s-15.834 2.83301 -21.501 8.5s-8.5 12.834 -8.5 21.501v269c0 63.333 -17.833 111.666 -53.5 144.999
s-82.167 50 -139.5 50c-35.333 0 -67.5 -6.83301 -96.5 -20.5s-51.833 -32.667 -68.5 -57s-25 -51.166 -25 -80.499v-306c0 -8.66699 -2.66699 -15.834 -8 -21.501s-12.666 -8.5 -21.999 -8.5c-8.66699 0 -15.834 2.83301 -21.501 8.5s-8.5 12.834 -8.5 21.501v721
c0 9.33301 2.83301 16.666 8.5 21.999s12.834 8 21.501 8c9.33301 0 16.666 -2.66699 21.999 -8s8 -12.666 8 -21.999v-286c22.667 28 50.334 49.833 83.001 65.5s68.334 23.5 107.001 23.5c48.667 0 92.167 -10 130.5 -30z" />
    <glyph glyph-name="i" unicode="i" horiz-adv-x="280" 
d="M118.5 8.5c-5.66699 5.66699 -8.5 12.834 -8.5 21.501v487c0 9.33301 2.83301 16.666 8.5 21.999s12.834 8 21.501 8c9.33301 0 16.666 -2.66699 21.999 -8s8 -12.666 8 -21.999v-487c0 -8.66699 -2.66699 -15.834 -8 -21.501s-12.666 -8.5 -21.999 -8.5
c-8.66699 -0 -15.834 2.83301 -21.501 8.5zM106 675.5c-8.66699 9 -13 20.167 -13 33.5c0 14.667 4.66699 26 14 34s20.333 12 33 12s23.5 -4 32.5 -12s13.5 -19.333 13.5 -34c0 -13.333 -4.5 -24.5 -13.5 -33.5s-20.167 -13.5 -33.5 -13.5s-24.333 4.5 -33 13.5z" />
    <glyph glyph-name="j" unicode="j" horiz-adv-x="284" 
d="M-81.5 -225.5c-5.66699 5.66699 -8.50098 12.835 -8.50098 21.502s2.83301 16 8.5 22s13.167 9 22.5 9c50.667 0 92 16 124 48s48 73.333 48 124v518c0 9.33301 2.83301 16.666 8.5 21.999s12.834 8 21.501 8c9.33301 0 16.833 -2.83301 22.5 -8.5
s8.5 -12.834 8.5 -21.501v-518c0 -44.667 -10 -84.667 -30 -120s-47.667 -63 -83 -83s-75.333 -30 -120 -30c-9.33301 0 -16.833 2.83301 -22.5 8.5zM108.999 675.501c-8.66699 9 -13 20.167 -13 33.5c0 14.667 4.66699 26 14 34s20.333 12 33 12s23.5 -4 32.5 -12
s13.5 -19.333 13.5 -34c0 -13.333 -4.5 -24.5 -13.5 -33.5s-20.167 -13.5 -33.5 -13.5s-24.333 4.5 -33 13.5z" />
    <glyph glyph-name="k" unicode="k" horiz-adv-x="574" 
d="M510 26c0 -7.33301 -3.66699 -14.333 -11 -21c-6.66699 -5.33301 -12.667 -8 -18 -8c-8 0 -15 4 -21 12l-217 265l-93 -85v-159c0 -8.66699 -2.66699 -15.834 -8 -21.501s-12.666 -8.5 -21.999 -8.5c-8.66699 0 -15.834 2.83301 -21.501 8.5s-8.5 12.834 -8.5 21.501v721
c0 9.33301 2.83301 16.666 8.5 21.999s12.834 8 21.501 8c9.33301 0 16.666 -2.66699 21.999 -8s8 -12.666 8 -21.999v-489l310 282c6.66699 5.33301 13 8 19 8c6.66699 0 13 -3.33301 19 -10c6 -6 9 -12.333 9 -19s-3.33301 -13 -10 -19l-212 -193l218 -267
c4.66699 -5.33301 7 -11.333 7 -18z" />
    <glyph glyph-name="l" unicode="l" horiz-adv-x="270" 
d="M106.5 46c-24.333 30.667 -36.501 70.334 -36.501 119.001v586c0 9.33301 2.83301 16.666 8.5 21.999s12.834 8 21.501 8c9.33301 0 16.666 -2.66699 21.999 -8s8 -12.666 8 -21.999v-586c0 -30.667 6.5 -55.834 19.5 -75.501s29.833 -29.5 50.5 -29.5h25
c7.33301 0 13.333 -2.66699 18 -8s7 -12.666 7 -21.999c0 -8.66699 -2.66699 -15.834 -8 -21.501s-12.666 -8.5 -21.999 -8.5h-20c-38 -0 -69.167 15.333 -93.5 46z" />
    <glyph glyph-name="m" unicode="m" horiz-adv-x="953" 
d="M774 524c31.333 -20 55.6689 -47.832 73.002 -83.499s26 -76.167 26 -121.5v-289c0 -8.66699 -2.66699 -15.834 -8 -21.501s-12.666 -8.5 -21.999 -8.5c-8.66699 -0 -15.834 2.83301 -21.501 8.5s-8.5 12.834 -8.5 21.501v289c0 51.333 -13.667 93.333 -41 126
s-62.333 49 -105 49c-46.667 0 -84.334 -15.333 -113.001 -46s-42.334 -71.334 -41.001 -122.001v-7v-289c0 -8.66699 -2.66699 -15.834 -8 -21.501s-12.666 -8.5 -21.999 -8.5c-8.66699 0 -15.834 2.83301 -21.501 8.5s-8.5 12.834 -8.5 21.501v289
c0 51.333 -13.667 93.333 -41 126s-62.333 49 -105 49c-46 0 -83.667 -14.667 -113 -44s-44 -67.333 -44 -114v-306c0 -8.66699 -2.66699 -15.834 -8 -21.501s-12.666 -8.5 -21.999 -8.5c-8.66699 0 -15.834 2.83301 -21.501 8.5s-8.5 12.834 -8.5 21.501v487
c0 9.33301 2.83301 16.666 8.5 21.999s12.834 8 21.501 8c9.33301 0 16.666 -2.66699 21.999 -8s8 -12.666 8 -21.999v-39c18.667 24 41.667 42.667 69 56s56.666 20 87.999 20c38.667 0 73.334 -9.5 104.001 -28.5s55 -45.167 73 -78.5c18 33.333 43 59.5 75 78.5
s68 28.5 108 28.5s75.667 -10 107 -30z" />
    <glyph glyph-name="n" unicode="n" horiz-adv-x="673" 
d="M470.5 524c38.333 -20 68.333 -49.168 90 -87.501s32.5 -84.166 32.5 -137.499v-269c0 -8.66699 -2.83301 -15.834 -8.5 -21.501s-12.834 -8.5 -21.501 -8.5s-15.834 2.83301 -21.501 8.5s-8.5 12.834 -8.5 21.501v269c0 63.333 -17.833 111.666 -53.5 144.999
s-82.167 50 -139.5 50c-35.333 0 -67.5 -6.83301 -96.5 -20.5s-51.833 -32.667 -68.5 -57s-25 -51.166 -25 -80.499v-306c0 -8.66699 -2.66699 -15.834 -8 -21.501s-12.666 -8.5 -21.999 -8.5c-8.66699 0 -15.834 2.83301 -21.501 8.5s-8.5 12.834 -8.5 21.501v487
c0 9.33301 2.83301 16.666 8.5 21.999s12.834 8 21.501 8c9.33301 0 16.666 -2.66699 21.999 -8s8 -12.666 8 -21.999v-52c22.667 28 50.334 49.833 83.001 65.5s68.334 23.5 107.001 23.5c48.667 0 92.167 -10 130.5 -30z" />
    <glyph glyph-name="o" unicode="o" 
d="M197 30.5c-42.667 24.333 -76.167 57.833 -100.5 100.5s-36.5 90 -36.5 142c0 52.667 12.167 100.334 36.5 143.001s57.833 76.167 100.5 100.5s90.334 36.5 143.001 36.5c52 0 99.333 -12.167 142 -36.5s76.167 -57.833 100.5 -100.5s36.5 -90.334 36.5 -143.001
c0 -52 -12.167 -99.333 -36.5 -142s-57.833 -76.167 -100.5 -100.5s-90 -36.5 -142 -36.5c-52.667 0 -100.334 12.167 -143.001 36.5zM452 79c33.333 19.333 59.5 46 78.5 80s28.5 72 28.5 114s-9.5 80 -28.5 114s-45.167 60.833 -78.5 80.5s-70.666 29.5 -111.999 29.5
s-78.666 -9.83301 -111.999 -29.5s-59.666 -46.5 -78.999 -80.5s-29 -72 -29 -114s9.66699 -80 29 -114s45.666 -60.667 78.999 -80s70.666 -29 111.999 -29s78.666 9.66699 111.999 29z" />
    <glyph glyph-name="p" unicode="p" horiz-adv-x="709" 
d="M512 516.5c42.667 -24.333 76.166 -57.8311 100.499 -100.498s36.5 -90.334 36.5 -143.001c0 -52 -12.167 -99.333 -36.5 -142s-57.833 -76.167 -100.5 -100.5s-90.334 -36.5 -143.001 -36.5c-47.333 0 -90.166 10.167 -128.499 30.5s-68.5 48.166 -90.5 83.499v-312
c0 -9.33301 -2.66699 -16.666 -8 -21.999s-12.666 -8 -21.999 -8c-8.66699 0 -15.834 2.66699 -21.501 8s-8.5 12.666 -8.5 21.999v481v2c0.666992 51.333 13.334 98 38.001 140s58.167 74.833 100.5 98.5s89.166 35.5 140.499 35.5c52.667 0 100.334 -12.167 143.001 -36.5
zM480.999 79.002c33.333 19.333 59.666 46 78.999 80s29 72 29 114s-9.66699 80 -29 114s-45.666 60.833 -78.999 80.5s-70.666 29.5 -111.999 29.5s-78.666 -9.83301 -111.999 -29.5s-59.5 -46.5 -78.5 -80.5s-28.5 -72 -28.5 -114s9.5 -80 28.5 -114
s45.167 -60.667 78.5 -80s70.666 -29 111.999 -29s78.666 9.66699 111.999 29z" />
    <glyph glyph-name="q" unicode="q" horiz-adv-x="709" 
d="M619 277l-0.000976562 -481.002c0 -9.33301 -2.66699 -16.666 -8 -21.999s-12.666 -8 -21.999 -8c-8.66699 0 -15.834 2.66699 -21.501 8s-8.5 12.666 -8.5 21.999v312c-22 -35.333 -52.167 -63.166 -90.5 -83.499s-81.166 -30.5 -128.499 -30.5
c-52.667 0 -100.334 12.167 -143.001 36.5s-76.167 57.833 -100.5 100.5s-36.5 90 -36.5 142c0 52.667 12.167 100.334 36.5 143.001s57.833 76.167 100.5 100.5s90.334 36.5 143.001 36.5c51.333 0 98.166 -11.833 140.499 -35.5s75.833 -56.5 100.5 -98.5
s37.334 -88.667 38.001 -140v-2zM451.999 78.998c33.333 19.333 59.5 46 78.5 80s28.5 72 28.5 114s-9.5 80 -28.5 114s-45.167 60.833 -78.5 80.5s-70.666 29.5 -111.999 29.5s-78.666 -9.83301 -111.999 -29.5s-59.666 -46.5 -78.999 -80.5s-29 -72 -29 -114
s9.66699 -80 29 -114s45.666 -60.667 78.999 -80s70.666 -29 111.999 -29s78.666 9.66699 111.999 29z" />
    <glyph glyph-name="r" unicode="r" horiz-adv-x="438" 
d="M398 520c0 -3.33301 -0.333008 -5.99902 -1 -7.99902c-2 -7.33301 -5.16699 -12.5 -9.5 -15.5s-10.166 -4.5 -17.499 -4.5c-6 0 -13.833 0.666992 -23.5 2s-17.834 2 -24.501 2c-33.333 0 -63 -7 -89 -21s-46.333 -33.333 -61 -58s-22 -52.334 -22 -83.001v-304
c0 -8.66699 -2.66699 -15.834 -8 -21.501s-12.666 -8.5 -21.999 -8.5c-8.66699 0 -15.834 2.83301 -21.501 8.5s-8.5 12.834 -8.5 21.501v487c0 9.33301 2.83301 16.666 8.5 21.999s12.834 8 21.501 8c9.33301 0 16.666 -2.66699 21.999 -8s8 -12.666 8 -21.999v-62
c19.333 30.667 44 54.667 74 72s62.667 26 98 26c50.667 0 76 -11 76 -33z" />
    <glyph glyph-name="s" unicode="s" horiz-adv-x="536" 
d="M163 14.5c-36.667 13.667 -66.9971 34.5 -90.9971 62.5c-4.66699 5.33301 -7 11.333 -7 18c0 9.33301 4.33301 17 13 23c4 3.33301 9.66699 5 17 5c9.33301 0 17 -3.66699 23 -11c33.333 -40.667 87 -61 161 -61c52.667 0 91.5 9.33301 116.5 28s37.5 42.667 37.5 72
c0 52.667 -51 86.334 -153 101.001c-64.667 9.33301 -113.5 27 -146.5 53s-49.5 57.333 -49.5 94c0 48.667 17.833 86.5 53.5 113.5s82.167 40.5 139.5 40.5c84 0 147.667 -30 191 -90c4 -4.66699 6 -10.334 6 -17.001c0 -9.33301 -5.33301 -17 -16 -23
c-6.66699 -2.66699 -11.667 -4 -15 -4c-10 0 -18.333 4.33301 -25 13c-34 43.333 -81.667 65 -143 65c-40.667 0 -73 -8.83301 -97 -26.5s-36 -39.5 -36 -65.5c0 -26.667 11.5 -48 34.5 -64s61.5 -28 115.5 -36c70.667 -10 121.5 -28.833 152.5 -56.5
s46.5 -61.167 46.5 -100.5c0 -30.667 -9.83301 -57.667 -29.5 -81s-45.834 -41.333 -78.501 -54s-68.334 -19 -107.001 -19s-76.334 6.83301 -113.001 20.5z" />
    <glyph glyph-name="t" unicode="t" horiz-adv-x="403" 
d="M359.5 52.5c5.66699 -5.66699 8.5 -13.166 8.5 -22.499c0 -8.66699 -2.83301 -15.834 -8.5 -21.501s-13.167 -8.5 -22.5 -8.5h-23c-36.667 -0 -69.334 8.33301 -98.001 25s-51 39.5 -67 68.5s-24 61.833 -24 98.5v281h-78c-8 0 -14.5 2.5 -19.5 7.5s-7.5 11.5 -7.5 19.5
s2.5 14.5 7.5 19.5s11.5 7.5 19.5 7.5h78v163c0 9.33301 2.83301 16.833 8.5 22.5s12.834 8.5 21.501 8.5c9.33301 0 16.833 -2.83301 22.5 -8.5s8.5 -13.167 8.5 -22.5v-163h132c8 0 14.5 -2.5 19.5 -7.5s7.5 -11.5 7.5 -19.5s-2.5 -14.5 -7.5 -19.5s-11.5 -7.5 -19.5 -7.5
h-132v-281c0 -38.667 12 -70.167 36 -94.5s55 -36.5 93 -36.5h22c9.33301 0 16.833 -2.83301 22.5 -8.5z" />
    <glyph glyph-name="u" unicode="u" horiz-adv-x="673" 
d="M575 539c5.33301 -5.33301 8 -12.665 8 -21.998v-487c0 -8.66699 -2.66699 -15.834 -8 -21.501s-12.666 -8.5 -21.999 -8.5c-8.66699 0 -15.834 2.83301 -21.501 8.5s-8.5 12.834 -8.5 21.501v52c-22.667 -28 -50.334 -49.833 -83.001 -65.5
s-68.334 -23.5 -107.001 -23.5c-48.667 0 -92.167 10 -130.5 30s-68.333 49.167 -90 87.5s-32.5 84.166 -32.5 137.499v269c0 8.66699 2.83301 15.834 8.5 21.501s12.834 8.5 21.501 8.5s15.834 -2.83301 21.501 -8.5s8.5 -12.834 8.5 -21.501v-269
c0 -63.333 17.833 -111.666 53.5 -144.999s82.167 -50 139.5 -50c35.333 0 67.5 6.83301 96.5 20.5s51.833 32.667 68.5 57s25 51.166 25 80.499v306c0 9.33301 2.83301 16.666 8.5 21.999s12.834 8 21.501 8c9.33301 0 16.666 -2.66699 21.999 -8z" />
    <glyph glyph-name="v" unicode="v" horiz-adv-x="557" 
d="M537 520c0 -4.66699 -0.665039 -8.33496 -1.99805 -11.002l-225 -489c-6.66699 -14 -17.334 -21 -32.001 -21c-6 0 -11.5 1.83301 -16.5 5.5s-8.83301 8.83398 -11.5 15.501l-228 488c-1.33301 2.66699 -2 6.33398 -2 11.001c0 12 5.66699 20.667 17 26c4 2 8 3 12 3
c11.333 0 19.666 -5.66699 24.999 -17l205 -444l202 445c5.33301 11.333 14 17 26 17c4.66699 0 9 -1 13 -3c11.333 -5.33301 17 -14 17 -26z" />
    <glyph glyph-name="w" unicode="w" horiz-adv-x="749" 
d="M722 539c4.66699 -5.33301 7 -11.999 7 -19.999c0 -4.66699 -1 -9.66699 -3 -15l-161 -485c-2 -6 -5.5 -10.667 -10.5 -14s-11.167 -5 -18.5 -5c-6.66699 0 -12.667 1.66699 -18 5s-8.66602 8 -9.99902 14l-136 423l-132 -423c-4.66699 -12.667 -14 -19 -28 -19
c-6.66699 0 -12.5 1.66699 -17.5 5s-8.5 8 -10.5 14l-162 485c-1.33301 8 -2 13.333 -2 16c0 18 8.33301 27 25 27c6 0 11.5 -1.5 16.5 -4.5s8.83301 -7.5 11.5 -13.5l141 -426l130 420c2 7.33301 5.66699 13.166 11 17.499s11.666 6.5 18.999 6.5
c14.667 0 24.667 -8 30 -24l131 -412l139 418c5.33301 12 14.666 18 27.999 18c8.66699 0 15.334 -2.66699 20.001 -8z" />
    <glyph glyph-name="x" unicode="x" horiz-adv-x="542" 
d="M497 26c0 -8 -3 -14.333 -9 -19s-12 -7 -18 -7c-8 -0 -14.167 1.33301 -18.5 4s-9.5 7.66699 -15.5 15l-168 223l-182 -233c-4 -6 -11 -9 -21 -9c-8.66699 0 -15.834 3 -21.501 9s-8.5 13 -8.5 21c0 7.33301 2.33301 13.666 7 18.999l186 231l-164 217
c-4.66699 5.33301 -7 12 -7 20s2.83301 15 8.5 21s12.834 9 21.501 9s16 -3 22 -9l160 -213l167 204c10 12 20.333 18 31 18c8.66699 0 15.5 -2.66699 20.5 -8s7.5 -12 7.5 -20c0 -7.33301 -2.66699 -14.666 -8 -21.999l-177 -211l178 -237c6 -8 9 -15.667 9 -23z" />
    <glyph glyph-name="y" unicode="y" horiz-adv-x="554" 
d="M544 523c0 -2.66699 -1.33301 -7.33301 -4 -14l-336 -728c-6 -12 -13.667 -18 -23 -18c-4 0 -8.66699 1 -14 3c-12.667 5.33301 -19 13 -19 23c0 2.66699 1.33301 7.33398 4 14.001l100 216c-0.666992 0.666992 -2 3 -4 7l-219 480c-2.66699 5.33301 -4 10.666 -4 15.999
c0 10 5.66699 17.667 17 23c5.33301 2.66699 10.666 4 15.999 4c10 0 17.667 -5.66699 23 -17l203 -444l204 443c6 12 13.667 18 23 18c4.66699 0 9.33398 -1 14.001 -3c12.667 -5.33301 19 -13 19 -23z" />
    <glyph glyph-name="z" unicode="z" horiz-adv-x="555" 
d="M510 27c0 -18 -9 -27 -27 -27h-391c-18 0 -27 9 -27 27c0 10 2.66699 17 8 21l357 445h-338c-18 0 -27 9 -27 27s9 27 27 27h391c18 0 27 -9 27 -27c0 -8 -1.33301 -13.667 -4 -17l-358 -449h335c18 0 27 -9 27 -27z" />
    <glyph glyph-name="braceleft" unicode="{" horiz-adv-x="369" 
d="M187 -83v235.001c0 60.667 -30.333 91 -91 91c-8.66699 0 -16 2.83301 -22 8.5s-9 12.834 -9 21.501s3 16 9 22s13.333 9 22 9c60.667 0 91 30.333 91 91v235c0 101.333 50.333 152 151 152c9.33301 0 16.833 -2.83301 22.5 -8.5s8.5 -13.167 8.5 -22.5
c0 -8.66699 -3 -15.834 -9 -21.501s-13.333 -8.5 -22 -8.5c-60 0 -90 -30.333 -90 -91v-235c0 -50 -15 -90.667 -45 -122c30 -30 45 -70.333 45 -121v-235c0 -60 30 -90 90 -90c8.66699 0 16 -3 22 -9s9 -13.333 9 -22s-3 -15.834 -9 -21.501s-13.333 -8.5 -22 -8.5
c-100.667 0 -151 50.333 -151 151z" />
    <glyph glyph-name="bar" unicode="|" horiz-adv-x="391" 
d="M171.5 -225.5c-5.66699 5.66699 -8.5 12.834 -8.5 21.501v956c0 8.66699 2.83301 15.834 8.5 21.501s12.834 8.5 21.501 8.5s16 -2.83301 22 -8.5s9 -12.834 9 -21.501v-956c0 -8.66699 -3 -15.834 -9 -21.501s-13.333 -8.5 -22 -8.5s-15.834 2.83301 -21.501 8.5z" />
    <glyph glyph-name="braceright" unicode="}" horiz-adv-x="369" 
d="M9 -225.5c-6 5.66699 -9 12.833 -9 21.5s3 16 9 22s13.333 9 22 9c60 0 90 30 90 90v235c0 50.667 15 91 45 121c-30 31.333 -45 72 -45 122v235c0 60.667 -30 91 -90 91c-8.66699 0 -16 2.83301 -22 8.5s-9 12.834 -9 21.501c0 9.33301 3 16.833 9 22.5
s13.333 8.5 22 8.5c100.667 0 151 -50.667 151 -152v-235c0 -60.667 30.333 -91 91 -91c8.66699 0 16 -3 22 -9s9 -13.333 9 -22s-3 -15.834 -9 -21.501s-13.333 -8.5 -22 -8.5c-60.667 0 -91 -30.333 -91 -91v-235c0 -100.667 -50.333 -151 -151 -151
c-8.66699 0 -16 2.83301 -22 8.5z" />
    <glyph glyph-name="asciitilde" unicode="~" horiz-adv-x="469" 
d="M277 319.5c-14 6.33301 -29.002 14.832 -45.002 25.499c-13.333 9.33301 -24 15.5 -32 18.5s-16.333 4.5 -25 4.5c-27.333 0 -53 -13.667 -77 -41c-6 -8 -14.333 -12 -25 -12c-6.66699 0 -11.667 1.33301 -15 4c-10 6 -15 13.667 -15 23c0 6.66699 2 12.334 6 17.001
c18 21.333 37.833 37.833 59.5 49.5s43.834 17.5 66.501 17.5c17.333 0 32.5 -2.83301 45.5 -8.5s27.833 -13.834 44.5 -24.501c14 -9.33301 24.833 -15.833 32.5 -19.5s17.167 -5.5 28.5 -5.5c22.667 0 41 7.33301 55 22c8 9.33301 17.333 14 28 14
c4.66699 0 8.33398 -1 11.001 -3c12 -6 18 -14 18 -24c0 -5.33301 -2 -10.666 -6 -15.999c-26 -34 -61.333 -51 -106 -51c-18.667 0 -35 3.16699 -49 9.5z" />
    <glyph glyph-name="uni00A0" unicode="&#xa0;" horiz-adv-x="293" 
 />
    <glyph glyph-name="exclamdown" unicode="&#xa1;" horiz-adv-x="251" 
d="M186.5 533c9.66699 -10 14.499 -22.001 14.499 -36.001s-4.83301 -25.833 -14.5 -35.5s-21.5 -14.5 -35.5 -14.5s-26 4.83301 -36 14.5s-15 21.5 -15 35.5c0 14.667 4.83301 26.834 14.5 36.501s21.834 14.5 36.501 14.5c14 0 25.833 -5 35.5 -15zM171.999 366.999
c6 -6 9.00098 -13 9.00098 -21v-549c0 -8.66699 -2.83301 -16 -8.5 -22s-12.834 -9 -21.501 -9s-16 3 -22 9s-9 13.333 -9 22v549c0 8 3.16699 15 9.5 21s13.5 9 21.5 9s15 -3 21 -9z" />
    <glyph glyph-name="cent" unicode="&#xa2;" horiz-adv-x="593" 
d="M413 475l-155.005 -412.998c23.333 -8 48 -12 74 -12c58.667 0 105.667 16.333 141 49c6 6 13 9 21 9c7.33301 0 13.333 -2.33301 18 -7c6.66699 -6 10 -13.333 10 -22c0 -7.33301 -2.66699 -13.333 -8 -18c-23.333 -21.333 -50.666 -37.833 -81.999 -49.5
s-64.666 -17.5 -99.999 -17.5c-34.667 0 -66 5.33301 -94 16l-31 -84c-5.33301 -16 -15.333 -24 -30 -24c-7.33301 0 -13.166 2.16699 -17.499 6.5s-6.5 10.166 -6.5 17.499c0 6.66699 1.33301 13 4 19l33 87c-40.667 24 -72.5 57.167 -95.5 99.5s-34.5 89.5 -34.5 141.5
c0 52.667 11 100.167 33 142.5s52.667 75.666 92 99.999s83.333 36.5 132 36.5c24.667 0 46.334 -2.33301 65.001 -7l32 84c4.66699 14 14.334 21 29.001 21c7.33301 0 13 -2.5 17 -7.5s6 -11.167 6 -18.5c0 -6 -0.666992 -10.333 -2 -13l-31 -83
c36.667 -18 67.667 -43 93 -75c4.66699 -6.66699 7 -12.334 7 -17.001c0 -9.33301 -4.66699 -16.666 -14 -21.999c-4.66699 -4 -10 -6 -16 -6c-9.33301 0 -17 4 -23 12c-20 24 -42.333 42.333 -67 55zM361.995 492.002c-12.667 2.66699 -27.667 3.99902 -45 3.99902
c-38.667 0 -73 -9.5 -103 -28.5s-53.167 -45.5 -69.5 -79.5s-24.5 -72.333 -24.5 -115c0 -39.333 8 -75.166 24 -107.499s38 -58.5 66 -78.5z" />
    <glyph glyph-name="sterling" unicode="&#xa3;" horiz-adv-x="508" 
d="M89.5 9c-5.66699 6 -8.49805 13 -8.49805 21l2 12c38.667 89.333 58 182.333 58 279h-71c-8.66699 0 -15.834 3 -21.501 9s-8.5 13 -8.5 21c0 8.66699 2.83301 15.834 8.5 21.501s12.834 8.5 21.501 8.5h66l-7 21c-18 52 -30.5 90.833 -37.5 116.5
s-10.5 50.167 -10.5 73.5c0 34.667 8.66699 66.5 26 95.5s40.666 52.167 69.999 69.5s61.333 26 96 26c53.333 0 98.666 -18.667 135.999 -56c9.33301 -9.33301 16.833 -18 22.5 -26s8.5 -15.667 8.5 -23c0 -8.66699 -2.83301 -15.834 -8.5 -21.501
s-12.834 -8.5 -21.501 -8.5c-10 0 -17.333 3.33301 -22 10c-30.667 42.667 -69 64 -115 64c-23.333 0 -45.166 -5.83301 -65.499 -17.5s-36.5 -27.5 -48.5 -47.5s-18 -41.667 -18 -65c0 -20 2.33301 -39 7 -57s12.667 -44 24 -78
c2.66699 -8.66699 6.16699 -19.167 10.5 -31.5s9.16602 -27.166 14.499 -44.499h157c8.66699 0 15.834 -2.83301 21.501 -8.5s8.5 -12.834 8.5 -21.501c0 -8 -2.83301 -15 -8.5 -21s-12.834 -9 -21.501 -9h-152c0 -86.667 -15.333 -173.667 -46 -261h259
c4 8 8.66699 16.667 14 26l20 40c4 9.33301 12.667 14 26 14c8.66699 0 15.834 -2.83301 21.501 -8.5s8.5 -12.834 8.5 -21.501c0 -5.33301 -1 -10 -3 -14l-39 -78c-2.66699 -5.33301 -6.66699 -9.66602 -12 -12.999s-10.666 -5 -15.999 -5h-324
c-8.66699 0 -15.834 3 -21.501 9z" />
    <glyph glyph-name="currency" unicode="&#xa4;" horiz-adv-x="480" 
d="M54.5 184c-6.33301 6.66699 -9.5 14.666 -9.5 23.999c0 8.66699 3.33301 16.334 10 23.001l46 44c-19.333 30.667 -29 62 -29 94s9 63 27 93l-44 46c-6.66699 6.66699 -10 14.667 -10 24s3.16699 17.166 9.5 23.499s14.166 9.5 23.499 9.5
c8.66699 0 16.334 -2.66699 23.001 -8l44 -48c29.333 18.667 60.666 28 93.999 28s64.333 -8.66699 93 -26l46 45c9.33301 6 17.333 9 24 9c9.33301 0 17.166 -3.16699 23.499 -9.5s9.5 -14.166 9.5 -23.499c0 -10 -3.33301 -18.333 -10 -25l-46 -43
c19.333 -31.333 29 -63 29 -95c0 -30.667 -9 -61 -27 -91l44 -46c6.66699 -7.33301 10 -15.333 10 -24c0 -9.33301 -3.16699 -17.333 -9.5 -24s-14.166 -10 -23.499 -10s-17 3 -23 9l-45 47c-28.667 -18.667 -59.667 -28 -93 -28c-32 0 -63 9 -93 27l-48 -47
c-6.66699 -5.33301 -14 -8 -22 -8c-9.33301 0 -17.166 3.33301 -23.499 10zM310 298.499c20 20.333 30 44.166 30 71.499s-10 51 -30 71s-43.333 30 -70 30c-27.333 0 -50.833 -10.167 -70.5 -30.5s-29.5 -43.833 -29.5 -70.5c0 -27.333 9.83301 -51.166 29.5 -71.499
s43.167 -30.5 70.5 -30.5c26.667 0 50 10.167 70 30.5z" />
    <glyph glyph-name="yen" unicode="&#xa5;" horiz-adv-x="633" 
d="M620.5 773c5 -5.33301 7.50195 -12 7.50195 -20c0 -7.33301 -1.66699 -13.666 -5 -18.999l-242 -387h95c8 0 14.5 -2.5 19.5 -7.5s7.5 -11.5 7.5 -19.5s-2.5 -14.5 -7.5 -19.5s-11.5 -7.5 -19.5 -7.5h-128l-1 -1v-65h129c8 0 14.5 -2.5 19.5 -7.5s7.5 -11.5 7.5 -19.5
s-2.5 -14.5 -7.5 -19.5s-11.5 -7.5 -19.5 -7.5h-129v-143c0 -8.66699 -2.83301 -15.834 -8.5 -21.501s-12.834 -8.5 -21.501 -8.5s-15.834 2.83301 -21.501 8.5s-8.5 12.834 -8.5 21.501v143h-129c-8 0 -14.5 2.5 -19.5 7.5s-7.5 11.5 -7.5 19.5s2.5 14.5 7.5 19.5
s11.5 7.5 19.5 7.5h129v65l-1 1h-128c-8 0 -14.5 2.5 -19.5 7.5s-7.5 11.5 -7.5 19.5s2.5 14.5 7.5 19.5s11.5 7.5 19.5 7.5h95l-242 387c-4 7.33301 -6 13.666 -6 18.999c0 8 2.66699 14.667 8 20s12.333 8 21 8s16.667 -4 24 -12l259 -422l255 415
c4.66699 7.33301 9.16699 12.333 13.5 15s9.5 4 15.5 4c8 0 14.5 -2.66699 19.5 -8z" />
    <glyph glyph-name="brokenbar" unicode="&#xa6;" horiz-adv-x="234" 
d="M91.5 454.5c-5.66699 5.66699 -8.5 12.834 -8.5 21.501v364c0 8.66699 2.83301 16 8.5 22s12.834 9 21.501 9s16 -3 22 -9s9 -13.333 9 -22v-364c0 -8.66699 -3 -15.834 -9 -21.501s-13.333 -8.5 -22 -8.5s-15.834 2.83301 -21.501 8.5zM91.5 -225.5
c-5.66699 5.66699 -8.5 12.834 -8.5 21.501v356c0 8.66699 2.83301 15.834 8.5 21.501s12.834 8.5 21.501 8.5s16 -2.83301 22 -8.5s9 -12.834 9 -21.501v-356c0 -8.66699 -3 -15.834 -9 -21.501s-13.333 -8.5 -22 -8.5s-15.834 2.83301 -21.501 8.5z" />
    <glyph glyph-name="section" unicode="&#xa7;" horiz-adv-x="469" 
d="M136 -208.5c-29.333 17 -52.5 39.9971 -69.5 68.9971s-25.5 60.5 -25.5 94.5c0 8.66699 2.83301 15.834 8.5 21.501s12.834 8.5 21.501 8.5s15.834 -2.83301 21.501 -8.5s8.5 -12.834 8.5 -21.501c0 -23.333 6.16699 -44.833 18.5 -64.5s28.5 -35.334 48.5 -47.001
s41.667 -17.5 65 -17.5c22.667 0 44.167 5.83301 64.5 17.5s36.666 27.334 48.999 47.001s18.5 41.167 18.5 64.5c0 22.667 -6.16699 44 -18.5 64s-28.666 35.833 -48.999 47.5s-41.833 17.5 -64.5 17.5c-34.667 0 -66.667 8.5 -96 25.5s-52.666 39.833 -69.999 68.5
s-26 60.334 -26 95.001c0 32.667 7.33301 62.834 22 90.501s36.334 50.834 65.001 69.501c-28.667 18 -50.334 40.833 -65.001 68.5s-22 57.834 -22 90.501c0 34 8.5 65.5 25.5 94.5s40.167 52 69.5 69s61.666 25.5 96.999 25.5c34.667 0 66.667 -8.5 96 -25.5
s52.666 -40 69.999 -69s26 -60.5 26 -94.5c0 -8.66699 -2.83301 -15.834 -8.5 -21.501s-12.834 -8.5 -21.501 -8.5s-15.834 2.83301 -21.501 8.5s-8.5 12.834 -8.5 21.501c0 23.333 -6.16699 44.833 -18.5 64.5s-28.666 35.334 -48.999 47.001s-41.833 17.5 -64.5 17.5
c-23.333 0 -45 -5.83301 -65 -17.5s-36.167 -27.334 -48.5 -47.001s-18.5 -41.167 -18.5 -64.5s6 -45 18 -65s28.167 -35.833 48.5 -47.5s42.166 -17.5 65.499 -17.5c34.667 0 66.667 -8.5 96 -25.5s52.666 -39.833 69.999 -68.5s26 -60.334 26 -95.001
c0 -32.667 -7.5 -63 -22.5 -91s-36.5 -50.667 -64.5 -68c28 -18 49.5 -41 64.5 -69s22.5 -58 22.5 -90c0 -34 -8.66699 -65.5 -26 -94.5s-40.666 -52 -69.999 -69s-61.333 -25.5 -96 -25.5c-35.333 0 -67.666 8.5 -96.999 25.5zM298.5 161.497
c20.333 11.667 36.5 27.5 48.5 47.5s18 41.333 18 64c0 23.333 -6.16699 45 -18.5 65s-28.5 35.833 -48.5 47.5s-41.667 17.5 -65 17.5s-45.166 -5.83301 -65.499 -17.5s-36.5 -27.5 -48.5 -47.5s-18 -41.667 -18 -65s6 -45 18 -65s28 -35.667 48 -47s42 -17 66 -17
c23.333 0 45.166 5.83301 65.499 17.5z" />
    <glyph glyph-name="dieresis" unicode="&#xa8;" horiz-adv-x="469" 
d="M114 642c-10 10 -15 22.333 -15 37c0 14 5 26 15 36s22.333 15 37 15s26.834 -5 36.501 -15s14.5 -22 14.5 -36c0 -14.667 -4.83301 -27 -14.5 -37s-21.834 -15 -36.501 -15s-27 5 -37 15zM314 642c-10 10 -15 22.333 -15 37c0 14 5 26 15 36s22.333 15 37 15
s26.834 -5 36.501 -15s14.5 -22 14.5 -36c0 -14.667 -4.83301 -27 -14.5 -37s-21.834 -15 -36.501 -15s-27 5 -37 15z" />
    <glyph glyph-name="copyright" unicode="&#xa9;" horiz-adv-x="859" 
d="M238.5 52c-59.667 34.667 -106.833 82 -141.5 142s-52 126 -52 198c0 70 17.667 135 53 195s82.833 107.667 142.5 143s124.834 53 195.501 53c70 0 135 -17.667 195 -53s107.667 -83 143 -143s53 -125 53 -195c0 -72 -17.333 -138 -52 -198
s-81.834 -107.333 -141.501 -142s-125.5 -52 -197.5 -52s-137.833 17.333 -197.5 52zM604.001 101.5c51.333 30.333 92.167 71.334 122.5 123.001s45.5 107.5 45.5 167.5c0 60.667 -15 116.667 -45 168s-70.833 92 -122.5 122s-107.834 45 -168.501 45
c-60 0 -115.667 -15 -167 -45s-92.166 -70.667 -122.499 -122s-45.5 -107.333 -45.5 -168s15 -116.834 45 -168.501s70.667 -92.5 122 -122.5s107.333 -45 168 -45s116.667 15.167 168 45.5zM314.502 172.001c-37.667 22 -67.332 52.3301 -88.999 90.9971
s-32.5 81.667 -32.5 129c0 48 10.167 91.333 30.5 130s48.166 69 83.499 91s75.333 33 120 33c39.333 0 75.166 -7.66699 107.499 -23s60.166 -37.666 83.499 -66.999c4.66699 -5.33301 7 -11.666 7 -18.999c0 -10.667 -5 -19 -15 -25c-4 -3.33301 -9.66699 -5 -17 -5
c-9.33301 0 -17.666 4 -24.999 12c-18.667 22.667 -39.5 39.167 -62.5 49.5s-49.167 15.5 -78.5 15.5c-32.667 0 -61.667 -8 -87 -24s-45.166 -38.667 -59.499 -68s-21.5 -62.666 -21.5 -99.999c0 -36.667 7.66699 -69.5 23 -98.5s36.833 -51.833 64.5 -68.5
s59.167 -25 94.5 -25c49.333 0 89.666 14 120.999 42c8 6.66699 15.667 10 23 10c6.66699 0 13.334 -2.66699 20.001 -8c7.33301 -7.33301 11 -15 11 -23s-3.33301 -15 -10 -21c-21.333 -20 -46.166 -35.167 -74.499 -45.5s-58.5 -15.5 -90.5 -15.5
c-46.667 0 -88.834 11 -126.501 33z" />
    <glyph glyph-name="ordfeminine" unicode="&#xaa;" horiz-adv-x="470" 
d="M333 766.5c29.333 -17 52.502 -40.165 69.502 -69.498s25.5 -62.333 25.5 -99v-163c0 -8.66699 -2.66699 -15.834 -8 -21.501s-12 -8.5 -20 -8.5c-10 0 -17.5 2.66699 -22.5 8s-7.5 12.666 -7.5 21.999v33c-16.667 -20 -36.834 -35.667 -60.501 -47
s-48.834 -17 -75.501 -17c-36.667 0 -69.667 8.5 -99 25.5s-52.5 40.167 -69.5 69.5s-25.5 62.333 -25.5 99s8.5 69.667 25.5 99s40.167 52.5 69.5 69.5s62.333 25.5 99 25.5s69.667 -8.5 99 -25.5zM331.502 501.002c25.667 26 38.5 58.333 38.5 97
c0 39.333 -12.833 71.833 -38.5 97.5s-58.167 38.5 -97.5 38.5c-38.667 0 -71 -12.833 -97 -38.5s-39 -58.167 -39 -97.5c0 -38.667 13 -71 39 -97s58.333 -39 97 -39c39.333 0 71.833 13 97.5 39z" />
    <glyph glyph-name="guillemotleft" unicode="&#xab;" horiz-adv-x="469" 
d="M175.5 4.5c-4.33301 3 -8.16699 7.83496 -11.5 14.502l-119 237c-2.66699 5.33301 -4 11 -4 17c0 5.33301 1 10.333 3 15l120 239c6.66699 12.667 16 19 28 19c8.66699 0 16 -2.83301 22 -8.5s9 -12.834 9 -21.501c0 -4.66699 -1 -9 -3 -13l-115 -230l115 -230
c2 -2.66699 3 -7 3 -13c0 -8.66699 -3 -15.834 -9 -21.501s-13.333 -8.5 -22 -8.5c-6.66699 0 -12.167 1.5 -16.5 4.5zM382.499 4.50195c-4.33301 3 -8.16699 7.83496 -11.5 14.502l-119 237c-2.66699 5.33301 -4 11 -4 17c0 5.33301 1 10.333 3 15l120 239
c6.66699 12.667 16 19 28 19c8.66699 0 16 -2.83301 22 -8.5s9 -12.834 9 -21.501c0 -4.66699 -1 -9 -3 -13l-115 -230l115 -230c2 -2.66699 3 -7 3 -13c0 -8.66699 -3 -15.834 -9 -21.501s-13.333 -8.5 -22 -8.5c-6.66699 0 -12.167 1.5 -16.5 4.5z" />
    <glyph glyph-name="logicalnot" unicode="&#xac;" horiz-adv-x="547" 
d="M453.5 332.5c-5.66699 5.66699 -8.49902 12.834 -8.49902 21.501v132h-375c-8.66699 0 -15.834 3 -21.501 9s-8.5 13.333 -8.5 22s2.83301 15.834 8.5 21.501s12.834 8.5 21.501 8.5h405c8.66699 0 15.834 -2.83301 21.501 -8.5s8.5 -12.834 8.5 -21.501v-163
c0 -8.66699 -2.83301 -15.834 -8.5 -21.501s-12.834 -8.5 -21.501 -8.5s-15.834 2.83301 -21.501 8.5z" />
    <glyph glyph-name="uni00AD" unicode="&#xad;" horiz-adv-x="391" 
d="M47.5 251.5c-5.66699 5.66699 -8.5 12.834 -8.5 21.501s2.83301 16 8.5 22s12.834 9 21.501 9h243c8.66699 0 16 -3 22 -9s9 -13.333 9 -22s-3 -15.834 -9 -21.501s-13.333 -8.5 -22 -8.5h-243c-8.66699 0 -15.834 2.83301 -21.501 8.5z" />
    <glyph glyph-name="registered" unicode="&#xae;" horiz-adv-x="859" 
d="M631 730c60 -35.333 107.668 -83 143.001 -143s53 -125 53 -195c0 -72 -17.333 -138 -52 -198s-81.834 -107.333 -141.501 -142s-125.5 -52 -197.5 -52s-137.833 17.333 -197.5 52s-106.834 82 -141.501 142s-52 126 -52 198c0 70 17.667 135 53 195
s82.833 107.667 142.5 143s124.834 53 195.501 53c70 0 135 -17.667 195 -53zM604.001 101.5c51.333 30.333 92.167 71.334 122.5 123.001s45.5 107.5 45.5 167.5c0 60.667 -15 116.667 -45 168s-70.833 92 -122.5 122s-107.834 45 -168.501 45c-60 0 -115.667 -15 -167 -45
s-92.166 -70.667 -122.499 -122s-45.5 -107.333 -45.5 -168s15 -116.834 45 -168.501s70.667 -92.5 122 -122.5s107.333 -45 168 -45s116.667 15.167 168 45.5zM606.002 193.001c5.33301 -8.66699 8 -16.335 8 -23.002c0 -7.33301 -2.5 -13 -7.5 -17s-12.167 -6 -21.5 -6
c-10.667 0 -19 5 -25 15l-114 180h-7h-93v-165c0 -8.66699 -2.66699 -15.834 -8 -21.501s-12.333 -8.5 -21 -8.5s-15.667 2.83301 -21 8.5s-8 12.834 -8 21.501v445c0 8.66699 2.66699 15.834 8 21.501s12.333 8.5 21 8.5h122c49.333 0 89.5 -14.5 120.5 -43.5
s46.5 -66.5 46.5 -112.5c0 -32.667 -9.5 -61.667 -28.5 -87s-43.5 -43.666 -73.5 -54.999zM346.002 396h93c32.667 0 59.167 8.66699 79.5 26s30.5 42 30.5 74s-10.167 57 -30.5 75s-46.833 27 -79.5 27h-93v-202z" />
    <glyph glyph-name="macron" unicode="&#xaf;" horiz-adv-x="547" 
d="M118.5 639.5c-5.66699 5.66699 -8.5 12.834 -8.5 21.501s2.83301 16 8.5 22s12.834 9 21.501 9h265c8.66699 0 15.834 -3 21.501 -9s8.5 -13.333 8.5 -22s-2.83301 -15.834 -8.5 -21.501s-12.834 -8.5 -21.501 -8.5h-265c-8.66699 0 -15.834 2.83301 -21.501 8.5z" />
    <glyph glyph-name="degree" unicode="&#xb0;" horiz-adv-x="469" 
d="M137 431c-29.333 17.333 -52.666 40.666 -69.999 69.999s-26 61.666 -26 96.999c0 34.667 8.5 66.667 25.5 96s40.167 52.666 69.5 69.999s61.666 26 96.999 26s67.666 -8.66699 96.999 -26s52.5 -40.666 69.5 -69.999s25.5 -61.333 25.5 -96
c0 -35.333 -8.66699 -67.666 -26 -96.999s-40.666 -52.666 -69.999 -69.999s-61.333 -26 -96 -26s-66.667 8.66699 -96 26zM298.5 484c20.333 12 36.5 28.168 48.5 48.501s18 42.166 18 65.499s-6.16699 45 -18.5 65s-28.666 36 -48.999 48s-41.833 18 -64.5 18
c-23.333 0 -45.166 -6 -65.499 -18s-36.5 -28 -48.5 -48s-18 -41.667 -18 -65c0 -24 6 -46 18 -66s28.167 -36 48.5 -48s42.166 -18 65.499 -18s45.166 6 65.499 18z" />
    <glyph glyph-name="plusminus" unicode="&#xb1;" horiz-adv-x="547" 
d="M250.5 170.5c-5.66699 5.66699 -8.5 12.834 -8.5 21.501v173h-172c-8.66699 0 -15.834 2.83301 -21.501 8.5s-8.5 12.834 -8.5 21.501s2.83301 15.834 8.5 21.501s12.834 8.5 21.501 8.5h172v173c0 8.66699 2.83301 15.834 8.5 21.501s12.834 8.5 21.501 8.5
s16 -2.83301 22 -8.5s9 -12.834 9 -21.501v-173h172c8.66699 0 15.834 -2.83301 21.501 -8.5s8.5 -12.834 8.5 -21.501s-2.83301 -15.834 -8.5 -21.501s-12.834 -8.5 -21.501 -8.5h-172v-173c0 -8.66699 -3 -15.834 -9 -21.501s-13.333 -8.5 -22 -8.5
s-15.834 2.83301 -21.501 8.5zM48.5 8.5c-5.66699 5.66699 -8.5 12.834 -8.5 21.501s2.83301 16 8.5 22s12.834 9 21.501 9h405c8.66699 0 15.834 -3 21.501 -9s8.5 -13.333 8.5 -22s-2.83301 -15.834 -8.5 -21.501s-12.834 -8.5 -21.501 -8.5h-405
c-8.66699 -0 -15.834 2.83301 -21.501 8.5z" />
    <glyph glyph-name="uni00B2" unicode="&#xb2;" horiz-adv-x="357" 
d="M302.5 432.5c6.33301 -5 9.5 -11.834 9.5 -20.501s-3 -15.167 -9 -19.5s-13.667 -6.5 -23 -6.5h-194c-9.33301 0 -17 3 -23 9s-9 13.667 -9 23c0 8.66699 2.66699 16.334 8 23.001l164 183c12 12.667 18 28 18 46c0 19.333 -6.66699 35.333 -20 48s-29.333 19 -48 19
c-22.667 0 -41.334 -6.83301 -56.001 -20.5s-22 -30.5 -22 -50.5c0 -9.33301 -2.16699 -17 -6.5 -23s-11.166 -9 -20.499 -9c-8 0 -14.333 3.16699 -19 9.5s-7 13.833 -7 22.5c0 35.333 12.667 64.833 38 88.5s57 35.5 95 35.5c34.667 0 63.667 -11.333 87 -34
s35 -51 35 -85c0 -18 -4.16699 -33.667 -12.5 -47s-20.833 -29 -37.5 -47l-126 -137h156c8.66699 0 16.167 -2.5 22.5 -7.5z" />
    <glyph glyph-name="uni00B3" unicode="&#xb3;" horiz-adv-x="354" 
d="M254.5 758c23 -20.667 34.5 -46.334 34.5 -77.001c0 -18.667 -5.5 -36.5 -16.5 -53.5s-23.833 -28.167 -38.5 -33.5c20 -8.66699 35.833 -21 47.5 -37s17.5 -36 17.5 -60c0 -33.333 -11.667 -61.166 -35 -83.499s-52.666 -33.5 -87.999 -33.5
c-37.333 0 -68.5 11.5 -93.5 34.5s-37.5 51.833 -37.5 86.5c0 10 2.5 17.833 7.5 23.5s12.167 8.5 21.5 8.5c14.667 0 22 -10.667 22 -32c0 -20 7.66699 -36.667 23 -50s34 -20 56 -20c19.333 0 35.666 6.16699 48.999 18.5s20 27.833 20 46.5
c0 20 -5.66699 36.833 -17 50.5s-25.333 20.5 -42 20.5c-23.333 0 -35 8.66699 -35 26c0 18.667 10 28 30 28c36 0 54 19.667 54 59c0 16.667 -5.33301 30.167 -16 40.5s-26.334 15.5 -47.001 15.5c-22 0 -39 -5 -51 -15s-19.333 -23.667 -22 -41
c-1.33301 -7.33301 -4.16602 -13.5 -8.49902 -18.5s-9.16602 -7.5 -14.499 -7.5c-8.66699 0 -15.667 2.5 -21 7.5s-8 11.833 -8 20.5c0 30.667 11.667 56.167 35 76.5s52.666 30.5 87.999 30.5c34 0 62.5 -10.333 85.5 -31z" />
    <glyph glyph-name="acute" unicode="&#xb4;" horiz-adv-x="273" 
d="M51 607c-6 6 -9 13.333 -9 22c0 7.33301 2.33301 14 7 20l123 123c6 6 13.333 9 22 9s16 -3 22 -9s9 -13.333 9 -22c0 -8 -3 -15 -9 -21l-123 -123c-5.33301 -5.33301 -12 -8 -20 -8c-8.66699 0 -16 3 -22 9z" />
    <glyph glyph-name="uni00B5" unicode="&#xb5;" horiz-adv-x="673" 
d="M575 539c5.33301 -5.33301 8.00098 -12.665 8.00098 -21.998v-487c0 -8.66699 -2.66699 -15.834 -8 -21.501s-12.666 -8.5 -21.999 -8.5c-8.66699 0 -15.834 2.83301 -21.501 8.5s-8.5 12.834 -8.5 21.501v58c-20.667 -30 -47.5 -53.333 -80.5 -70s-69.5 -25 -109.5 -25
c-44 0 -82.5 9.16699 -115.5 27.5s-58.833 43.833 -77.5 76.5v-301c0 -9.33301 -2.66699 -16.666 -8 -21.999s-12.666 -8 -21.999 -8c-8.66699 0 -15.834 2.66699 -21.501 8s-8.5 12.666 -8.5 21.999v721c0 9.33301 2.83301 16.666 8.5 21.999s12.834 8 21.501 8
c9.33301 0 16.666 -2.66699 21.999 -8s8 -12.666 8 -21.999v-269c0 -37.333 8.16699 -70.833 24.5 -100.5s39.166 -52.834 68.499 -69.501s62.666 -25 99.999 -25c36.667 0 69.334 6.66699 98.001 20s51.167 32 67.5 56s24.5 51.333 24.5 82v306
c0 9.33301 2.83301 16.666 8.5 21.999s12.834 8 21.501 8c9.33301 0 16.666 -2.66699 21.999 -8z" />
    <glyph glyph-name="paragraph" unicode="&#xb6;" horiz-adv-x="555" 
d="M255.5 8.5c-5.66699 5.66699 -8.49805 12.835 -8.49805 21.502v367c-39.333 0 -74.333 8.5 -105 25.5s-54.5 40.167 -71.5 69.5s-25.5 61.666 -25.5 96.999c0 34.667 8.66699 66.834 26 96.501s40.666 53.167 69.999 70.5s61.333 26 96 26h243
c8.66699 0 15.834 -3 21.501 -9s8.5 -13.333 8.5 -22s-3.83301 -15.834 -11.5 -21.501s-17.167 -8.5 -28.5 -8.5v-691c0 -8.66699 -2.83301 -15.834 -8.5 -21.501s-12.834 -8.5 -21.501 -8.5s-16 2.83301 -22 8.5s-9 12.834 -9 21.501v691h-101v-691
c0 -8.66699 -3 -15.834 -9 -21.501s-13.333 -8.5 -22 -8.5s-15.834 2.83301 -21.501 8.5z" />
    <glyph glyph-name="periodcentered" unicode="&#xb7;" horiz-adv-x="195" 
d="M58 338.5c-10 9.66699 -15.001 21.834 -15.001 36.501c0 14 4.83301 25.833 14.5 35.5s21.834 14.5 36.501 14.5c14 0 25.833 -4.83301 35.5 -14.5s14.5 -21.5 14.5 -35.5c0 -14.667 -4.83301 -26.834 -14.5 -36.501s-21.5 -14.5 -35.5 -14.5s-26 4.83301 -36 14.5z" />
    <glyph glyph-name="cedilla" unicode="&#xb8;" horiz-adv-x="313" 
d="M69.5 -212c-21 13.333 -31.499 28.666 -31.499 45.999c0 8.66699 2.83301 16 8.5 22s12.834 9 21.501 9c5.33301 0 10 -1.16699 14 -3.5s8 -5 12 -8s7 -5.5 9 -7.5c6.66699 -5.33301 13.167 -9.5 19.5 -12.5s15.166 -4.5 26.499 -4.5c17.333 0 31.5 3.66699 42.5 11
s16.5 17.333 16.5 30s-4.33301 22.834 -13 30.501s-23.334 14.5 -44.001 20.5c-10.667 2.66699 -18.667 6 -24 10s-8 9.66699 -8 17c0 4 1.66699 10.333 5 19l20 49c5.33301 14.667 17 22 35 22c8 0 14.5 -2.5 19.5 -7.5s7.5 -11.167 7.5 -18.5c0 -4 -1 -8 -3 -12l-15 -36
c33.333 -10 56.333 -22.333 69 -37s19 -33 19 -55c0 -29.333 -12.667 -54 -38 -74s-55 -30 -89 -30c-32 0 -58.5 6.66699 -79.5 20z" />
    <glyph glyph-name="uni00B9" unicode="&#xb9;" horiz-adv-x="254" 
d="M137 416l1 299.002l-86 -28c-3.33301 -1.33301 -8.33301 -2 -15 -2c-18 0 -27 8.33301 -27 25c0 11.333 7 19.666 21 24.999l107 39c10 4 19.333 6 28 6s15.5 -2.5 20.5 -7.5s7.5 -12.833 7.5 -23.5v-333c-0.666992 -10.667 -3 -18.334 -7 -23.001s-11 -7 -21 -7
c-19.333 0 -29 10 -29 30z" />
    <glyph glyph-name="ordmasculine" unicode="&#xba;" horiz-adv-x="468" 
d="M135 429.5c-29.333 17 -52.5 40.167 -69.5 69.5s-25.5 62.333 -25.5 99s8.5 69.667 25.5 99s40.167 52.5 69.5 69.5s62.333 25.5 99 25.5s69.667 -8.5 99 -25.5s52.5 -40.167 69.5 -69.5s25.5 -62.333 25.5 -99s-8.5 -69.667 -25.5 -99s-40.167 -52.5 -69.5 -69.5
s-62.333 -25.5 -99 -25.5s-69.667 8.5 -99 25.5zM331.5 501c25.667 26 38.5 58.333 38.5 97c0 39.333 -12.833 71.833 -38.5 97.5s-58.167 38.5 -97.5 38.5c-38.667 0 -71 -12.833 -97 -38.5s-39 -58.167 -39 -97.5c0 -38.667 13 -71 39 -97s58.333 -39 97 -39
c39.333 0 71.833 13 97.5 39z" />
    <glyph glyph-name="guillemotright" unicode="&#xbb;" horiz-adv-x="469" 
d="M49.5 8.5c-5.66699 5.66699 -8.50098 12.834 -8.50098 21.501c0 4.66699 0.666992 9 2 13l115 230l-115 230c-1.33301 5.33301 -2 9.66602 -2 12.999c0 8.66699 2.83301 15.834 8.5 21.501s12.834 8.5 21.501 8.5c6 0 11.167 -1.5 15.5 -4.5s8.5 -7.83301 12.5 -14.5
l120 -239c2.66699 -6.66699 4 -11.667 4 -15c0 -4.66699 -1.66699 -10.334 -5 -17.001l-119 -237c-3.33301 -6.66699 -7.16602 -11.5 -11.499 -14.5s-9.83301 -4.5 -16.5 -4.5c-8.66699 -0 -15.834 2.83301 -21.501 8.5zM256.499 8.5
c-5.66699 5.66699 -8.50098 12.834 -8.50098 21.501c0 4.66699 0.666992 9 2 13l115 230l-115 230c-1.33301 5.33301 -2 9.66602 -2 12.999c0 8.66699 2.83301 15.834 8.5 21.501s12.834 8.5 21.501 8.5c6 0 11.167 -1.5 15.5 -4.5s8.5 -7.83301 12.5 -14.5l120 -239
c2.66699 -6.66699 4 -11.667 4 -15c0 -4.66699 -1.66699 -10.334 -5 -17.001l-119 -237c-3.33301 -6.66699 -7.16602 -11.5 -11.499 -14.5s-9.83301 -4.5 -16.5 -4.5c-8.66699 -0 -15.834 2.83301 -21.501 8.5z" />
    <glyph glyph-name="onequarter" unicode="&#xbc;" horiz-adv-x="743" 
d="M137 416l1 299.002l-86 -28c-3.33301 -1.33301 -8.33301 -2 -15 -2c-18 0 -27 8.33301 -27 25c0 11.333 7 19.666 21 24.999l107 39c10 4 19.333 6 28 6s15.5 -2.5 20.5 -7.5s7.5 -12.833 7.5 -23.5v-333c-0.666992 -10.667 -3 -18.334 -7 -23.001s-11 -7 -21 -7
c-19.333 0 -29 10 -29 30zM612 790.002c8.66699 0 15.334 -2.33301 20.001 -7s7 -10.667 7 -18c0 -8 -2.33301 -15.333 -7 -22l-479 -727c-6.66699 -10.667 -15.667 -16 -27 -16c-8.66699 0 -15.334 2.5 -20.001 7.5s-7 11.167 -7 18.5s2.33301 14.333 7 21l482 732
c5.33301 7.33301 13.333 11 24 11zM586 30.002v57.001h-157c-10.667 0 -19.5 3.16699 -26.5 9.5s-10.5 14.166 -10.5 23.499c0 11.333 4.33301 22.333 13 33l174 225c9.33301 11.333 20.333 17 33 17c8.66699 0 16 -2.83301 22 -8.5s9 -13.5 9 -23.5v-223h37
c18.667 0 28 -9 28 -27c0 -17.333 -9.33301 -26 -28 -26h-37v-57c0 -20 -9.33301 -30 -28 -30c-19.333 0 -29 10 -29 30zM589 140.003l1 172l-132 -172h131z" />
    <glyph glyph-name="onehalf" unicode="&#xbd;" horiz-adv-x="761" 
d="M137 416l1 299.002l-86 -28c-3.33301 -1.33301 -8.33301 -2 -15 -2c-18 0 -27 8.33301 -27 25c0 11.333 7 19.666 21 24.999l107 39c10 4 19.333 6 28 6s15.5 -2.5 20.5 -7.5s7.5 -12.833 7.5 -23.5v-333c-0.666992 -10.667 -3 -18.334 -7 -23.001s-11 -7 -21 -7
c-19.333 0 -29 10 -29 30zM629 790.002c8.66699 0 15.334 -2.33301 20.001 -7s7 -10.667 7 -18c0 -8 -2.33301 -15.333 -7 -22l-479 -727c-6.66699 -10.667 -15.667 -16 -27 -16c-8.66699 0 -15.334 2.5 -20.001 7.5s-7 11.167 -7 18.5s2.33301 14.333 7 21l482 732
c5.33301 7.33301 13.333 11 24 11zM731.5 46.502c6.33301 -5 9.5 -11.834 9.5 -20.501s-3 -15.167 -9 -19.5s-13.667 -6.5 -23 -6.5h-194c-9.33301 0 -17 3 -23 9s-9 13.667 -9 23c0 8.66699 2.66699 16.334 8 23.001l164 183c12 12.667 18 28 18 46
c0 19.333 -6.66699 35.333 -20 48s-29.333 19 -48 19c-22.667 0 -41.334 -6.83301 -56.001 -20.5s-22 -30.5 -22 -50.5c0 -9.33301 -2.16699 -17 -6.5 -23s-11.166 -9 -20.499 -9c-8 0 -14.333 3.16699 -19 9.5s-7 13.833 -7 22.5c0 35.333 12.667 64.833 38 88.5
s57 35.5 95 35.5c34.667 0 63.667 -11.333 87 -34s35 -51 35 -85c0 -18 -4.16699 -33.667 -12.5 -47s-20.833 -29 -37.5 -47l-126 -137h156c8.66699 0 16.167 -2.5 22.5 -7.5z" />
    <glyph glyph-name="threequarters" unicode="&#xbe;" horiz-adv-x="819" 
d="M254.5 758c23 -20.667 34.5 -46.334 34.5 -77.001c0 -18.667 -5.5 -36.5 -16.5 -53.5s-23.833 -28.167 -38.5 -33.5c20 -8.66699 35.833 -21 47.5 -37s17.5 -36 17.5 -60c0 -33.333 -11.667 -61.166 -35 -83.499s-52.666 -33.5 -87.999 -33.5
c-37.333 0 -68.5 11.5 -93.5 34.5s-37.5 51.833 -37.5 86.5c0 10 2.5 17.833 7.5 23.5s12.167 8.5 21.5 8.5c14.667 0 22 -10.667 22 -32c0 -20 7.66699 -36.667 23 -50s34 -20 56 -20c19.333 0 35.666 6.16699 48.999 18.5s20 27.833 20 46.5
c0 20 -5.66699 36.833 -17 50.5s-25.333 20.5 -42 20.5c-23.333 0 -35 8.66699 -35 26c0 18.667 10 28 30 28c36 0 54 19.667 54 59c0 16.667 -5.33301 30.167 -16 40.5s-26.334 15.5 -47.001 15.5c-22 0 -39 -5 -51 -15s-19.333 -23.667 -22 -41
c-1.33301 -7.33301 -4.16602 -13.5 -8.49902 -18.5s-9.16602 -7.5 -14.499 -7.5c-8.66699 0 -15.667 2.5 -21 7.5s-8 11.833 -8 20.5c0 30.667 11.667 56.167 35 76.5s52.666 30.5 87.999 30.5c34 0 62.5 -10.333 85.5 -31zM657 790c8.66699 0 15.334 -2.33301 20.001 -7
s7 -10.667 7 -18c0 -8 -2.33301 -15.333 -7 -22l-479 -727c-6.66699 -10.667 -15.667 -16 -27 -16c-8.66699 0 -15.334 2.5 -20.001 7.5s-7 11.167 -7 18.5s2.33301 14.333 7 21l482 732c5.33301 7.33301 13.333 11 24 11zM657 30v57.001h-157
c-10.667 0 -19.5 3.16699 -26.5 9.5s-10.5 14.166 -10.5 23.499c0 11.333 4.33301 22.333 13 33l174 225c9.33301 11.333 20.333 17 33 17c8.66699 0 16 -2.83301 22 -8.5s9 -13.5 9 -23.5v-223h37c18.667 0 28 -9 28 -27c0 -17.333 -9.33301 -26 -28 -26h-37v-57
c0 -20 -9.33301 -30 -28 -30c-19.333 0 -29 10 -29 30zM660 140.001l1 172l-132 -172h131z" />
    <glyph glyph-name="questiondown" unicode="&#xbf;" horiz-adv-x="547" 
d="M236 534.5c-10 9.66699 -15 21.499 -15 35.499c0 14.667 5 26.834 15 36.501s22 14.5 36 14.5s25.833 -5 35.5 -15s14.5 -22 14.5 -36s-4.66699 -25.833 -14 -35.5s-21.333 -14.5 -36 -14.5c-14 0 -26 4.83301 -36 14.5zM121 -39.501
c14.667 -23.667 35.167 -42.333 61.5 -56s56.166 -20.5 89.499 -20.5c50.667 0 92 16 124 48s48 73.333 48 124c0 8.66699 2.83301 15.667 8.5 21s12.834 8 21.501 8c9.33301 0 16.833 -2.66699 22.5 -8s8.5 -12.333 8.5 -21c0 -44.667 -10 -84.667 -30 -120
s-47.667 -62.833 -83 -82.5s-75.333 -29.5 -120 -29.5s-84.667 9.66699 -120 29s-63 46 -83 80s-30 71.667 -30 113c0 29.333 4.66699 55.333 14 78s21.166 42.334 35.499 59.001s34.833 37.667 61.5 63l37 35c36 36 54 81.667 54 137c0 9.33301 3 16.833 9 22.5
s13.333 8.5 22 8.5s15.834 -2.83301 21.501 -8.5s8.5 -13.167 8.5 -22.5c0 -27.333 -6.33301 -56.333 -19 -87s-29 -56.334 -49 -77.001l-35 -34c-22.667 -21.333 -40.667 -39.5 -54 -54.5s-24.333 -32.833 -33 -53.5s-13 -44.667 -13 -72
c0 -29.333 7.33301 -55.833 22 -79.5z" />
    <glyph glyph-name="Agrave" unicode="&#xc0;" horiz-adv-x="703" 
d="M690 30c0 -8 -3.00195 -15 -9.00195 -21s-13 -9 -21 -9c-13.333 -0 -22.666 6.33301 -27.999 19l-74 177h-407l-74 -177c-4.66699 -12.667 -14 -19 -28 -19c-9.33301 0 -16.666 3 -21.999 9s-8 13 -8 21c0 4.66699 1 9 3 13l303 717c5.33301 14 15 21 29 21
c13.333 0 23 -7 29 -21l304 -717c2 -4 3 -8.33301 3 -13zM534.998 250l-181 432l-180 -432h361zM331.998 881l-122.999 123.001c-5.33301 5.33301 -8 12.333 -8 21s3 16 9 22s13.333 9 22 9c8 0 15 -3 21 -9l123 -123c4.66699 -4.66699 7 -11.334 7 -20.001
s-2.83301 -16 -8.5 -22s-12.834 -9 -21.501 -9c-6.66699 0 -13.667 2.66699 -21 8z" />
    <glyph glyph-name="Aacute" unicode="&#xc1;" horiz-adv-x="703" 
d="M690 30c0 -8 -3.00195 -15 -9.00195 -21s-13 -9 -21 -9c-13.333 -0 -22.666 6.33301 -27.999 19l-74 177h-407l-74 -177c-4.66699 -12.667 -14 -19 -28 -19c-9.33301 0 -16.666 3 -21.999 9s-8 13 -8 21c0 4.66699 1 9 3 13l303 717c5.33301 14 15 21 29 21
c13.333 0 23 -7 29 -21l304 -717c2 -4 3 -8.33301 3 -13zM534.998 250l-181 432l-180 -432h361zM314.998 871c-6 6 -9 13.333 -9 22c0 7.33301 2.33301 14 7 20l123 123c6 6 13.333 9 22 9s16 -3 22 -9s9 -13.333 9 -22c0 -8 -3 -15 -9 -21l-123 -123
c-5.33301 -5.33301 -12 -8 -20 -8c-8.66699 0 -16 3 -22 9z" />
    <glyph glyph-name="Acircumflex" unicode="&#xc2;" horiz-adv-x="703" 
d="M690 30c0 -8 -3.00195 -15 -9.00195 -21s-13 -9 -21 -9c-13.333 -0 -22.666 6.33301 -27.999 19l-74 177h-407l-74 -177c-4.66699 -12.667 -14 -19 -28 -19c-9.33301 0 -16.666 3 -21.999 9s-8 13 -8 21c0 4.66699 1 9 3 13l303 717c5.33301 14 15 21 29 21
c13.333 0 23 -7 29 -21l304 -717c2 -4 3 -8.33301 3 -13zM534.998 250l-181 432l-180 -432h361zM208.998 890.5c-6 5.66699 -9 12.834 -9 21.501c0 11.333 5.33301 20.333 16 27l121 81c5.33301 2.66699 10.333 4 15 4s9.66699 -1.33301 15 -4l121 -81
c10.667 -6.66699 16 -15.667 16 -27c0 -8.66699 -3 -15.834 -9 -21.501s-13.333 -8.5 -22 -8.5c-6.66699 0 -13 2 -19 6l-102 68l-102 -68c-6 -4 -12 -6 -18 -6c-9.33301 0 -17 2.83301 -23 8.5z" />
    <glyph glyph-name="Atilde" unicode="&#xc3;" horiz-adv-x="703" 
d="M690 30c0 -8 -3.00195 -15 -9.00195 -21s-13 -9 -21 -9c-13.333 -0 -22.666 6.33301 -27.999 19l-74 177h-407l-74 -177c-4.66699 -12.667 -14 -19 -28 -19c-9.33301 0 -16.666 3 -21.999 9s-8 13 -8 21c0 4.66699 1 9 3 13l303 717c5.33301 14 15 21 29 21
c13.333 0 23 -7 29 -21l304 -717c2 -4 3 -8.33301 3 -13zM534.998 250l-181 432l-180 -432h361zM372.498 896.5c-13 7 -23.8301 14.8311 -32.4971 23.498c-10.667 10.667 -19.5 18.167 -26.5 22.5s-14.5 6.5 -22.5 6.5s-15 -3.5 -21 -10.5s-13 -17.833 -21 -32.5
c-6 -12 -15.333 -18 -28 -18c-8 0 -14.167 2.33301 -18.5 7s-6.5 10.334 -6.5 17.001c0 4.66699 1 9.33398 3 14.001c11.333 26 24.333 44.833 39 56.5s32 17.5 52 17.5c15.333 0 27.666 -2.5 36.999 -7.5s21 -13.5 35 -25.5c13.333 -11.333 23.166 -18.833 29.499 -22.5
s12.166 -5.5 17.499 -5.5c10 0 18.667 10 26 30c2.66699 8 7.5 14 14.5 18s14.167 5 21.5 3c14.667 -4 22 -12.333 22 -25c0 -4 -1 -8 -3 -12c-10 -24 -21.167 -41.167 -33.5 -51.5s-26.833 -15.5 -43.5 -15.5c-14 0 -27.5 3.5 -40.5 10.5z" />
    <glyph glyph-name="Adieresis" unicode="&#xc4;" horiz-adv-x="703" 
d="M690 30c0 -8 -3.00195 -15 -9.00195 -21s-13 -9 -21 -9c-13.333 -0 -22.666 6.33301 -27.999 19l-74 177h-407l-74 -177c-4.66699 -12.667 -14 -19 -28 -19c-9.33301 0 -16.666 3 -21.999 9s-8 13 -8 21c0 4.66699 1 9 3 13l303 717c5.33301 14 15 21 29 21
c13.333 0 23 -7 29 -21l304 -717c2 -4 3 -8.33301 3 -13zM534.998 250l-181 432l-180 -432h361zM214.998 906c-10 10 -15 22.333 -15 37c0 14 5 26 15 36s22.333 15 37 15s26.834 -5 36.501 -15s14.5 -22 14.5 -36c0 -14.667 -4.83301 -27 -14.5 -37
s-21.834 -15 -36.501 -15s-27 5 -37 15zM414.998 906c-10 10 -15 22.333 -15 37c0 14 5 26 15 36s22.333 15 37 15s26.834 -5 36.501 -15s14.5 -22 14.5 -36c0 -14.667 -4.83301 -27 -14.5 -37s-21.834 -15 -36.501 -15s-27 5 -37 15z" />
    <glyph glyph-name="Aring" unicode="&#xc5;" horiz-adv-x="703" 
d="M690 30c0 -8 -3.00195 -15 -9.00195 -21s-13 -9 -21 -9c-13.333 -0 -22.666 6.33301 -27.999 19l-74 177h-407l-74 -177c-4.66699 -12.667 -14 -19 -28 -19c-9.33301 0 -16.666 3 -21.999 9s-8 13 -8 21c0 4.66699 1 9 3 13l303 717c5.33301 14 15 21 29 21
c13.333 0 23 -7 29 -21l304 -717c2 -4 3 -8.33301 3 -13zM534.998 250l-181 432l-180 -432h361zM286.998 858.5c-18 18.333 -27 39.833 -27 64.5c0 25.333 9.16699 47 27.5 65s39.833 27 64.5 27c25.333 0 47 -9 65 -27s27 -39.667 27 -65c0 -24.667 -9 -46.167 -27 -64.5
s-39.667 -27.5 -65 -27.5s-47 9.16699 -65 27.5zM389.998 885.5c10.667 10.333 16 22.835 16 37.502c0 15.333 -5.33301 28.166 -16 38.499s-23.334 15.5 -38.001 15.5s-27.167 -5.33301 -37.5 -16s-15.5 -23.334 -15.5 -38.001s5.16699 -27.167 15.5 -37.5
s22.833 -15.5 37.5 -15.5s27.334 5.16699 38.001 15.5z" />
    <glyph glyph-name="AE" unicode="&#xc6;" horiz-adv-x="931" 
d="M877 51c6 -6 9.00098 -12.9971 9.00098 -20.9971c0 -8.66699 -3 -15.834 -9 -21.501s-13 -8.5 -21 -8.5h-381c-8.66699 0 -15.834 2.83301 -21.501 8.5s-8.5 12.834 -8.5 21.501v166h-264l-104 -177c-4.66699 -12.667 -14 -19 -28 -19c-9.33301 0 -16.833 3 -22.5 9
s-8.5 13 -8.5 21c0 3.33301 1.33301 7.66602 4 12.999l418 710c6 10 13 17.167 21 21.5s18.667 6.5 32 6.5h363c8 0 15 -2.83301 21 -8.5s9 -12.834 9 -21.501c0 -8 -3 -15 -9 -21s-13 -9 -21 -9h-351v-300h231c8.66699 0 15.834 -2.83301 21.501 -8.5
s8.5 -12.834 8.5 -21.501s-2.83301 -16 -8.5 -22s-12.834 -9 -21.501 -9h-231v-300h351c8 0 15 -3 21 -9zM445.001 250.003v394l-232 -394h232z" />
    <glyph glyph-name="Ccedilla" unicode="&#xc7;" horiz-adv-x="767" 
d="M673 128c8 0 15.167 -3.00098 21.5 -9.00098s9.5 -13.333 9.5 -22s-2.33301 -15.667 -7 -21c-51.333 -51.333 -121 -79.666 -209 -84.999l-11 -27c33.333 -10 56.333 -22.333 69 -37s19 -33 19 -55c0 -29.333 -12.667 -54 -38 -74s-55 -30 -89 -30
c-32 0 -58.5 6.66699 -79.5 20s-31.5 28.666 -31.5 45.999c0 8.66699 2.83301 16 8.5 22s12.834 9 21.501 9c5.33301 0 10 -1.16699 14 -3.5s8 -5 12 -8s7 -5.5 9 -7.5c6.66699 -5.33301 13.167 -9.5 19.5 -12.5s15.166 -4.5 26.499 -4.5c17.333 0 31.5 3.66699 42.5 11
s16.5 17.333 16.5 30s-4.33301 22.834 -13 30.501s-23.334 14.5 -44.001 20.5c-10.667 2.66699 -18.667 6 -24 10s-8 9.66699 -8 17c0 4 1.66699 10.333 5 19l10 24c-66 4.66699 -126.667 25.667 -182 63s-99.333 85.833 -132 145.5s-49 123.5 -49 191.5
c0 71.333 17.5 137.666 52.5 198.999s82.333 110.166 142 146.499s125.167 54.5 196.5 54.5c93.333 0 175.666 -29.667 246.999 -89c6 -4.66699 9 -11.334 9 -20.001c0 -8 -2.66699 -15.167 -8 -21.5s-12.666 -9.5 -21.999 -9.5c-7.33301 0 -15.666 4 -24.999 12
c-50.667 45.333 -117.667 68 -201 68c-58.667 0 -113.5 -15.667 -164.5 -47s-91.5 -73.166 -121.5 -125.499s-45 -108.166 -45 -167.499c0 -61.333 14.833 -118.166 44.5 -170.499s70 -93.833 121 -124.5s106.167 -46 165.5 -46c78.667 0 147.667 24.333 207 73
c4.66699 3.33301 9.66699 5 15 5z" />
    <glyph glyph-name="Egrave" unicode="&#xc8;" horiz-adv-x="686" 
d="M108.5 8.5c-5.66699 5.66699 -8.5 12.835 -8.5 21.502v721c0 8.66699 2.83301 15.834 8.5 21.501s12.834 8.5 21.501 8.5h481c8 0 15 -2.83301 21 -8.5s9 -12.834 9 -21.501c0 -8 -3 -15 -9 -21s-13 -9 -21 -9h-451v-300h331c8.66699 0 15.834 -2.83301 21.501 -8.5
s8.5 -12.834 8.5 -21.501s-2.83301 -16 -8.5 -22s-12.834 -9 -21.501 -9h-331v-300h451c8 0 15 -3 21 -9s9 -13 9 -21c0 -8.66699 -3 -15.834 -9 -21.501s-13 -8.5 -21 -8.5h-481c-8.66699 -0 -15.834 2.83301 -21.501 8.5zM354 881.001l-122.999 123.001
c-5.33301 5.33301 -8 12.333 -8 21s3 16 9 22s13.333 9 22 9c8 0 15 -3 21 -9l123 -123c4.66699 -4.66699 7 -11.334 7 -20.001s-2.83301 -16 -8.5 -22s-12.834 -9 -21.501 -9c-6.66699 0 -13.667 2.66699 -21 8z" />
    <glyph glyph-name="Eacute" unicode="&#xc9;" horiz-adv-x="686" 
d="M108.5 8.5c-5.66699 5.66699 -8.5 12.835 -8.5 21.502v721c0 8.66699 2.83301 15.834 8.5 21.501s12.834 8.5 21.501 8.5h481c8 0 15 -2.83301 21 -8.5s9 -12.834 9 -21.501c0 -8 -3 -15 -9 -21s-13 -9 -21 -9h-451v-300h331c8.66699 0 15.834 -2.83301 21.501 -8.5
s8.5 -12.834 8.5 -21.501s-2.83301 -16 -8.5 -22s-12.834 -9 -21.501 -9h-331v-300h451c8 0 15 -3 21 -9s9 -13 9 -21c0 -8.66699 -3 -15.834 -9 -21.501s-13 -8.5 -21 -8.5h-481c-8.66699 -0 -15.834 2.83301 -21.501 8.5zM337 871.001c-6 6 -9 13.333 -9 22
c0 7.33301 2.33301 14 7 20l123 123c6 6 13.333 9 22 9s16 -3 22 -9s9 -13.333 9 -22c0 -8 -3 -15 -9 -21l-123 -123c-5.33301 -5.33301 -12 -8 -20 -8c-8.66699 0 -16 3 -22 9z" />
    <glyph glyph-name="Ecircumflex" unicode="&#xca;" horiz-adv-x="686" 
d="M108.5 8.5c-5.66699 5.66699 -8.5 12.835 -8.5 21.502v721c0 8.66699 2.83301 15.834 8.5 21.501s12.834 8.5 21.501 8.5h481c8 0 15 -2.83301 21 -8.5s9 -12.834 9 -21.501c0 -8 -3 -15 -9 -21s-13 -9 -21 -9h-451v-300h331c8.66699 0 15.834 -2.83301 21.501 -8.5
s8.5 -12.834 8.5 -21.501s-2.83301 -16 -8.5 -22s-12.834 -9 -21.501 -9h-331v-300h451c8 0 15 -3 21 -9s9 -13 9 -21c0 -8.66699 -3 -15.834 -9 -21.501s-13 -8.5 -21 -8.5h-481c-8.66699 -0 -15.834 2.83301 -21.501 8.5zM231 890.501c-6 5.66699 -9 12.834 -9 21.501
c0 11.333 5.33301 20.333 16 27l121 81c5.33301 2.66699 10.333 4 15 4s9.66699 -1.33301 15 -4l121 -81c10.667 -6.66699 16 -15.667 16 -27c0 -8.66699 -3 -15.834 -9 -21.501s-13.333 -8.5 -22 -8.5c-6.66699 0 -13 2 -19 6l-102 68l-102 -68c-6 -4 -12 -6 -18 -6
c-9.33301 0 -17 2.83301 -23 8.5z" />
    <glyph glyph-name="Edieresis" unicode="&#xcb;" horiz-adv-x="686" 
d="M108.5 8.5c-5.66699 5.66699 -8.5 12.835 -8.5 21.502v721c0 8.66699 2.83301 15.834 8.5 21.501s12.834 8.5 21.501 8.5h481c8 0 15 -2.83301 21 -8.5s9 -12.834 9 -21.501c0 -8 -3 -15 -9 -21s-13 -9 -21 -9h-451v-300h331c8.66699 0 15.834 -2.83301 21.501 -8.5
s8.5 -12.834 8.5 -21.501s-2.83301 -16 -8.5 -22s-12.834 -9 -21.501 -9h-331v-300h451c8 0 15 -3 21 -9s9 -13 9 -21c0 -8.66699 -3 -15.834 -9 -21.501s-13 -8.5 -21 -8.5h-481c-8.66699 -0 -15.834 2.83301 -21.501 8.5zM237 906.001c-10 10 -15 22.333 -15 37
c0 14 5 26 15 36s22.333 15 37 15s26.834 -5 36.501 -15s14.5 -22 14.5 -36c0 -14.667 -4.83301 -27 -14.5 -37s-21.834 -15 -36.501 -15s-27 5 -37 15zM437 906.001c-10 10 -15 22.333 -15 37c0 14 5 26 15 36s22.333 15 37 15s26.834 -5 36.501 -15s14.5 -22 14.5 -36
c0 -14.667 -4.83301 -27 -14.5 -37s-21.834 -15 -36.501 -15s-27 5 -37 15z" />
    <glyph glyph-name="Igrave" unicode="&#xcc;" horiz-adv-x="260" 
d="M108.5 8.5c-5.66699 5.66699 -8.5 12.834 -8.5 21.501v721c0 8.66699 2.83301 15.834 8.5 21.501s12.834 8.5 21.501 8.5s15.834 -2.83301 21.501 -8.5s8.5 -12.834 8.5 -21.501v-721c0 -8.66699 -2.83301 -15.834 -8.5 -21.501s-12.834 -8.5 -21.501 -8.5
s-15.834 2.83301 -21.501 8.5zM110 881l-122.999 123.001c-5.33301 5.33301 -8 12.333 -8 21s3 16 9 22s13.333 9 22 9c8 0 15 -3 21 -9l123 -123c4.66699 -4.66699 7 -11.334 7 -20.001s-2.83301 -16 -8.5 -22s-12.834 -9 -21.501 -9c-6.66699 0 -13.667 2.66699 -21 8z
" />
    <glyph glyph-name="Iacute" unicode="&#xcd;" horiz-adv-x="260" 
d="M108.5 8.5c-5.66699 5.66699 -8.5 12.834 -8.5 21.501v721c0 8.66699 2.83301 15.834 8.5 21.501s12.834 8.5 21.501 8.5s15.834 -2.83301 21.501 -8.5s8.5 -12.834 8.5 -21.501v-721c0 -8.66699 -2.83301 -15.834 -8.5 -21.501s-12.834 -8.5 -21.501 -8.5
s-15.834 2.83301 -21.501 8.5zM93 871c-6 6 -9 13.333 -9 22c0 7.33301 2.33301 14 7 20l123 123c6 6 13.333 9 22 9s16 -3 22 -9s9 -13.333 9 -22c0 -8 -3 -15 -9 -21l-123 -123c-5.33301 -5.33301 -12 -8 -20 -8c-8.66699 0 -16 3 -22 9z" />
    <glyph glyph-name="Icircumflex" unicode="&#xce;" horiz-adv-x="260" 
d="M108.5 8.5c-5.66699 5.66699 -8.5 12.834 -8.5 21.501v721c0 8.66699 2.83301 15.834 8.5 21.501s12.834 8.5 21.501 8.5s15.834 -2.83301 21.501 -8.5s8.5 -12.834 8.5 -21.501v-721c0 -8.66699 -2.83301 -15.834 -8.5 -21.501s-12.834 -8.5 -21.501 -8.5
s-15.834 2.83301 -21.501 8.5zM-13 890.5c-6 5.66699 -9 12.834 -9 21.501c0 11.333 5.33301 20.333 16 27l121 81c5.33301 2.66699 10.333 4 15 4s9.66699 -1.33301 15 -4l121 -81c10.667 -6.66699 16 -15.667 16 -27c0 -8.66699 -3 -15.834 -9 -21.501
s-13.333 -8.5 -22 -8.5c-6.66699 0 -13 2 -19 6l-102 68l-102 -68c-6 -4 -12 -6 -18 -6c-9.33301 0 -17 2.83301 -23 8.5z" />
    <glyph glyph-name="Idieresis" unicode="&#xcf;" horiz-adv-x="260" 
d="M108.5 8.5c-5.66699 5.66699 -8.5 12.834 -8.5 21.501v721c0 8.66699 2.83301 15.834 8.5 21.501s12.834 8.5 21.501 8.5s15.834 -2.83301 21.501 -8.5s8.5 -12.834 8.5 -21.501v-721c0 -8.66699 -2.83301 -15.834 -8.5 -21.501s-12.834 -8.5 -21.501 -8.5
s-15.834 2.83301 -21.501 8.5zM-7 906c-10 10 -15 22.333 -15 37c0 14 5 26 15 36s22.333 15 37 15s26.834 -5 36.501 -15s14.5 -22 14.5 -36c0 -14.667 -4.83301 -27 -14.5 -37s-21.834 -15 -36.501 -15s-27 5 -37 15zM193 906c-10 10 -15 22.333 -15 37c0 14 5 26 15 36
s22.333 15 37 15s26.834 -5 36.501 -15s14.5 -22 14.5 -36c0 -14.667 -4.83301 -27 -14.5 -37s-21.834 -15 -36.501 -15s-27 5 -37 15z" />
    <glyph glyph-name="Eth" unicode="&#xd0;" horiz-adv-x="761" 
d="M512 731c59.333 -33.333 105.666 -79.502 138.999 -138.502s50 -126.167 50 -201.5s-16.667 -142.666 -50 -201.999s-79.666 -105.666 -138.999 -138.999s-126.666 -50 -201.999 -50h-180c-8.66699 -0 -15.834 2.83301 -21.501 8.5s-8.5 12.834 -8.5 21.501v334h-73
c-8 0 -14.5 2.5 -19.5 7.5s-7.5 11.5 -7.5 19.5s2.5 14.5 7.5 19.5s11.5 7.5 19.5 7.5h73v333c0 9.33301 2.83301 16.666 8.5 21.999s12.834 8 21.501 8h180c75.333 0 142.666 -16.667 201.999 -50zM481 97.498c50 29 89.167 69.167 117.5 120.5s42.5 109 42.5 173
s-14.167 121.5 -42.5 172.5s-67.5 91 -117.5 120s-107 43.5 -171 43.5h-150v-309h165c8 0 14.5 -2.5 19.5 -7.5s7.5 -11.5 7.5 -19.5s-2.5 -14.5 -7.5 -19.5s-11.5 -7.5 -19.5 -7.5h-165v-310h150c64 0 121 14.5 171 43.5z" />
    <glyph glyph-name="Ntilde" unicode="&#xd1;" horiz-adv-x="821" 
d="M108.5 8.5c-5.66699 5.66699 -8.50098 12.834 -8.50098 21.501v721c0 8.66699 2.83301 15.834 8.5 21.501s12.834 8.5 21.501 8.5c9.33301 0 17 -3.33301 23 -10l508 -661v641c0 8.66699 2.83301 15.834 8.5 21.501s12.834 8.5 21.501 8.5c8 0 15 -2.83301 21 -8.5
s9 -12.834 9 -21.501v-721c0 -8.66699 -3 -15.834 -9 -21.501s-13 -8.5 -21 -8.5c-9.33301 0 -16.666 3 -21.999 9l-509 662v-641c0 -8.66699 -2.83301 -15.834 -8.5 -21.501s-12.834 -8.5 -21.501 -8.5s-15.834 2.83301 -21.501 8.5zM466.999 873.5
c-14 6.33301 -29.002 14.832 -45.002 25.499c-13.333 9.33301 -24 15.5 -32 18.5s-16.333 4.5 -25 4.5c-27.333 0 -53 -13.667 -77 -41c-6 -8 -14.333 -12 -25 -12c-6.66699 0 -11.667 1.33301 -15 4c-10 6 -15 13.667 -15 23c0 6.66699 2 12.334 6 17.001
c18 21.333 37.833 37.833 59.5 49.5s43.834 17.5 66.501 17.5c17.333 0 32.5 -2.83301 45.5 -8.5s27.833 -13.834 44.5 -24.501c14 -9.33301 24.833 -15.833 32.5 -19.5s17.167 -5.5 28.5 -5.5c22.667 0 41 7.33301 55 22c8 9.33301 17.333 14 28 14
c4.66699 0 8.33398 -1 11.001 -3c12 -6 18 -14 18 -24c0 -5.33301 -2 -10.666 -6 -15.999c-26 -34 -61.333 -51 -106 -51c-18.667 0 -35 3.16699 -49 9.5z" />
    <glyph glyph-name="Ograve" unicode="&#xd2;" horiz-adv-x="921" 
d="M256.5 42.5c-61 35 -109 83 -144 144s-52.5 129.167 -52.5 204.5c0 74.667 17.5 142.5 52.5 203.5s83 109 144 144s129.167 52.5 204.5 52.5c74.667 0 142.5 -17.5 203.5 -52.5s109 -83 144 -144s52.5 -128.833 52.5 -203.5c0 -75.333 -17.5 -143.5 -52.5 -204.5
s-83 -109 -144 -144s-128.833 -52.5 -203.5 -52.5c-75.333 0 -143.5 17.5 -204.5 52.5zM634 94.5c52 29.667 92.833 70.5 122.5 122.5s44.5 110 44.5 174c0 63.333 -14.833 121 -44.5 173s-70.5 92.833 -122.5 122.5s-109.667 44.5 -173 44.5c-64 0 -122 -14.833 -174 -44.5
s-92.833 -70.5 -122.5 -122.5s-44.5 -109.667 -44.5 -173c0 -64 14.833 -122 44.5 -174s70.5 -92.833 122.5 -122.5s110 -44.5 174 -44.5c63.333 0 121 14.833 173 44.5zM441 881l-122.999 123.001c-5.33301 5.33301 -8 12.333 -8 21s3 16 9 22s13.333 9 22 9
c8 0 15 -3 21 -9l123 -123c4.66699 -4.66699 7 -11.334 7 -20.001s-2.83301 -16 -8.5 -22s-12.834 -9 -21.501 -9c-6.66699 0 -13.667 2.66699 -21 8z" />
    <glyph glyph-name="Oacute" unicode="&#xd3;" horiz-adv-x="921" 
d="M256.5 42.5c-61 35 -109 83 -144 144s-52.5 129.167 -52.5 204.5c0 74.667 17.5 142.5 52.5 203.5s83 109 144 144s129.167 52.5 204.5 52.5c74.667 0 142.5 -17.5 203.5 -52.5s109 -83 144 -144s52.5 -128.833 52.5 -203.5c0 -75.333 -17.5 -143.5 -52.5 -204.5
s-83 -109 -144 -144s-128.833 -52.5 -203.5 -52.5c-75.333 0 -143.5 17.5 -204.5 52.5zM634 94.5c52 29.667 92.833 70.5 122.5 122.5s44.5 110 44.5 174c0 63.333 -14.833 121 -44.5 173s-70.5 92.833 -122.5 122.5s-109.667 44.5 -173 44.5c-64 0 -122 -14.833 -174 -44.5
s-92.833 -70.5 -122.5 -122.5s-44.5 -109.667 -44.5 -173c0 -64 14.833 -122 44.5 -174s70.5 -92.833 122.5 -122.5s110 -44.5 174 -44.5c63.333 0 121 14.833 173 44.5zM424 871c-6 6 -9 13.333 -9 22c0 7.33301 2.33301 14 7 20l123 123c6 6 13.333 9 22 9s16 -3 22 -9
s9 -13.333 9 -22c0 -8 -3 -15 -9 -21l-123 -123c-5.33301 -5.33301 -12 -8 -20 -8c-8.66699 0 -16 3 -22 9z" />
    <glyph glyph-name="Ocircumflex" unicode="&#xd4;" horiz-adv-x="921" 
d="M256.5 42.5c-61 35 -109 83 -144 144s-52.5 129.167 -52.5 204.5c0 74.667 17.5 142.5 52.5 203.5s83 109 144 144s129.167 52.5 204.5 52.5c74.667 0 142.5 -17.5 203.5 -52.5s109 -83 144 -144s52.5 -128.833 52.5 -203.5c0 -75.333 -17.5 -143.5 -52.5 -204.5
s-83 -109 -144 -144s-128.833 -52.5 -203.5 -52.5c-75.333 0 -143.5 17.5 -204.5 52.5zM634 94.5c52 29.667 92.833 70.5 122.5 122.5s44.5 110 44.5 174c0 63.333 -14.833 121 -44.5 173s-70.5 92.833 -122.5 122.5s-109.667 44.5 -173 44.5c-64 0 -122 -14.833 -174 -44.5
s-92.833 -70.5 -122.5 -122.5s-44.5 -109.667 -44.5 -173c0 -64 14.833 -122 44.5 -174s70.5 -92.833 122.5 -122.5s110 -44.5 174 -44.5c63.333 0 121 14.833 173 44.5zM318 890.5c-6 5.66699 -9 12.834 -9 21.501c0 11.333 5.33301 20.333 16 27l121 81
c5.33301 2.66699 10.333 4 15 4s9.66699 -1.33301 15 -4l121 -81c10.667 -6.66699 16 -15.667 16 -27c0 -8.66699 -3 -15.834 -9 -21.501s-13.333 -8.5 -22 -8.5c-6.66699 0 -13 2 -19 6l-102 68l-102 -68c-6 -4 -12 -6 -18 -6c-9.33301 0 -17 2.83301 -23 8.5z" />
    <glyph glyph-name="Otilde" unicode="&#xd5;" horiz-adv-x="921" 
d="M256.5 42.5c-61 35 -109 83 -144 144s-52.5 129.167 -52.5 204.5c0 74.667 17.5 142.5 52.5 203.5s83 109 144 144s129.167 52.5 204.5 52.5c74.667 0 142.5 -17.5 203.5 -52.5s109 -83 144 -144s52.5 -128.833 52.5 -203.5c0 -75.333 -17.5 -143.5 -52.5 -204.5
s-83 -109 -144 -144s-128.833 -52.5 -203.5 -52.5c-75.333 0 -143.5 17.5 -204.5 52.5zM634 94.5c52 29.667 92.833 70.5 122.5 122.5s44.5 110 44.5 174c0 63.333 -14.833 121 -44.5 173s-70.5 92.833 -122.5 122.5s-109.667 44.5 -173 44.5c-64 0 -122 -14.833 -174 -44.5
s-92.833 -70.5 -122.5 -122.5s-44.5 -109.667 -44.5 -173c0 -64 14.833 -122 44.5 -174s70.5 -92.833 122.5 -122.5s110 -44.5 174 -44.5c63.333 0 121 14.833 173 44.5zM517 873.5c-14 6.33301 -29.002 14.832 -45.002 25.499c-13.333 9.33301 -24 15.5 -32 18.5
s-16.333 4.5 -25 4.5c-27.333 0 -53 -13.667 -77 -41c-6 -8 -14.333 -12 -25 -12c-6.66699 0 -11.667 1.33301 -15 4c-10 6 -15 13.667 -15 23c0 6.66699 2 12.334 6 17.001c18 21.333 37.833 37.833 59.5 49.5s43.834 17.5 66.501 17.5c17.333 0 32.5 -2.83301 45.5 -8.5
s27.833 -13.834 44.5 -24.501c14 -9.33301 24.833 -15.833 32.5 -19.5s17.167 -5.5 28.5 -5.5c22.667 0 41 7.33301 55 22c8 9.33301 17.333 14 28 14c4.66699 0 8.33398 -1 11.001 -3c12 -6 18 -14 18 -24c0 -5.33301 -2 -10.666 -6 -15.999c-26 -34 -61.333 -51 -106 -51
c-18.667 0 -35 3.16699 -49 9.5z" />
    <glyph glyph-name="Odieresis" unicode="&#xd6;" horiz-adv-x="921" 
d="M256.5 42.5c-61 35 -109 83 -144 144s-52.5 129.167 -52.5 204.5c0 74.667 17.5 142.5 52.5 203.5s83 109 144 144s129.167 52.5 204.5 52.5c74.667 0 142.5 -17.5 203.5 -52.5s109 -83 144 -144s52.5 -128.833 52.5 -203.5c0 -75.333 -17.5 -143.5 -52.5 -204.5
s-83 -109 -144 -144s-128.833 -52.5 -203.5 -52.5c-75.333 0 -143.5 17.5 -204.5 52.5zM634 94.5c52 29.667 92.833 70.5 122.5 122.5s44.5 110 44.5 174c0 63.333 -14.833 121 -44.5 173s-70.5 92.833 -122.5 122.5s-109.667 44.5 -173 44.5c-64 0 -122 -14.833 -174 -44.5
s-92.833 -70.5 -122.5 -122.5s-44.5 -109.667 -44.5 -173c0 -64 14.833 -122 44.5 -174s70.5 -92.833 122.5 -122.5s110 -44.5 174 -44.5c63.333 0 121 14.833 173 44.5zM324 906c-10 10 -15 22.333 -15 37c0 14 5 26 15 36s22.333 15 37 15s26.834 -5 36.501 -15
s14.5 -22 14.5 -36c0 -14.667 -4.83301 -27 -14.5 -37s-21.834 -15 -36.501 -15s-27 5 -37 15zM524 906c-10 10 -15 22.333 -15 37c0 14 5 26 15 36s22.333 15 37 15s26.834 -5 36.501 -15s14.5 -22 14.5 -36c0 -14.667 -4.83301 -27 -14.5 -37s-21.834 -15 -36.501 -15
s-27 5 -37 15z" />
    <glyph glyph-name="multiply" unicode="&#xd7;" horiz-adv-x="469" 
d="M49.5 170.5c-5.66699 5.66699 -8.49902 12.8359 -8.49902 21.5029c0 9.33301 2.33301 16.666 7 21.999l141 140l-141 141c-5.33301 5.33301 -7.66602 11.666 -6.99902 18.999c0 10 2.66699 18 8 24s12.666 9 21.999 9c8.66699 0 16 -3 22 -9l140 -140l140 140
c6 6 13.333 9 22 9s15.834 -2.83301 21.501 -8.5s8.5 -12.834 8.5 -21.501c0 -9.33301 -2.66699 -16.666 -8 -21.999l-141 -141l141 -140c5.33301 -6.66699 8 -14 8 -22c0 -8.66699 -2.83301 -15.834 -8.5 -21.501s-12.834 -8.5 -21.501 -8.5c-8 0 -15 2.33301 -21 7
l-141 142l-141 -142c-5.33301 -4.66699 -12.333 -7 -21 -7s-15.834 2.83301 -21.501 8.5z" />
    <glyph glyph-name="Oslash" unicode="&#xd8;" horiz-adv-x="859" 
d="M837 532.5c16 -44.333 24 -91.501 24 -141.501c0 -75.333 -17.5 -143.5 -52.5 -204.5s-83 -109 -144 -144s-128.833 -52.5 -203.5 -52.5c-52 0 -101.167 8.66699 -147.5 26s-87.166 41.666 -122.499 72.999l-81 -81c-5.33301 -5.33301 -12.333 -8 -21 -8
c-9.33301 0 -16.833 3 -22.5 9s-8.5 13.333 -8.5 22c0 8 2.66699 14.667 8 20l83 83c-28.667 34.667 -50.667 73.834 -66 117.501s-23 90.167 -23 139.5c0 74.667 17.5 142.5 52.5 203.5s83 109 144 144s129.167 52.5 204.5 52.5c50.667 0 98.667 -8.16699 144 -24.5
s85.666 -39.833 120.999 -70.5l78 77c5.33301 5.33301 12.333 8 21 8s16.167 -3 22.5 -9s9.5 -13 9.5 -21c0 -7.33301 -3 -14 -9 -20l-79 -79c29.333 -35.333 52 -75.166 68 -119.499zM287 686.499c-52 -29.667 -92.833 -70.5 -122.5 -122.5s-44.5 -109.667 -44.5 -173
c0 -42 6.5 -81.5 19.5 -118.5s31.5 -70.5 55.5 -100.5l484 484c-30 24 -63.5 42.5 -100.5 55.5s-76.167 19.5 -117.5 19.5c-64 0 -122 -14.833 -174 -44.5zM634 94.499c52 29.667 92.833 70.5 122.5 122.5s44.5 110 44.5 174c0 42 -6.83301 82 -20.5 120
s-32.834 72 -57.501 102l-484 -484c30 -25.333 63.833 -44.833 101.5 -58.5s77.834 -20.5 120.501 -20.5c63.333 0 121 14.833 173 44.5z" />
    <glyph glyph-name="Ugrave" unicode="&#xd9;" horiz-adv-x="801" 
d="M244.5 18.5c-45.667 23 -81.165 55 -106.498 96s-38 87.833 -38 140.5v496c0 9.33301 2.83301 16.666 8.5 21.999s12.834 8 21.501 8c9.33301 0 16.666 -2.66699 21.999 -8s8 -12.666 8 -21.999v-496c0 -40.667 10.167 -77 30.5 -109s48.666 -57 84.999 -75
s77.833 -27 124.5 -27s88.167 9 124.5 27s64.833 43 85.5 75s31 68.333 31 109v496c0 9.33301 2.83301 16.666 8.5 21.999s12.834 8 21.501 8c9.33301 0 16.666 -2.66699 21.999 -8s8 -12.666 8 -21.999v-496c0 -52.667 -12.833 -99.5 -38.5 -140.5
s-61.334 -73 -107.001 -96s-97.5 -34.5 -155.5 -34.5s-109.833 11.5 -155.5 34.5zM381.002 881l-122.999 123.001c-5.33301 5.33301 -8 12.333 -8 21s3 16 9 22s13.333 9 22 9c8 0 15 -3 21 -9l123 -123c4.66699 -4.66699 7 -11.334 7 -20.001s-2.83301 -16 -8.5 -22
s-12.834 -9 -21.501 -9c-6.66699 0 -13.667 2.66699 -21 8z" />
    <glyph glyph-name="Uacute" unicode="&#xda;" horiz-adv-x="801" 
d="M244.5 18.5c-45.667 23 -81.165 55 -106.498 96s-38 87.833 -38 140.5v496c0 9.33301 2.83301 16.666 8.5 21.999s12.834 8 21.501 8c9.33301 0 16.666 -2.66699 21.999 -8s8 -12.666 8 -21.999v-496c0 -40.667 10.167 -77 30.5 -109s48.666 -57 84.999 -75
s77.833 -27 124.5 -27s88.167 9 124.5 27s64.833 43 85.5 75s31 68.333 31 109v496c0 9.33301 2.83301 16.666 8.5 21.999s12.834 8 21.501 8c9.33301 0 16.666 -2.66699 21.999 -8s8 -12.666 8 -21.999v-496c0 -52.667 -12.833 -99.5 -38.5 -140.5
s-61.334 -73 -107.001 -96s-97.5 -34.5 -155.5 -34.5s-109.833 11.5 -155.5 34.5zM364.002 871c-6 6 -9 13.333 -9 22c0 7.33301 2.33301 14 7 20l123 123c6 6 13.333 9 22 9s16 -3 22 -9s9 -13.333 9 -22c0 -8 -3 -15 -9 -21l-123 -123c-5.33301 -5.33301 -12 -8 -20 -8
c-8.66699 0 -16 3 -22 9z" />
    <glyph glyph-name="Ucircumflex" unicode="&#xdb;" horiz-adv-x="801" 
d="M244.5 18.5c-45.667 23 -81.165 55 -106.498 96s-38 87.833 -38 140.5v496c0 9.33301 2.83301 16.666 8.5 21.999s12.834 8 21.501 8c9.33301 0 16.666 -2.66699 21.999 -8s8 -12.666 8 -21.999v-496c0 -40.667 10.167 -77 30.5 -109s48.666 -57 84.999 -75
s77.833 -27 124.5 -27s88.167 9 124.5 27s64.833 43 85.5 75s31 68.333 31 109v496c0 9.33301 2.83301 16.666 8.5 21.999s12.834 8 21.501 8c9.33301 0 16.666 -2.66699 21.999 -8s8 -12.666 8 -21.999v-496c0 -52.667 -12.833 -99.5 -38.5 -140.5
s-61.334 -73 -107.001 -96s-97.5 -34.5 -155.5 -34.5s-109.833 11.5 -155.5 34.5zM258.002 890.5c-6 5.66699 -9 12.834 -9 21.501c0 11.333 5.33301 20.333 16 27l121 81c5.33301 2.66699 10.333 4 15 4s9.66699 -1.33301 15 -4l121 -81c10.667 -6.66699 16 -15.667 16 -27
c0 -8.66699 -3 -15.834 -9 -21.501s-13.333 -8.5 -22 -8.5c-6.66699 0 -13 2 -19 6l-102 68l-102 -68c-6 -4 -12 -6 -18 -6c-9.33301 0 -17 2.83301 -23 8.5z" />
    <glyph glyph-name="Udieresis" unicode="&#xdc;" horiz-adv-x="801" 
d="M244.5 18.5c-45.667 23 -81.165 55 -106.498 96s-38 87.833 -38 140.5v496c0 9.33301 2.83301 16.666 8.5 21.999s12.834 8 21.501 8c9.33301 0 16.666 -2.66699 21.999 -8s8 -12.666 8 -21.999v-496c0 -40.667 10.167 -77 30.5 -109s48.666 -57 84.999 -75
s77.833 -27 124.5 -27s88.167 9 124.5 27s64.833 43 85.5 75s31 68.333 31 109v496c0 9.33301 2.83301 16.666 8.5 21.999s12.834 8 21.501 8c9.33301 0 16.666 -2.66699 21.999 -8s8 -12.666 8 -21.999v-496c0 -52.667 -12.833 -99.5 -38.5 -140.5
s-61.334 -73 -107.001 -96s-97.5 -34.5 -155.5 -34.5s-109.833 11.5 -155.5 34.5zM264.002 906c-10 10 -15 22.333 -15 37c0 14 5 26 15 36s22.333 15 37 15s26.834 -5 36.501 -15s14.5 -22 14.5 -36c0 -14.667 -4.83301 -27 -14.5 -37s-21.834 -15 -36.501 -15
s-27 5 -37 15zM464.002 906c-10 10 -15 22.333 -15 37c0 14 5 26 15 36s22.333 15 37 15s26.834 -5 36.501 -15s14.5 -22 14.5 -36c0 -14.667 -4.83301 -27 -14.5 -37s-21.834 -15 -36.501 -15s-27 5 -37 15z" />
    <glyph glyph-name="Yacute" unicode="&#xdd;" horiz-adv-x="633" 
d="M620.5 773c5 -5.33301 7.50195 -12 7.50195 -20c0 -7.33301 -1.66699 -13.666 -5 -18.999l-276 -442v-262c0 -8.66699 -2.83301 -15.834 -8.5 -21.501s-12.834 -8.5 -21.501 -8.5s-15.834 2.83301 -21.501 8.5s-8.5 12.834 -8.5 21.501v262l-276 442
c-4 7.33301 -6 13.666 -6 18.999c0 8 2.66699 14.667 8 20s12.333 8 21 8s16.667 -4 24 -12l259 -422l255 415c4.66699 7.33301 9.16699 12.333 13.5 15s9.5 4 15.5 4c8 0 14.5 -2.66699 19.5 -8zM280.002 871c-6 6 -9 13.333 -9 22c0 7.33301 2.33301 14 7 20l123 123
c6 6 13.333 9 22 9s16 -3 22 -9s9 -13.333 9 -22c0 -8 -3 -15 -9 -21l-123 -123c-5.33301 -5.33301 -12 -8 -20 -8c-8.66699 0 -16 3 -22 9z" />
    <glyph glyph-name="Thorn" unicode="&#xde;" horiz-adv-x="605" 
d="M459 621.5c38 -19.667 67.665 -47 88.998 -82s32 -74.5 32 -118.5c0 -44.667 -10.667 -84.5 -32 -119.5s-51 -62.333 -89 -82s-81 -29.5 -129 -29.5h-170v-160c0 -8.66699 -2.66699 -15.834 -8 -21.501s-12.666 -8.5 -21.999 -8.5
c-8.66699 0 -15.834 2.83301 -21.501 8.5s-8.5 12.834 -8.5 21.501v721c0 8.66699 2.83301 15.834 8.5 21.501s12.834 8.5 21.501 8.5s15.834 -2.83301 21.501 -8.5s8.5 -12.834 8.5 -21.501v-100h170c48 0 91 -9.83301 129 -29.5zM427.998 267.5
c28.667 15.667 51.166 36.833 67.499 63.5s24.5 56.667 24.5 90c0 32.667 -8.16699 62.5 -24.5 89.5s-39 48.167 -68 63.5s-61.5 23 -97.5 23h-170v-353h170c36.667 0 69.334 7.83301 98.001 23.5z" />
    <glyph glyph-name="germandbls" unicode="&#xdf;" horiz-adv-x="547" 
d="M70.5 8.5c-5.66699 5.66699 -8.49805 12.499 -8.49805 20.499v549c0 35.333 8.5 67.5 25.5 96.5s41 52.167 72 69.5s66.5 26 106.5 26c35.333 0 67.166 -7 95.499 -21s50.666 -34 66.999 -60s24.5 -56.333 24.5 -91c0 -24.667 -4.83301 -45.667 -14.5 -63
s-23.5 -37 -41.5 -59c-14 -16 -24.333 -29.5 -31 -40.5s-10 -22.833 -10 -35.5c0 -13.333 5 -26.166 15 -38.499s25.667 -28.166 47 -47.499c30.667 -28 54.334 -53.5 71.001 -76.5s25 -50.167 25 -81.5c0 -29.333 -8.16699 -56.333 -24.5 -81s-39 -44.334 -68 -59.001
s-61.167 -22 -96.5 -22c-24.667 0 -48.667 4 -72 12s-42.333 18 -57 30s-22 23.667 -22 35c0 8 2.16699 14.667 6.5 20s10.166 8 17.499 8s13 -1.16699 17 -3.5s8.66699 -6.16602 14 -11.499c10 -9.33301 21.5 -16.5 34.5 -21.5s33.5 -7.83301 61.5 -8.5
c40.667 0 72.334 8.33301 95.001 25s34 42.334 34 77.001c0 23.333 -6.83301 44.166 -20.5 62.499s-33.834 39.5 -60.501 63.5c-26 23.333 -45.333 43.333 -58 60s-19 35.667 -19 57c0 16.667 4 31.667 12 45s19.667 28.333 35 45c17.333 20 30 36.833 38 50.5
s12 30.5 12 50.5c0 39.333 -11.5 69.166 -34.5 89.499s-54.5 30.5 -94.5 30.5c-40.667 0 -74.5 -13.333 -101.5 -40s-40.5 -60.667 -40.5 -102v-539c0 -8 -3 -14.833 -9 -20.5s-13.333 -8.5 -22 -8.5c-8 -0 -14.833 2.83301 -20.5 8.5z" />
    <glyph glyph-name="agrave" unicode="&#xe0;" 
d="M482 516.5c42.667 -24.333 76.166 -57.834 100.499 -100.501s36.5 -90.334 36.5 -143.001v-243c0 -8.66699 -2.66699 -15.834 -8 -21.501s-12.666 -8.5 -21.999 -8.5c-8.66699 0 -15.834 2.83301 -21.501 8.5s-8.5 12.834 -8.5 21.501v78
c-22 -35.333 -52.167 -63.166 -90.5 -83.499s-81.166 -30.5 -128.499 -30.5c-52.667 0 -100.334 12.167 -143.001 36.5s-76.167 57.833 -100.5 100.5s-36.5 90 -36.5 142c0 52.667 12.167 100.334 36.5 143.001s57.833 76.167 100.5 100.5s90.334 36.5 143.001 36.5
c52 0 99.333 -12.167 142 -36.5zM451.999 78.999c33.333 19.333 59.5 46 78.5 80s28.5 72 28.5 114s-9.5 80 -28.5 114s-45.167 60.833 -78.5 80.5s-70.666 29.5 -111.999 29.5s-78.666 -9.83301 -111.999 -29.5s-59.666 -46.5 -78.999 -80.5s-29 -72 -29 -114
s9.66699 -80 29 -114s45.666 -60.667 78.999 -80s70.666 -29 111.999 -29s78.666 9.66699 111.999 29zM319.999 646.999l-122.999 123.001c-5.33301 5.33301 -8 12.333 -8 21s3 16 9 22s13.333 9 22 9c8 0 15 -3 21 -9l123 -123c4.66699 -4.66699 7 -11.334 7 -20.001
s-2.83301 -16 -8.5 -22s-12.834 -9 -21.501 -9c-6.66699 0 -13.667 2.66699 -21 8z" />
    <glyph glyph-name="aacute" unicode="&#xe1;" 
d="M482 516.5c42.667 -24.333 76.166 -57.834 100.499 -100.501s36.5 -90.334 36.5 -143.001v-243c0 -8.66699 -2.66699 -15.834 -8 -21.501s-12.666 -8.5 -21.999 -8.5c-8.66699 0 -15.834 2.83301 -21.501 8.5s-8.5 12.834 -8.5 21.501v78
c-22 -35.333 -52.167 -63.166 -90.5 -83.499s-81.166 -30.5 -128.499 -30.5c-52.667 0 -100.334 12.167 -143.001 36.5s-76.167 57.833 -100.5 100.5s-36.5 90 -36.5 142c0 52.667 12.167 100.334 36.5 143.001s57.833 76.167 100.5 100.5s90.334 36.5 143.001 36.5
c52 0 99.333 -12.167 142 -36.5zM451.999 78.999c33.333 19.333 59.5 46 78.5 80s28.5 72 28.5 114s-9.5 80 -28.5 114s-45.167 60.833 -78.5 80.5s-70.666 29.5 -111.999 29.5s-78.666 -9.83301 -111.999 -29.5s-59.666 -46.5 -78.999 -80.5s-29 -72 -29 -114
s9.66699 -80 29 -114s45.666 -60.667 78.999 -80s70.666 -29 111.999 -29s78.666 9.66699 111.999 29zM302.999 636.999c-6 6 -9 13.333 -9 22c0 7.33301 2.33301 14 7 20l123 123c6 6 13.333 9 22 9s16 -3 22 -9s9 -13.333 9 -22c0 -8 -3 -15 -9 -21l-123 -123
c-5.33301 -5.33301 -12 -8 -20 -8c-8.66699 0 -16 3 -22 9z" />
    <glyph glyph-name="acircumflex" unicode="&#xe2;" 
d="M482 516.5c42.667 -24.333 76.166 -57.834 100.499 -100.501s36.5 -90.334 36.5 -143.001v-243c0 -8.66699 -2.66699 -15.834 -8 -21.501s-12.666 -8.5 -21.999 -8.5c-8.66699 0 -15.834 2.83301 -21.501 8.5s-8.5 12.834 -8.5 21.501v78
c-22 -35.333 -52.167 -63.166 -90.5 -83.499s-81.166 -30.5 -128.499 -30.5c-52.667 0 -100.334 12.167 -143.001 36.5s-76.167 57.833 -100.5 100.5s-36.5 90 -36.5 142c0 52.667 12.167 100.334 36.5 143.001s57.833 76.167 100.5 100.5s90.334 36.5 143.001 36.5
c52 0 99.333 -12.167 142 -36.5zM451.999 78.999c33.333 19.333 59.5 46 78.5 80s28.5 72 28.5 114s-9.5 80 -28.5 114s-45.167 60.833 -78.5 80.5s-70.666 29.5 -111.999 29.5s-78.666 -9.83301 -111.999 -29.5s-59.666 -46.5 -78.999 -80.5s-29 -72 -29 -114
s9.66699 -80 29 -114s45.666 -60.667 78.999 -80s70.666 -29 111.999 -29s78.666 9.66699 111.999 29zM196.999 656.499c-6 5.66699 -9 12.834 -9 21.501c0 11.333 5.33301 20.333 16 27l121 81c5.33301 2.66699 10.333 4 15 4s9.66699 -1.33301 15 -4l121 -81
c10.667 -6.66699 16 -15.667 16 -27c0 -8.66699 -3 -15.834 -9 -21.501s-13.333 -8.5 -22 -8.5c-6.66699 0 -13 2 -19 6l-102 68l-102 -68c-6 -4 -12 -6 -18 -6c-9.33301 0 -17 2.83301 -23 8.5z" />
    <glyph glyph-name="atilde" unicode="&#xe3;" 
d="M482 516.5c42.667 -24.333 76.166 -57.834 100.499 -100.501s36.5 -90.334 36.5 -143.001v-243c0 -8.66699 -2.66699 -15.834 -8 -21.501s-12.666 -8.5 -21.999 -8.5c-8.66699 0 -15.834 2.83301 -21.501 8.5s-8.5 12.834 -8.5 21.501v78
c-22 -35.333 -52.167 -63.166 -90.5 -83.499s-81.166 -30.5 -128.499 -30.5c-52.667 0 -100.334 12.167 -143.001 36.5s-76.167 57.833 -100.5 100.5s-36.5 90 -36.5 142c0 52.667 12.167 100.334 36.5 143.001s57.833 76.167 100.5 100.5s90.334 36.5 143.001 36.5
c52 0 99.333 -12.167 142 -36.5zM451.999 78.999c33.333 19.333 59.5 46 78.5 80s28.5 72 28.5 114s-9.5 80 -28.5 114s-45.167 60.833 -78.5 80.5s-70.666 29.5 -111.999 29.5s-78.666 -9.83301 -111.999 -29.5s-59.666 -46.5 -78.999 -80.5s-29 -72 -29 -114
s9.66699 -80 29 -114s45.666 -60.667 78.999 -80s70.666 -29 111.999 -29s78.666 9.66699 111.999 29zM395.999 639.499c-14 6.33301 -29.002 14.832 -45.002 25.499c-13.333 9.33301 -24 15.5 -32 18.5s-16.333 4.5 -25 4.5c-27.333 0 -53 -13.667 -77 -41
c-6 -8 -14.333 -12 -25 -12c-6.66699 0 -11.667 1.33301 -15 4c-10 6 -15 13.667 -15 23c0 6.66699 2 12.334 6 17.001c18 21.333 37.833 37.833 59.5 49.5s43.834 17.5 66.501 17.5c17.333 0 32.5 -2.83301 45.5 -8.5s27.833 -13.834 44.5 -24.501
c14 -9.33301 24.833 -15.833 32.5 -19.5s17.167 -5.5 28.5 -5.5c22.667 0 41 7.33301 55 22c8 9.33301 17.333 14 28 14c4.66699 0 8.33398 -1 11.001 -3c12 -6 18 -14 18 -24c0 -5.33301 -2 -10.666 -6 -15.999c-26 -34 -61.333 -51 -106 -51
c-18.667 0 -35 3.16699 -49 9.5z" />
    <glyph glyph-name="adieresis" unicode="&#xe4;" 
d="M482 516.5c42.667 -24.333 76.166 -57.834 100.499 -100.501s36.5 -90.334 36.5 -143.001v-243c0 -8.66699 -2.66699 -15.834 -8 -21.501s-12.666 -8.5 -21.999 -8.5c-8.66699 0 -15.834 2.83301 -21.501 8.5s-8.5 12.834 -8.5 21.501v78
c-22 -35.333 -52.167 -63.166 -90.5 -83.499s-81.166 -30.5 -128.499 -30.5c-52.667 0 -100.334 12.167 -143.001 36.5s-76.167 57.833 -100.5 100.5s-36.5 90 -36.5 142c0 52.667 12.167 100.334 36.5 143.001s57.833 76.167 100.5 100.5s90.334 36.5 143.001 36.5
c52 0 99.333 -12.167 142 -36.5zM451.999 78.999c33.333 19.333 59.5 46 78.5 80s28.5 72 28.5 114s-9.5 80 -28.5 114s-45.167 60.833 -78.5 80.5s-70.666 29.5 -111.999 29.5s-78.666 -9.83301 -111.999 -29.5s-59.666 -46.5 -78.999 -80.5s-29 -72 -29 -114
s9.66699 -80 29 -114s45.666 -60.667 78.999 -80s70.666 -29 111.999 -29s78.666 9.66699 111.999 29zM202.999 671.999c-10 10 -15 22.333 -15 37c0 14 5 26 15 36s22.333 15 37 15s26.834 -5 36.501 -15s14.5 -22 14.5 -36c0 -14.667 -4.83301 -27 -14.5 -37
s-21.834 -15 -36.501 -15s-27 5 -37 15zM402.999 671.999c-10 10 -15 22.333 -15 37c0 14 5 26 15 36s22.333 15 37 15s26.834 -5 36.501 -15s14.5 -22 14.5 -36c0 -14.667 -4.83301 -27 -14.5 -37s-21.834 -15 -36.501 -15s-27 5 -37 15z" />
    <glyph glyph-name="aring" unicode="&#xe5;" 
d="M482 516.5c42.667 -24.333 76.166 -57.834 100.499 -100.501s36.5 -90.334 36.5 -143.001v-243c0 -8.66699 -2.66699 -15.834 -8 -21.501s-12.666 -8.5 -21.999 -8.5c-8.66699 0 -15.834 2.83301 -21.501 8.5s-8.5 12.834 -8.5 21.501v78
c-22 -35.333 -52.167 -63.166 -90.5 -83.499s-81.166 -30.5 -128.499 -30.5c-52.667 0 -100.334 12.167 -143.001 36.5s-76.167 57.833 -100.5 100.5s-36.5 90 -36.5 142c0 52.667 12.167 100.334 36.5 143.001s57.833 76.167 100.5 100.5s90.334 36.5 143.001 36.5
c52 0 99.333 -12.167 142 -36.5zM451.999 78.999c33.333 19.333 59.5 46 78.5 80s28.5 72 28.5 114s-9.5 80 -28.5 114s-45.167 60.833 -78.5 80.5s-70.666 29.5 -111.999 29.5s-78.666 -9.83301 -111.999 -29.5s-59.666 -46.5 -78.999 -80.5s-29 -72 -29 -114
s9.66699 -80 29 -114s45.666 -60.667 78.999 -80s70.666 -29 111.999 -29s78.666 9.66699 111.999 29zM274.999 624.499c-18 18.333 -27 39.833 -27 64.5c0 25.333 9.16699 47 27.5 65s39.833 27 64.5 27c25.333 0 47 -9 65 -27s27 -39.667 27 -65
c0 -24.667 -9 -46.167 -27 -64.5s-39.667 -27.5 -65 -27.5s-47 9.16699 -65 27.5zM377.999 651.499c10.667 10.333 16 22.835 16 37.502c0 15.333 -5.33301 28.166 -16 38.499s-23.334 15.5 -38.001 15.5s-27.167 -5.33301 -37.5 -16s-15.5 -23.334 -15.5 -38.001
s5.16699 -27.167 15.5 -37.5s22.833 -15.5 37.5 -15.5s27.334 5.16699 38.001 15.5z" />
    <glyph glyph-name="ae" unicode="&#xe6;" horiz-adv-x="1108" 
d="M946.5 517.5c38.333 -23 68.166 -54.835 89.499 -95.502s32 -87 32 -139c0 -8.66699 -2.66699 -15.5 -8 -20.5s-12.333 -7.5 -21 -7.5h-419c2 -39.333 12.333 -74.5 31 -105.5s43.667 -55.167 75 -72.5s66.333 -26 105 -26c59.333 0 106.333 16.333 141 49
c6.66699 5.33301 13.667 8 21 8s13.333 -2 18 -6c7.33301 -6 11 -13 11 -21c0 -6.66699 -3 -13 -9 -19c-21.333 -19.333 -49.166 -35.333 -83.499 -48s-67.166 -19 -98.499 -19c-44.667 0 -85.334 9.33301 -122.001 28s-66.667 45 -90 79v-72
c0 -8.66699 -2.66699 -15.834 -8 -21.501s-12.666 -8.5 -21.999 -8.5c-8.66699 0 -15.834 2.83301 -21.501 8.5s-8.5 12.834 -8.5 21.501v78c-22 -35.333 -52.167 -63.166 -90.5 -83.499s-81.166 -30.5 -128.499 -30.5c-52.667 0 -100.334 12.167 -143.001 36.5
s-76.167 57.833 -100.5 100.5s-36.5 90 -36.5 142c0 52.667 12.167 100.334 36.5 143.001s57.833 76.167 100.5 100.5s90.334 36.5 143.001 36.5c56 0 106.333 -14 151 -42s78.334 -65.667 101.001 -113c19.333 47.333 48.666 84.833 87.999 112.5s84.666 41.5 135.999 41.5
c48.667 0 92.167 -11.5 130.5 -34.5zM452 78.998c33.333 19.333 59.5 46 78.5 80s28.5 72 28.5 114s-9.5 80 -28.5 114s-45.167 60.833 -78.5 80.5s-70.666 29.5 -111.999 29.5s-78.666 -9.83301 -111.999 -29.5s-59.666 -46.5 -78.999 -80.5s-29 -72 -29 -114
s9.66699 -80 29 -114s45.666 -60.667 78.999 -80s70.666 -29 111.999 -29s78.666 9.66699 111.999 29zM684.5 443.998c-35.667 -34.667 -56.833 -80.334 -63.5 -137.001h389c-4.66699 56.667 -24.667 102.334 -60 137.001s-80 52 -134 52c-52 0 -95.833 -17.333 -131.5 -52z
" />
    <glyph glyph-name="ccedilla" unicode="&#xe7;" horiz-adv-x="593" 
d="M214 467.5c-30 -19 -53.167 -45.499 -69.5 -79.499s-24.5 -72.333 -24.5 -115c0 -42 9 -80 27 -114s43 -60.667 75 -80s68.667 -29 110 -29c58.667 0 105.667 16.333 141 49c6 6 13 9 21 9c7.33301 0 13.333 -2.33301 18 -7c6.66699 -6 10 -13.333 10 -22
c0 -7.33301 -2.66699 -13.333 -8 -18c-20.667 -19.333 -44.667 -34.666 -72 -45.999s-56.666 -18 -87.999 -20l-13 -31c33.333 -10 56.333 -22.333 69 -37s19 -33 19 -55c0 -29.333 -12.667 -54 -38 -74s-55 -30 -89 -30c-32 0 -58.5 6.66699 -79.5 20
s-31.5 28.666 -31.5 45.999c0 8.66699 2.83301 16 8.5 22s12.834 9 21.501 9c5.33301 0 10 -1.16699 14 -3.5s8 -5 12 -8s7 -5.5 9 -7.5c6.66699 -5.33301 13.167 -9.5 19.5 -12.5s15.166 -4.5 26.499 -4.5c17.333 0 31.5 3.66699 42.5 11s16.5 17.333 16.5 30
s-4.33301 22.834 -13 30.501s-23.334 14.5 -44.001 20.5c-10.667 2.66699 -18.667 6 -24 10s-8 9.66699 -8 17c0 4 1.66699 10.333 5 19l12 30c-44 6.66699 -83.5 22.834 -118.5 48.501s-62.167 58.167 -81.5 97.5s-29 82.666 -29 129.999c0 52.667 11 100.167 33 142.5
s52.667 75.666 92 99.999s83.333 36.5 132 36.5c42.667 0 81.667 -8.33301 117 -25s66 -41.334 92 -74.001c4.66699 -6.66699 7 -12.334 7 -17.001c0 -9.33301 -4.66699 -16.666 -14 -21.999c-4.66699 -4 -10 -6 -16 -6c-9.33301 0 -17 4 -23 12
c-42.667 50.667 -97 76 -163 76c-38.667 0 -73 -9.5 -103 -28.5z" />
    <glyph glyph-name="egrave" unicode="&#xe8;" horiz-adv-x="609" 
d="M447.5 517.5c38.333 -23 68.166 -54.832 89.499 -95.499s32 -87 32 -139c0 -8.66699 -2.66699 -15.5 -8 -20.5s-12.333 -7.5 -21 -7.5h-419c2 -39.333 12.333 -74.5 31 -105.5s43.667 -55.167 75 -72.5s66.333 -26 105 -26c26 0 52.167 4.5 78.5 13.5
s47.166 20.833 62.499 35.5c6.66699 5.33301 13.667 8 21 8s13.333 -2 18 -6c7.33301 -6 11 -13 11 -21c0 -6.66699 -3 -13 -9 -19c-21.333 -19.333 -49.166 -35.333 -83.499 -48s-67.166 -19 -98.499 -19c-52.667 0 -99.5 11.833 -140.5 35.5s-73.167 56.667 -96.5 99
s-35 90.166 -35 143.499c0 54 10.833 102.167 32.5 144.5s52 75.333 91 99s83.5 35.5 133.5 35.5c48.667 0 92.167 -11.5 130.5 -34.5zM185.5 444.001c-35.667 -34.667 -56.833 -80.334 -63.5 -137.001h389c-4.66699 56.667 -24.667 102.334 -60 137.001s-80 52 -134 52
c-52 0 -95.833 -17.333 -131.5 -52zM295.001 647.001l-122.999 123.001c-5.33301 5.33301 -8 12.333 -8 21s3 16 9 22s13.333 9 22 9c8 0 15 -3 21 -9l123 -123c4.66699 -4.66699 7 -11.334 7 -20.001s-2.83301 -16 -8.5 -22s-12.834 -9 -21.501 -9
c-6.66699 0 -13.667 2.66699 -21 8z" />
    <glyph glyph-name="eacute" unicode="&#xe9;" horiz-adv-x="609" 
d="M447.5 517.5c38.333 -23 68.166 -54.832 89.499 -95.499s32 -87 32 -139c0 -8.66699 -2.66699 -15.5 -8 -20.5s-12.333 -7.5 -21 -7.5h-419c2 -39.333 12.333 -74.5 31 -105.5s43.667 -55.167 75 -72.5s66.333 -26 105 -26c26 0 52.167 4.5 78.5 13.5
s47.166 20.833 62.499 35.5c6.66699 5.33301 13.667 8 21 8s13.333 -2 18 -6c7.33301 -6 11 -13 11 -21c0 -6.66699 -3 -13 -9 -19c-21.333 -19.333 -49.166 -35.333 -83.499 -48s-67.166 -19 -98.499 -19c-52.667 0 -99.5 11.833 -140.5 35.5s-73.167 56.667 -96.5 99
s-35 90.166 -35 143.499c0 54 10.833 102.167 32.5 144.5s52 75.333 91 99s83.5 35.5 133.5 35.5c48.667 0 92.167 -11.5 130.5 -34.5zM185.5 444.001c-35.667 -34.667 -56.833 -80.334 -63.5 -137.001h389c-4.66699 56.667 -24.667 102.334 -60 137.001s-80 52 -134 52
c-52 0 -95.833 -17.333 -131.5 -52zM278.001 637.001c-6 6 -9 13.333 -9 22c0 7.33301 2.33301 14 7 20l123 123c6 6 13.333 9 22 9s16 -3 22 -9s9 -13.333 9 -22c0 -8 -3 -15 -9 -21l-123 -123c-5.33301 -5.33301 -12 -8 -20 -8c-8.66699 0 -16 3 -22 9z" />
    <glyph glyph-name="ecircumflex" unicode="&#xea;" horiz-adv-x="609" 
d="M447.5 517.5c38.333 -23 68.166 -54.832 89.499 -95.499s32 -87 32 -139c0 -8.66699 -2.66699 -15.5 -8 -20.5s-12.333 -7.5 -21 -7.5h-419c2 -39.333 12.333 -74.5 31 -105.5s43.667 -55.167 75 -72.5s66.333 -26 105 -26c26 0 52.167 4.5 78.5 13.5
s47.166 20.833 62.499 35.5c6.66699 5.33301 13.667 8 21 8s13.333 -2 18 -6c7.33301 -6 11 -13 11 -21c0 -6.66699 -3 -13 -9 -19c-21.333 -19.333 -49.166 -35.333 -83.499 -48s-67.166 -19 -98.499 -19c-52.667 0 -99.5 11.833 -140.5 35.5s-73.167 56.667 -96.5 99
s-35 90.166 -35 143.499c0 54 10.833 102.167 32.5 144.5s52 75.333 91 99s83.5 35.5 133.5 35.5c48.667 0 92.167 -11.5 130.5 -34.5zM185.5 444.001c-35.667 -34.667 -56.833 -80.334 -63.5 -137.001h389c-4.66699 56.667 -24.667 102.334 -60 137.001s-80 52 -134 52
c-52 0 -95.833 -17.333 -131.5 -52zM172.001 656.501c-6 5.66699 -9 12.834 -9 21.501c0 11.333 5.33301 20.333 16 27l121 81c5.33301 2.66699 10.333 4 15 4s9.66699 -1.33301 15 -4l121 -81c10.667 -6.66699 16 -15.667 16 -27c0 -8.66699 -3 -15.834 -9 -21.501
s-13.333 -8.5 -22 -8.5c-6.66699 0 -13 2 -19 6l-102 68l-102 -68c-6 -4 -12 -6 -18 -6c-9.33301 0 -17 2.83301 -23 8.5z" />
    <glyph glyph-name="edieresis" unicode="&#xeb;" horiz-adv-x="609" 
d="M447.5 517.5c38.333 -23 68.166 -54.832 89.499 -95.499s32 -87 32 -139c0 -8.66699 -2.66699 -15.5 -8 -20.5s-12.333 -7.5 -21 -7.5h-419c2 -39.333 12.333 -74.5 31 -105.5s43.667 -55.167 75 -72.5s66.333 -26 105 -26c26 0 52.167 4.5 78.5 13.5
s47.166 20.833 62.499 35.5c6.66699 5.33301 13.667 8 21 8s13.333 -2 18 -6c7.33301 -6 11 -13 11 -21c0 -6.66699 -3 -13 -9 -19c-21.333 -19.333 -49.166 -35.333 -83.499 -48s-67.166 -19 -98.499 -19c-52.667 0 -99.5 11.833 -140.5 35.5s-73.167 56.667 -96.5 99
s-35 90.166 -35 143.499c0 54 10.833 102.167 32.5 144.5s52 75.333 91 99s83.5 35.5 133.5 35.5c48.667 0 92.167 -11.5 130.5 -34.5zM185.5 444.001c-35.667 -34.667 -56.833 -80.334 -63.5 -137.001h389c-4.66699 56.667 -24.667 102.334 -60 137.001s-80 52 -134 52
c-52 0 -95.833 -17.333 -131.5 -52zM178.001 672.001c-10 10 -15 22.333 -15 37c0 14 5 26 15 36s22.333 15 37 15s26.834 -5 36.501 -15s14.5 -22 14.5 -36c0 -14.667 -4.83301 -27 -14.5 -37s-21.834 -15 -36.501 -15s-27 5 -37 15zM378.001 672.001
c-10 10 -15 22.333 -15 37c0 14 5 26 15 36s22.333 15 37 15s26.834 -5 36.501 -15s14.5 -22 14.5 -36c0 -14.667 -4.83301 -27 -14.5 -37s-21.834 -15 -36.501 -15s-27 5 -37 15z" />
    <glyph glyph-name="igrave" unicode="&#xec;" horiz-adv-x="280" 
d="M118.5 8.5c-5.66699 5.66699 -8.5 12.834 -8.5 21.501v487c0 9.33301 2.83301 16.666 8.5 21.999s12.834 8 21.501 8c9.33301 0 16.666 -2.66699 21.999 -8s8 -12.666 8 -21.999v-487c0 -8.66699 -2.66699 -15.834 -8 -21.501s-12.666 -8.5 -21.999 -8.5
c-8.66699 -0 -15.834 2.83301 -21.501 8.5zM120 647l-122.999 123.001c-5.33301 5.33301 -8 12.333 -8 21s3 16 9 22s13.333 9 22 9c8 0 15 -3 21 -9l123 -123c4.66699 -4.66699 7 -11.334 7 -20.001s-2.83301 -16 -8.5 -22s-12.834 -9 -21.501 -9
c-6.66699 0 -13.667 2.66699 -21 8z" />
    <glyph glyph-name="iacute" unicode="&#xed;" horiz-adv-x="280" 
d="M118.5 8.5c-5.66699 5.66699 -8.5 12.834 -8.5 21.501v487c0 9.33301 2.83301 16.666 8.5 21.999s12.834 8 21.501 8c9.33301 0 16.666 -2.66699 21.999 -8s8 -12.666 8 -21.999v-487c0 -8.66699 -2.66699 -15.834 -8 -21.501s-12.666 -8.5 -21.999 -8.5
c-8.66699 -0 -15.834 2.83301 -21.501 8.5zM103 637c-6 6 -9 13.333 -9 22c0 7.33301 2.33301 14 7 20l123 123c6 6 13.333 9 22 9s16 -3 22 -9s9 -13.333 9 -22c0 -8 -3 -15 -9 -21l-123 -123c-5.33301 -5.33301 -12 -8 -20 -8c-8.66699 0 -16 3 -22 9z" />
    <glyph glyph-name="icircumflex" unicode="&#xee;" horiz-adv-x="280" 
d="M11 656.5c-5.33301 5.66699 -8 12.834 -8 21.501c0 11.333 4.66699 20.333 14 27l109 81c5.33301 2.66699 10 4 14 4c4.66699 0 9 -1.33301 13 -4l109 -81c9.33301 -6.66699 14 -15.667 14 -27c0 -8.66699 -2.5 -15.834 -7.5 -21.501s-11.5 -8.5 -19.5 -8.5
c-6 0 -12 2 -18 6l-91 68l-92 -68c-6 -4 -11.333 -6 -16 -6c-8.66699 0 -15.667 2.83301 -21 8.5zM118.5 8.5c-5.66699 5.66699 -8.5 12.834 -8.5 21.501v487c0 9.33301 2.83301 16.666 8.5 21.999s12.834 8 21.501 8c9.33301 0 16.666 -2.66699 21.999 -8
s8 -12.666 8 -21.999v-487c0 -8.66699 -2.66699 -15.834 -8 -21.501s-12.666 -8.5 -21.999 -8.5c-8.66699 -0 -15.834 2.83301 -21.501 8.5z" />
    <glyph glyph-name="idieresis" unicode="&#xef;" horiz-adv-x="280" 
d="M13 692c-10 10 -15 22.333 -15 37c0 14 5 26 15 36s22.333 15 37 15s26.834 -5 36.501 -15s14.5 -22 14.5 -36c0 -14.667 -4.83301 -27 -14.5 -37s-21.834 -15 -36.501 -15s-27 5 -37 15zM193 692c-10 10 -15 22.333 -15 37c0 14 5 26 15 36s22.333 15 37 15
s26.834 -5 36.501 -15s14.5 -22 14.5 -36c0 -14.667 -4.83301 -27 -14.5 -37s-21.834 -15 -36.501 -15s-27 5 -37 15zM118.5 8.5c-5.66699 5.66699 -8.5 12.834 -8.5 21.501v487c0 9.33301 2.83301 16.666 8.5 21.999s12.834 8 21.501 8
c9.33301 0 16.666 -2.66699 21.999 -8s8 -12.666 8 -21.999v-487c0 -8.66699 -2.66699 -15.834 -8 -21.501s-12.666 -8.5 -21.999 -8.5c-8.66699 -0 -15.834 2.83301 -21.501 8.5z" />
    <glyph glyph-name="eth" unicode="&#xf0;" horiz-adv-x="663" 
d="M537 593c37.333 -62.667 56.002 -144.671 56.002 -246.004v-61c-0.666992 -56.667 -12.334 -107 -35.001 -151s-54 -78.5 -94 -103.5s-85.667 -37.5 -137 -37.5s-97.333 11.333 -138 34s-72.334 54.334 -95.001 95.001s-34 86.667 -34 138
c0 50.667 11.333 95.834 34 135.501s54.334 70.667 95.001 93s86.667 33.5 138 33.5c54 0 100.5 -14.167 139.5 -42.5s65.5 -66.5 79.5 -114.5c-2.66699 83.333 -21.334 150.833 -56.001 202.5s-89.667 94.834 -165 129.501l-34 -70
c-4.66699 -10.667 -12.334 -16 -23.001 -16c-4.66699 0 -8 0.666992 -10 2c-8.66699 4.66699 -13 11.667 -13 21c0 4.66699 1 9 3 13l33 69c-30 11.333 -50.667 18.666 -62 21.999c-7.33301 2.66699 -13.666 6.83398 -18.999 12.501s-8 11.834 -8 18.501
c0 3.33301 0.333008 6 1 8c4 12.667 13 19 27 19c5.33301 0 10.333 -1 15 -3c22.667 -7.33301 46.334 -16 71.001 -26l28 59c5.33301 11.333 13 17 23 17c3.33301 0 7 -1 11 -3c8.66699 -4.66699 13 -11.667 13 -21c0 -4.66699 -1 -9 -3 -13l-28 -58
c87.333 -41.333 149.666 -93.333 186.999 -156zM434.002 76.9961c31.333 18 55.666 43 72.999 75s26 68.333 26 109c0 40 -8.66699 75.667 -26 107s-41.666 55.666 -72.999 72.999s-67 26 -107 26s-75.667 -8.66699 -107 -26s-55.833 -41.666 -73.5 -72.999
s-26.5 -67 -26.5 -107c0 -40.667 8.83301 -77 26.5 -109s42.167 -57 73.5 -75s67 -27 107 -27s75.667 9 107 27z" />
    <glyph glyph-name="ntilde" unicode="&#xf1;" horiz-adv-x="673" 
d="M470.5 524c38.333 -20 68.333 -49.168 90 -87.501s32.5 -84.166 32.5 -137.499v-269c0 -8.66699 -2.83301 -15.834 -8.5 -21.501s-12.834 -8.5 -21.501 -8.5s-15.834 2.83301 -21.501 8.5s-8.5 12.834 -8.5 21.501v269c0 63.333 -17.833 111.666 -53.5 144.999
s-82.167 50 -139.5 50c-35.333 0 -67.5 -6.83301 -96.5 -20.5s-51.833 -32.667 -68.5 -57s-25 -51.166 -25 -80.499v-306c0 -8.66699 -2.66699 -15.834 -8 -21.501s-12.666 -8.5 -21.999 -8.5c-8.66699 0 -15.834 2.83301 -21.501 8.5s-8.5 12.834 -8.5 21.501v487
c0 9.33301 2.83301 16.666 8.5 21.999s12.834 8 21.501 8c9.33301 0 16.666 -2.66699 21.999 -8s8 -12.666 8 -21.999v-52c22.667 28 50.334 49.833 83.001 65.5s68.334 23.5 107.001 23.5c48.667 0 92.167 -10 130.5 -30zM393 639.499
c-14 6.33301 -29.002 14.832 -45.002 25.499c-13.333 9.33301 -24 15.5 -32 18.5s-16.333 4.5 -25 4.5c-27.333 0 -53 -13.667 -77 -41c-6 -8 -14.333 -12 -25 -12c-6.66699 0 -11.667 1.33301 -15 4c-10 6 -15 13.667 -15 23c0 6.66699 2 12.334 6 17.001
c18 21.333 37.833 37.833 59.5 49.5s43.834 17.5 66.501 17.5c17.333 0 32.5 -2.83301 45.5 -8.5s27.833 -13.834 44.5 -24.501c14 -9.33301 24.833 -15.833 32.5 -19.5s17.167 -5.5 28.5 -5.5c22.667 0 41 7.33301 55 22c8 9.33301 17.333 14 28 14
c4.66699 0 8.33398 -1 11.001 -3c12 -6 18 -14 18 -24c0 -5.33301 -2 -10.666 -6 -15.999c-26 -34 -61.333 -51 -106 -51c-18.667 0 -35 3.16699 -49 9.5z" />
    <glyph glyph-name="ograve" unicode="&#xf2;" 
d="M197 30.5c-42.667 24.333 -76.167 57.833 -100.5 100.5s-36.5 90 -36.5 142c0 52.667 12.167 100.334 36.5 143.001s57.833 76.167 100.5 100.5s90.334 36.5 143.001 36.5c52 0 99.333 -12.167 142 -36.5s76.167 -57.833 100.5 -100.5s36.5 -90.334 36.5 -143.001
c0 -52 -12.167 -99.333 -36.5 -142s-57.833 -76.167 -100.5 -100.5s-90 -36.5 -142 -36.5c-52.667 0 -100.334 12.167 -143.001 36.5zM452 79c33.333 19.333 59.5 46 78.5 80s28.5 72 28.5 114s-9.5 80 -28.5 114s-45.167 60.833 -78.5 80.5s-70.666 29.5 -111.999 29.5
s-78.666 -9.83301 -111.999 -29.5s-59.666 -46.5 -78.999 -80.5s-29 -72 -29 -114s9.66699 -80 29 -114s45.666 -60.667 78.999 -80s70.666 -29 111.999 -29s78.666 9.66699 111.999 29zM320 647l-122.999 123.001c-5.33301 5.33301 -8 12.333 -8 21s3 16 9 22
s13.333 9 22 9c8 0 15 -3 21 -9l123 -123c4.66699 -4.66699 7 -11.334 7 -20.001s-2.83301 -16 -8.5 -22s-12.834 -9 -21.501 -9c-6.66699 0 -13.667 2.66699 -21 8z" />
    <glyph glyph-name="oacute" unicode="&#xf3;" 
d="M197 30.5c-42.667 24.333 -76.167 57.833 -100.5 100.5s-36.5 90 -36.5 142c0 52.667 12.167 100.334 36.5 143.001s57.833 76.167 100.5 100.5s90.334 36.5 143.001 36.5c52 0 99.333 -12.167 142 -36.5s76.167 -57.833 100.5 -100.5s36.5 -90.334 36.5 -143.001
c0 -52 -12.167 -99.333 -36.5 -142s-57.833 -76.167 -100.5 -100.5s-90 -36.5 -142 -36.5c-52.667 0 -100.334 12.167 -143.001 36.5zM452 79c33.333 19.333 59.5 46 78.5 80s28.5 72 28.5 114s-9.5 80 -28.5 114s-45.167 60.833 -78.5 80.5s-70.666 29.5 -111.999 29.5
s-78.666 -9.83301 -111.999 -29.5s-59.666 -46.5 -78.999 -80.5s-29 -72 -29 -114s9.66699 -80 29 -114s45.666 -60.667 78.999 -80s70.666 -29 111.999 -29s78.666 9.66699 111.999 29zM303 637c-6 6 -9 13.333 -9 22c0 7.33301 2.33301 14 7 20l123 123c6 6 13.333 9 22 9
s16 -3 22 -9s9 -13.333 9 -22c0 -8 -3 -15 -9 -21l-123 -123c-5.33301 -5.33301 -12 -8 -20 -8c-8.66699 0 -16 3 -22 9z" />
    <glyph glyph-name="ocircumflex" unicode="&#xf4;" 
d="M197 30.5c-42.667 24.333 -76.167 57.833 -100.5 100.5s-36.5 90 -36.5 142c0 52.667 12.167 100.334 36.5 143.001s57.833 76.167 100.5 100.5s90.334 36.5 143.001 36.5c52 0 99.333 -12.167 142 -36.5s76.167 -57.833 100.5 -100.5s36.5 -90.334 36.5 -143.001
c0 -52 -12.167 -99.333 -36.5 -142s-57.833 -76.167 -100.5 -100.5s-90 -36.5 -142 -36.5c-52.667 0 -100.334 12.167 -143.001 36.5zM452 79c33.333 19.333 59.5 46 78.5 80s28.5 72 28.5 114s-9.5 80 -28.5 114s-45.167 60.833 -78.5 80.5s-70.666 29.5 -111.999 29.5
s-78.666 -9.83301 -111.999 -29.5s-59.666 -46.5 -78.999 -80.5s-29 -72 -29 -114s9.66699 -80 29 -114s45.666 -60.667 78.999 -80s70.666 -29 111.999 -29s78.666 9.66699 111.999 29zM197 656.5c-6 5.66699 -9 12.834 -9 21.501c0 11.333 5.33301 20.333 16 27l121 81
c5.33301 2.66699 10.333 4 15 4s9.66699 -1.33301 15 -4l121 -81c10.667 -6.66699 16 -15.667 16 -27c0 -8.66699 -3 -15.834 -9 -21.501s-13.333 -8.5 -22 -8.5c-6.66699 0 -13 2 -19 6l-102 68l-102 -68c-6 -4 -12 -6 -18 -6c-9.33301 0 -17 2.83301 -23 8.5z" />
    <glyph glyph-name="otilde" unicode="&#xf5;" 
d="M197 30.5c-42.667 24.333 -76.167 57.833 -100.5 100.5s-36.5 90 -36.5 142c0 52.667 12.167 100.334 36.5 143.001s57.833 76.167 100.5 100.5s90.334 36.5 143.001 36.5c52 0 99.333 -12.167 142 -36.5s76.167 -57.833 100.5 -100.5s36.5 -90.334 36.5 -143.001
c0 -52 -12.167 -99.333 -36.5 -142s-57.833 -76.167 -100.5 -100.5s-90 -36.5 -142 -36.5c-52.667 0 -100.334 12.167 -143.001 36.5zM452 79c33.333 19.333 59.5 46 78.5 80s28.5 72 28.5 114s-9.5 80 -28.5 114s-45.167 60.833 -78.5 80.5s-70.666 29.5 -111.999 29.5
s-78.666 -9.83301 -111.999 -29.5s-59.666 -46.5 -78.999 -80.5s-29 -72 -29 -114s9.66699 -80 29 -114s45.666 -60.667 78.999 -80s70.666 -29 111.999 -29s78.666 9.66699 111.999 29zM396 639.5c-14 6.33301 -29.002 14.832 -45.002 25.499
c-13.333 9.33301 -24 15.5 -32 18.5s-16.333 4.5 -25 4.5c-27.333 0 -53 -13.667 -77 -41c-6 -8 -14.333 -12 -25 -12c-6.66699 0 -11.667 1.33301 -15 4c-10 6 -15 13.667 -15 23c0 6.66699 2 12.334 6 17.001c18 21.333 37.833 37.833 59.5 49.5s43.834 17.5 66.501 17.5
c17.333 0 32.5 -2.83301 45.5 -8.5s27.833 -13.834 44.5 -24.501c14 -9.33301 24.833 -15.833 32.5 -19.5s17.167 -5.5 28.5 -5.5c22.667 0 41 7.33301 55 22c8 9.33301 17.333 14 28 14c4.66699 0 8.33398 -1 11.001 -3c12 -6 18 -14 18 -24
c0 -5.33301 -2 -10.666 -6 -15.999c-26 -34 -61.333 -51 -106 -51c-18.667 0 -35 3.16699 -49 9.5z" />
    <glyph glyph-name="odieresis" unicode="&#xf6;" 
d="M197 30.5c-42.667 24.333 -76.167 57.833 -100.5 100.5s-36.5 90 -36.5 142c0 52.667 12.167 100.334 36.5 143.001s57.833 76.167 100.5 100.5s90.334 36.5 143.001 36.5c52 0 99.333 -12.167 142 -36.5s76.167 -57.833 100.5 -100.5s36.5 -90.334 36.5 -143.001
c0 -52 -12.167 -99.333 -36.5 -142s-57.833 -76.167 -100.5 -100.5s-90 -36.5 -142 -36.5c-52.667 0 -100.334 12.167 -143.001 36.5zM452 79c33.333 19.333 59.5 46 78.5 80s28.5 72 28.5 114s-9.5 80 -28.5 114s-45.167 60.833 -78.5 80.5s-70.666 29.5 -111.999 29.5
s-78.666 -9.83301 -111.999 -29.5s-59.666 -46.5 -78.999 -80.5s-29 -72 -29 -114s9.66699 -80 29 -114s45.666 -60.667 78.999 -80s70.666 -29 111.999 -29s78.666 9.66699 111.999 29zM203 672c-10 10 -15 22.333 -15 37c0 14 5 26 15 36s22.333 15 37 15
s26.834 -5 36.501 -15s14.5 -22 14.5 -36c0 -14.667 -4.83301 -27 -14.5 -37s-21.834 -15 -36.501 -15s-27 5 -37 15zM403 672c-10 10 -15 22.333 -15 37c0 14 5 26 15 36s22.333 15 37 15s26.834 -5 36.501 -15s14.5 -22 14.5 -36c0 -14.667 -4.83301 -27 -14.5 -37
s-21.834 -15 -36.501 -15s-27 5 -37 15z" />
    <glyph glyph-name="divide" unicode="&#xf7;" horiz-adv-x="469" 
d="M204 477.5c-8 7.66699 -12 17.167 -12 28.5s4 21 12 29s17.667 12 29 12s20.833 -4 28.5 -12s11.5 -17.667 11.5 -29s-3.83301 -20.833 -11.5 -28.5s-17.167 -11.5 -28.5 -11.5s-21 3.83301 -29 11.5zM49.5 332.5c-5.66699 5.66699 -8.5 12.834 -8.5 21.501
s2.83301 16 8.5 22s12.834 9 21.501 9h324c8.66699 0 15.834 -3 21.501 -9s8.5 -13.333 8.5 -22s-2.83301 -15.834 -8.5 -21.501s-12.834 -8.5 -21.501 -8.5h-324c-8.66699 0 -15.834 2.83301 -21.501 8.5zM204 174c-8 8 -12 17.667 -12 29s4 20.833 12 28.5
s17.667 11.5 29 11.5s20.833 -3.83301 28.5 -11.5s11.5 -17.167 11.5 -28.5s-3.83301 -21 -11.5 -29s-17.167 -12 -28.5 -12s-21 4 -29 12z" />
    <glyph glyph-name="oslash" unicode="&#xf8;" horiz-adv-x="694" 
d="M634 273c0 -52 -12.168 -99.333 -36.501 -142s-57.833 -76.167 -100.5 -100.5s-90 -36.5 -142 -36.5c-34 0 -66.167 5.33301 -96.5 16s-57.833 25.667 -82.5 45l-63 -63c-6 -6 -13.333 -9 -22 -9s-16 3.16699 -22 9.5s-9 13.5 -9 21.5s3 15 9 21l64 63
c-38.667 50 -58 108.333 -58 175c0 52.667 12.167 100.334 36.5 143.001s57.833 76.167 100.5 100.5s90.334 36.5 143.001 36.5c34.667 0 67.167 -5.33301 97.5 -16s57.833 -26 82.5 -46l46 46c5.33301 6.66699 13 10 23 10c9.33301 0 16.5 -3.16699 21.5 -9.5
s7.5 -13.833 7.5 -22.5s-2.33301 -15.334 -7 -20.001l-49 -48c38 -49.333 57 -107.333 57 -174zM242.999 467.5c-33.333 -19.667 -59.668 -46.5 -79.001 -80.5s-29 -72 -29 -114c0 -52 15 -98.333 45 -139l315 314c-18.667 16 -40 28.167 -64 36.5s-49.333 12.5 -76 12.5
c-41.333 0 -78.666 -9.83301 -111.999 -29.5zM466.997 79c33.333 19.333 59.501 46 78.501 80s28.5 72 28.5 114c0 50 -13 93.667 -39 131l-312 -311c38 -28.667 82 -43 132 -43c41.333 0 78.666 9.66699 111.999 29z" />
    <glyph glyph-name="ugrave" unicode="&#xf9;" horiz-adv-x="673" 
d="M575 539c5.33301 -5.33301 8 -12.665 8 -21.998v-487c0 -8.66699 -2.66699 -15.834 -8 -21.501s-12.666 -8.5 -21.999 -8.5c-8.66699 0 -15.834 2.83301 -21.501 8.5s-8.5 12.834 -8.5 21.501v52c-22.667 -28 -50.334 -49.833 -83.001 -65.5
s-68.334 -23.5 -107.001 -23.5c-48.667 0 -92.167 10 -130.5 30s-68.333 49.167 -90 87.5s-32.5 84.166 -32.5 137.499v269c0 8.66699 2.83301 15.834 8.5 21.501s12.834 8.5 21.501 8.5s15.834 -2.83301 21.501 -8.5s8.5 -12.834 8.5 -21.501v-269
c0 -63.333 17.833 -111.666 53.5 -144.999s82.167 -50 139.5 -50c35.333 0 67.5 6.83301 96.5 20.5s51.833 32.667 68.5 57s25 51.166 25 80.499v306c0 9.33301 2.83301 16.666 8.5 21.999s12.834 8 21.501 8c9.33301 0 16.666 -2.66699 21.999 -8zM317 647.001
l-122.999 123.001c-5.33301 5.33301 -8 12.333 -8 21s3 16 9 22s13.333 9 22 9c8 0 15 -3 21 -9l123 -123c4.66699 -4.66699 7 -11.334 7 -20.001s-2.83301 -16 -8.5 -22s-12.834 -9 -21.501 -9c-6.66699 0 -13.667 2.66699 -21 8z" />
    <glyph glyph-name="uacute" unicode="&#xfa;" horiz-adv-x="673" 
d="M575 539c5.33301 -5.33301 8 -12.665 8 -21.998v-487c0 -8.66699 -2.66699 -15.834 -8 -21.501s-12.666 -8.5 -21.999 -8.5c-8.66699 0 -15.834 2.83301 -21.501 8.5s-8.5 12.834 -8.5 21.501v52c-22.667 -28 -50.334 -49.833 -83.001 -65.5
s-68.334 -23.5 -107.001 -23.5c-48.667 0 -92.167 10 -130.5 30s-68.333 49.167 -90 87.5s-32.5 84.166 -32.5 137.499v269c0 8.66699 2.83301 15.834 8.5 21.501s12.834 8.5 21.501 8.5s15.834 -2.83301 21.501 -8.5s8.5 -12.834 8.5 -21.501v-269
c0 -63.333 17.833 -111.666 53.5 -144.999s82.167 -50 139.5 -50c35.333 0 67.5 6.83301 96.5 20.5s51.833 32.667 68.5 57s25 51.166 25 80.499v306c0 9.33301 2.83301 16.666 8.5 21.999s12.834 8 21.501 8c9.33301 0 16.666 -2.66699 21.999 -8zM300 637.001
c-6 6 -9 13.333 -9 22c0 7.33301 2.33301 14 7 20l123 123c6 6 13.333 9 22 9s16 -3 22 -9s9 -13.333 9 -22c0 -8 -3 -15 -9 -21l-123 -123c-5.33301 -5.33301 -12 -8 -20 -8c-8.66699 0 -16 3 -22 9z" />
    <glyph glyph-name="ucircumflex" unicode="&#xfb;" horiz-adv-x="673" 
d="M575 539c5.33301 -5.33301 8 -12.665 8 -21.998v-487c0 -8.66699 -2.66699 -15.834 -8 -21.501s-12.666 -8.5 -21.999 -8.5c-8.66699 0 -15.834 2.83301 -21.501 8.5s-8.5 12.834 -8.5 21.501v52c-22.667 -28 -50.334 -49.833 -83.001 -65.5
s-68.334 -23.5 -107.001 -23.5c-48.667 0 -92.167 10 -130.5 30s-68.333 49.167 -90 87.5s-32.5 84.166 -32.5 137.499v269c0 8.66699 2.83301 15.834 8.5 21.501s12.834 8.5 21.501 8.5s15.834 -2.83301 21.501 -8.5s8.5 -12.834 8.5 -21.501v-269
c0 -63.333 17.833 -111.666 53.5 -144.999s82.167 -50 139.5 -50c35.333 0 67.5 6.83301 96.5 20.5s51.833 32.667 68.5 57s25 51.166 25 80.499v306c0 9.33301 2.83301 16.666 8.5 21.999s12.834 8 21.501 8c9.33301 0 16.666 -2.66699 21.999 -8zM194 656.501
c-6 5.66699 -9 12.834 -9 21.501c0 11.333 5.33301 20.333 16 27l121 81c5.33301 2.66699 10.333 4 15 4s9.66699 -1.33301 15 -4l121 -81c10.667 -6.66699 16 -15.667 16 -27c0 -8.66699 -3 -15.834 -9 -21.501s-13.333 -8.5 -22 -8.5c-6.66699 0 -13 2 -19 6l-102 68
l-102 -68c-6 -4 -12 -6 -18 -6c-9.33301 0 -17 2.83301 -23 8.5z" />
    <glyph glyph-name="udieresis" unicode="&#xfc;" horiz-adv-x="673" 
d="M575 539c5.33301 -5.33301 8 -12.665 8 -21.998v-487c0 -8.66699 -2.66699 -15.834 -8 -21.501s-12.666 -8.5 -21.999 -8.5c-8.66699 0 -15.834 2.83301 -21.501 8.5s-8.5 12.834 -8.5 21.501v52c-22.667 -28 -50.334 -49.833 -83.001 -65.5
s-68.334 -23.5 -107.001 -23.5c-48.667 0 -92.167 10 -130.5 30s-68.333 49.167 -90 87.5s-32.5 84.166 -32.5 137.499v269c0 8.66699 2.83301 15.834 8.5 21.501s12.834 8.5 21.501 8.5s15.834 -2.83301 21.501 -8.5s8.5 -12.834 8.5 -21.501v-269
c0 -63.333 17.833 -111.666 53.5 -144.999s82.167 -50 139.5 -50c35.333 0 67.5 6.83301 96.5 20.5s51.833 32.667 68.5 57s25 51.166 25 80.499v306c0 9.33301 2.83301 16.666 8.5 21.999s12.834 8 21.501 8c9.33301 0 16.666 -2.66699 21.999 -8zM200 672.001
c-10 10 -15 22.333 -15 37c0 14 5 26 15 36s22.333 15 37 15s26.834 -5 36.501 -15s14.5 -22 14.5 -36c0 -14.667 -4.83301 -27 -14.5 -37s-21.834 -15 -36.501 -15s-27 5 -37 15zM400 672.001c-10 10 -15 22.333 -15 37c0 14 5 26 15 36s22.333 15 37 15
s26.834 -5 36.501 -15s14.5 -22 14.5 -36c0 -14.667 -4.83301 -27 -14.5 -37s-21.834 -15 -36.501 -15s-27 5 -37 15z" />
    <glyph glyph-name="yacute" unicode="&#xfd;" horiz-adv-x="554" 
d="M544 523c0 -2.66699 -1.33301 -7.33301 -4 -14l-336 -728c-6 -12 -13.667 -18 -23 -18c-4 0 -8.66699 1 -14 3c-12.667 5.33301 -19 13 -19 23c0 2.66699 1.33301 7.33398 4 14.001l100 216c-0.666992 0.666992 -2 3 -4 7l-219 480c-2.66699 5.33301 -4 10.666 -4 15.999
c0 10 5.66699 17.667 17 23c5.33301 2.66699 10.666 4 15.999 4c10 0 17.667 -5.66699 23 -17l203 -444l204 443c6 12 13.667 18 23 18c4.66699 0 9.33398 -1 14.001 -3c12.667 -5.33301 19 -13 19 -23zM248 637.001c-6 6 -9 13.333 -9 22c0 7.33301 2.33301 14 7 20
l123 123c6 6 13.333 9 22 9s16 -3 22 -9s9 -13.333 9 -22c0 -8 -3 -15 -9 -21l-123 -123c-5.33301 -5.33301 -12 -8 -20 -8c-8.66699 0 -16 3 -22 9z" />
    <glyph glyph-name="thorn" unicode="&#xfe;" horiz-adv-x="709" 
d="M514 517.5c42.667 -23.667 75.832 -56.833 99.499 -99.5s35.5 -91 35.5 -145s-12 -102.167 -36 -144.5s-57.167 -75.333 -99.5 -99s-90.5 -35.5 -144.5 -35.5c-50 0 -94.167 11.333 -132.5 34s-67.166 53.667 -86.499 93v-325c0 -9.33301 -2.66699 -16.666 -8 -21.999
s-12.666 -8 -21.999 -8c-8.66699 0 -15.834 2.66699 -21.501 8s-8.5 12.666 -8.5 21.999v955c0 9.33301 2.83301 16.666 8.5 21.999s12.834 8 21.501 8c9.33301 0 16.666 -2.66699 21.999 -8s8 -12.666 8 -21.999v-325c20 42 50 73.667 90 95s83 32 129 32
c54 0 102.333 -11.833 145 -35.5zM482.998 78.501c33.333 19 59.333 45.333 78 79s28 72.167 28 115.5s-9.33301 82 -28 116s-44.667 60.5 -78 79.5s-71.333 28.5 -114 28.5c-42 0 -79.667 -9.5 -113 -28.5s-59.333 -45.5 -78 -79.5s-28 -72.667 -28 -116
s9.33301 -81.833 28 -115.5s44.667 -60 78 -79s71 -28.5 113 -28.5c42.667 0 80.667 9.5 114 28.5z" />
    <glyph glyph-name="ydieresis" unicode="&#xff;" horiz-adv-x="554" 
d="M544 523c0 -2.66699 -1.33301 -7.33301 -4 -14l-336 -728c-6 -12 -13.667 -18 -23 -18c-4 0 -8.66699 1 -14 3c-12.667 5.33301 -19 13 -19 23c0 2.66699 1.33301 7.33398 4 14.001l100 216c-0.666992 0.666992 -2 3 -4 7l-219 480c-2.66699 5.33301 -4 10.666 -4 15.999
c0 10 5.66699 17.667 17 23c5.33301 2.66699 10.666 4 15.999 4c10 0 17.667 -5.66699 23 -17l203 -444l204 443c6 12 13.667 18 23 18c4.66699 0 9.33398 -1 14.001 -3c12.667 -5.33301 19 -13 19 -23zM148 672.001c-10 10 -15 22.333 -15 37c0 14 5 26 15 36
s22.333 15 37 15s26.834 -5 36.501 -15s14.5 -22 14.5 -36c0 -14.667 -4.83301 -27 -14.5 -37s-21.834 -15 -36.501 -15s-27 5 -37 15zM348 672.001c-10 10 -15 22.333 -15 37c0 14 5 26 15 36s22.333 15 37 15s26.834 -5 36.501 -15s14.5 -22 14.5 -36
c0 -14.667 -4.83301 -27 -14.5 -37s-21.834 -15 -36.501 -15s-27 5 -37 15z" />
    <glyph glyph-name="Amacron" unicode="&#x100;" horiz-adv-x="703" 
d="M690 30c0 -8 -3.00195 -15 -9.00195 -21s-13 -9 -21 -9c-13.333 -0 -22.666 6.33301 -27.999 19l-74 177h-407l-74 -177c-4.66699 -12.667 -14 -19 -28 -19c-9.33301 0 -16.666 3 -21.999 9s-8 13 -8 21c0 4.66699 1 9 3 13l303 717c5.33301 14 15 21 29 21
c13.333 0 23 -7 29 -21l304 -717c2 -4 3 -8.33301 3 -13zM534.998 250l-181 432l-180 -432h361zM197.498 903.5c-5.66699 5.66699 -8.5 12.834 -8.5 21.501s2.83301 16 8.5 22s12.834 9 21.501 9h265c8.66699 0 15.834 -3 21.501 -9s8.5 -13.333 8.5 -22
s-2.83301 -15.834 -8.5 -21.501s-12.834 -8.5 -21.501 -8.5h-265c-8.66699 0 -15.834 2.83301 -21.501 8.5z" />
    <glyph glyph-name="amacron" unicode="&#x101;" 
d="M482 516.5c42.667 -24.333 76.166 -57.834 100.499 -100.501s36.5 -90.334 36.5 -143.001v-243c0 -8.66699 -2.66699 -15.834 -8 -21.501s-12.666 -8.5 -21.999 -8.5c-8.66699 0 -15.834 2.83301 -21.501 8.5s-8.5 12.834 -8.5 21.501v78
c-22 -35.333 -52.167 -63.166 -90.5 -83.499s-81.166 -30.5 -128.499 -30.5c-52.667 0 -100.334 12.167 -143.001 36.5s-76.167 57.833 -100.5 100.5s-36.5 90 -36.5 142c0 52.667 12.167 100.334 36.5 143.001s57.833 76.167 100.5 100.5s90.334 36.5 143.001 36.5
c52 0 99.333 -12.167 142 -36.5zM451.999 78.999c33.333 19.333 59.5 46 78.5 80s28.5 72 28.5 114s-9.5 80 -28.5 114s-45.167 60.833 -78.5 80.5s-70.666 29.5 -111.999 29.5s-78.666 -9.83301 -111.999 -29.5s-59.666 -46.5 -78.999 -80.5s-29 -72 -29 -114
s9.66699 -80 29 -114s45.666 -60.667 78.999 -80s70.666 -29 111.999 -29s78.666 9.66699 111.999 29zM185.499 669.499c-5.66699 5.66699 -8.5 12.834 -8.5 21.501s2.83301 16 8.5 22s12.834 9 21.501 9h265c8.66699 0 15.834 -3 21.501 -9s8.5 -13.333 8.5 -22
s-2.83301 -15.834 -8.5 -21.501s-12.834 -8.5 -21.501 -8.5h-265c-8.66699 0 -15.834 2.83301 -21.501 8.5z" />
    <glyph glyph-name="Abreve" unicode="&#x102;" horiz-adv-x="703" 
d="M690 30c0 -8 -3.00195 -15 -9.00195 -21s-13 -9 -21 -9c-13.333 -0 -22.666 6.33301 -27.999 19l-74 177h-407l-74 -177c-4.66699 -12.667 -14 -19 -28 -19c-9.33301 0 -16.666 3 -21.999 9s-8 13 -8 21c0 4.66699 1 9 3 13l303 717c5.33301 14 15 21 29 21
c13.333 0 23 -7 29 -21l304 -717c2 -4 3 -8.33301 3 -13zM534.998 250l-181 432l-180 -432h361zM274.998 897c-23.333 10 -41.8359 23.5 -55.5029 40.5s-20.5 35.5 -20.5 55.5c0 8.66699 3 16 9 22s13.333 9 22 9s15.834 -3 21.501 -9s8.5 -13.333 8.5 -22
c0 -16 8.16699 -29.5 24.5 -40.5s38.5 -16.5 66.5 -16.5s50.333 5.5 67 16.5s25 24.5 25 40.5c0 8.66699 2.83301 16 8.5 22s12.834 9 21.501 9c8 0 15 -3 21 -9s9.33301 -13 10 -21c-2.66699 -33.333 -18.667 -60.333 -48 -81s-64.333 -31 -105 -31
c-27.333 0 -52.666 5 -75.999 15z" />
    <glyph glyph-name="abreve" unicode="&#x103;" 
d="M482 516.5c42.667 -24.333 76.166 -57.834 100.499 -100.501s36.5 -90.334 36.5 -143.001v-243c0 -8.66699 -2.66699 -15.834 -8 -21.501s-12.666 -8.5 -21.999 -8.5c-8.66699 0 -15.834 2.83301 -21.501 8.5s-8.5 12.834 -8.5 21.501v78
c-22 -35.333 -52.167 -63.166 -90.5 -83.499s-81.166 -30.5 -128.499 -30.5c-52.667 0 -100.334 12.167 -143.001 36.5s-76.167 57.833 -100.5 100.5s-36.5 90 -36.5 142c0 52.667 12.167 100.334 36.5 143.001s57.833 76.167 100.5 100.5s90.334 36.5 143.001 36.5
c52 0 99.333 -12.167 142 -36.5zM451.999 78.999c33.333 19.333 59.5 46 78.5 80s28.5 72 28.5 114s-9.5 80 -28.5 114s-45.167 60.833 -78.5 80.5s-70.666 29.5 -111.999 29.5s-78.666 -9.83301 -111.999 -29.5s-59.666 -46.5 -78.999 -80.5s-29 -72 -29 -114
s9.66699 -80 29 -114s45.666 -60.667 78.999 -80s70.666 -29 111.999 -29s78.666 9.66699 111.999 29zM262.999 662.999c-23.333 10 -41.8359 23.5 -55.5029 40.5s-20.5 35.5 -20.5 55.5c0 8.66699 3 16 9 22s13.333 9 22 9s15.834 -3 21.501 -9s8.5 -13.333 8.5 -22
c0 -16 8.16699 -29.5 24.5 -40.5s38.5 -16.5 66.5 -16.5s50.333 5.5 67 16.5s25 24.5 25 40.5c0 8.66699 2.83301 16 8.5 22s12.834 9 21.501 9c8 0 15 -3 21 -9s9.33301 -13 10 -21c-2.66699 -33.333 -18.667 -60.333 -48 -81s-64.333 -31 -105 -31
c-27.333 0 -52.666 5 -75.999 15z" />
    <glyph glyph-name="Aogonek" unicode="&#x104;" horiz-adv-x="703" 
d="M761 -140c6 -6 8.99805 -13.335 8.99805 -22.002c0 -10 -3.33301 -17.667 -10 -23l-41 -28c-18.667 -12.667 -39 -19 -61 -19c-30 0 -56 10.833 -78 32.5s-33 47.834 -33 78.501c0 35.333 15.667 65.666 47 90.999c20.667 16.667 33.334 31.334 38.001 44.001l1 2l-1 3
l-74 177h-407l-74 -177c-4.66699 -12.667 -14 -19 -28 -19c-9.33301 0 -16.666 3 -21.999 9s-8 13 -8 21c0 4.66699 1 9 3 13l303 717c5.33301 14 15 21 29 21c13.333 0 23 -7 29 -21l304 -717c2 -4 3 -8.33301 3 -13c0 -5.33301 -1.66699 -10.666 -5 -15.999
c2.66699 -3.33301 4 -8 4 -14c0 -12.667 -5 -25.5 -15 -38.5s-25 -26.833 -45 -41.5c-14 -11.333 -21 -25 -21 -41c0 -14 4.83301 -25.833 14.5 -35.5s21.5 -14.5 35.5 -14.5c10.667 0 20 2.66699 28 8l35 26c6 4 12 6 18 6c8.66699 0 16 -3 22 -9zM534.998 249.998
l-181 432l-180 -432h361z" />
    <glyph glyph-name="aogonek" unicode="&#x105;" 
d="M714 -159c6 -6 8.99902 -13.334 8.99902 -22.001c0 -10 -3.33301 -17.667 -10 -23l-41 -28c-18.667 -12.667 -39 -19 -61 -19c-30 0 -56 10.833 -78 32.5s-33 47.834 -33 78.501c0 35.333 15.667 65.666 47 90.999c20.667 16.667 33.334 31.334 38.001 44.001l3 5
c-8.66699 -0 -15.667 2.83301 -21 8.5s-8 12.834 -8 21.501v78c-22 -35.333 -52.167 -63.166 -90.5 -83.499s-81.166 -30.5 -128.499 -30.5c-52.667 0 -100.334 12.167 -143.001 36.5s-76.167 57.833 -100.5 100.5s-36.5 90 -36.5 142c0 52.667 12.167 100.334 36.5 143.001
s57.833 76.167 100.5 100.5s90.334 36.5 143.001 36.5c52 0 99.333 -12.167 142 -36.5s76.167 -57.833 100.5 -100.5s36.5 -90.334 36.5 -143.001v-243c0 -8.66699 -2.33301 -15.334 -7 -20.001c9.33301 -0.666992 16.666 -3.5 21.999 -8.5s8 -11.833 8 -20.5
c0 -12.667 -5 -25.5 -15 -38.5s-25 -26.833 -45 -41.5c-14 -10.667 -21 -24.334 -21 -41.001c0 -14 4.83301 -25.833 14.5 -35.5s21.5 -14.5 35.5 -14.5c10.667 0 20 2.66699 28 8l35 26c6 4 12 6 18 6c8.66699 0 16 -3 22 -9zM451.999 78.999
c33.333 19.333 59.5 46 78.5 80s28.5 72 28.5 114s-9.5 80 -28.5 114s-45.167 60.833 -78.5 80.5s-70.666 29.5 -111.999 29.5s-78.666 -9.83301 -111.999 -29.5s-59.666 -46.5 -78.999 -80.5s-29 -72 -29 -114s9.66699 -80 29 -114s45.666 -60.667 78.999 -80
s70.666 -29 111.999 -29s78.666 9.66699 111.999 29z" />
    <glyph glyph-name="Cacute" unicode="&#x106;" horiz-adv-x="767" 
d="M256 44.5c-60 36.333 -107.668 85.333 -143.001 147s-53 128.167 -53 199.5s17.5 137.666 52.5 198.999s82.333 110.166 142 146.499s125.167 54.5 196.5 54.5c93.333 0 175.666 -29.667 246.999 -89c6 -4.66699 9 -11.334 9 -20.001c0 -8 -2.66699 -15.167 -8 -21.5
s-12.666 -9.5 -21.999 -9.5c-7.33301 0 -15.666 4 -24.999 12c-50.667 45.333 -117.667 68 -201 68c-58.667 0 -113.5 -15.667 -164.5 -47s-91.5 -73.166 -121.5 -125.499s-45 -108.166 -45 -167.499c0 -61.333 14.833 -118.166 44.5 -170.499s70 -93.833 121 -124.5
s106.167 -46 165.5 -46c78.667 0 147.667 24.333 207 73c4.66699 3.33301 9.66699 5 15 5c8 0 15.167 -3 21.5 -9s9.5 -13.333 9.5 -22s-2.33301 -15.667 -7 -21c-57.333 -57.333 -139.333 -86 -246 -86c-70 0 -135 18.167 -195 54.5zM406.999 871c-6 6 -9 13.333 -9 22
c0 7.33301 2.33301 14 7 20l123 123c6 6 13.333 9 22 9s16 -3 22 -9s9 -13.333 9 -22c0 -8 -3 -15 -9 -21l-123 -123c-5.33301 -5.33301 -12 -8 -20 -8c-8.66699 0 -16 3 -22 9z" />
    <glyph glyph-name="cacute" unicode="&#x107;" horiz-adv-x="593" 
d="M193 30.5c-41.333 24.333 -73.8359 57.835 -97.5029 100.502s-35.5 90 -35.5 142c0 52.667 11 100.167 33 142.5s52.667 75.666 92 99.999s83.333 36.5 132 36.5c42.667 0 81.667 -8.33301 117 -25s66 -41.334 92 -74.001c4.66699 -6.66699 7 -12.334 7 -17.001
c0 -9.33301 -4.66699 -16.666 -14 -21.999c-4.66699 -4 -10 -6 -16 -6c-9.33301 0 -17 4 -23 12c-42.667 50.667 -97 76 -163 76c-38.667 0 -73 -9.5 -103 -28.5s-53.167 -45.5 -69.5 -79.5s-24.5 -72.333 -24.5 -115c0 -42 9 -80 27 -114s43 -60.667 75 -80
s68.667 -29 110 -29c58.667 0 105.667 16.333 141 49c6 6 13 9 21 9c7.33301 0 13.333 -2.33301 18 -7c6.66699 -6 10 -13.333 10 -22c0 -7.33301 -2.66699 -13.333 -8 -18c-23.333 -21.333 -50.666 -37.833 -81.999 -49.5s-64.666 -17.5 -99.999 -17.5
c-51.333 0 -97.666 12.167 -138.999 36.5zM280.997 637.002c-6 6 -9 13.333 -9 22c0 7.33301 2.33301 14 7 20l123 123c6 6 13.333 9 22 9s16 -3 22 -9s9 -13.333 9 -22c0 -8 -3 -15 -9 -21l-123 -123c-5.33301 -5.33301 -12 -8 -20 -8c-8.66699 0 -16 3 -22 9z" />
    <glyph glyph-name="Ccircumflex" unicode="&#x108;" horiz-adv-x="767" 
d="M256 44.5c-60 36.333 -107.668 85.333 -143.001 147s-53 128.167 -53 199.5s17.5 137.666 52.5 198.999s82.333 110.166 142 146.499s125.167 54.5 196.5 54.5c93.333 0 175.666 -29.667 246.999 -89c6 -4.66699 9 -11.334 9 -20.001c0 -8 -2.66699 -15.167 -8 -21.5
s-12.666 -9.5 -21.999 -9.5c-7.33301 0 -15.666 4 -24.999 12c-50.667 45.333 -117.667 68 -201 68c-58.667 0 -113.5 -15.667 -164.5 -47s-91.5 -73.166 -121.5 -125.499s-45 -108.166 -45 -167.499c0 -61.333 14.833 -118.166 44.5 -170.499s70 -93.833 121 -124.5
s106.167 -46 165.5 -46c78.667 0 147.667 24.333 207 73c4.66699 3.33301 9.66699 5 15 5c8 0 15.167 -3 21.5 -9s9.5 -13.333 9.5 -22s-2.33301 -15.667 -7 -21c-57.333 -57.333 -139.333 -86 -246 -86c-70 0 -135 18.167 -195 54.5zM300.999 890.5
c-6 5.66699 -9 12.834 -9 21.501c0 11.333 5.33301 20.333 16 27l121 81c5.33301 2.66699 10.333 4 15 4s9.66699 -1.33301 15 -4l121 -81c10.667 -6.66699 16 -15.667 16 -27c0 -8.66699 -3 -15.834 -9 -21.501s-13.333 -8.5 -22 -8.5c-6.66699 0 -13 2 -19 6l-102 68
l-102 -68c-6 -4 -12 -6 -18 -6c-9.33301 0 -17 2.83301 -23 8.5z" />
    <glyph glyph-name="ccircumflex" unicode="&#x109;" horiz-adv-x="593" 
d="M193 30.5c-41.333 24.333 -73.8359 57.835 -97.5029 100.502s-35.5 90 -35.5 142c0 52.667 11 100.167 33 142.5s52.667 75.666 92 99.999s83.333 36.5 132 36.5c42.667 0 81.667 -8.33301 117 -25s66 -41.334 92 -74.001c4.66699 -6.66699 7 -12.334 7 -17.001
c0 -9.33301 -4.66699 -16.666 -14 -21.999c-4.66699 -4 -10 -6 -16 -6c-9.33301 0 -17 4 -23 12c-42.667 50.667 -97 76 -163 76c-38.667 0 -73 -9.5 -103 -28.5s-53.167 -45.5 -69.5 -79.5s-24.5 -72.333 -24.5 -115c0 -42 9 -80 27 -114s43 -60.667 75 -80
s68.667 -29 110 -29c58.667 0 105.667 16.333 141 49c6 6 13 9 21 9c7.33301 0 13.333 -2.33301 18 -7c6.66699 -6 10 -13.333 10 -22c0 -7.33301 -2.66699 -13.333 -8 -18c-23.333 -21.333 -50.666 -37.833 -81.999 -49.5s-64.666 -17.5 -99.999 -17.5
c-51.333 0 -97.666 12.167 -138.999 36.5zM174.997 656.502c-6 5.66699 -9 12.834 -9 21.501c0 11.333 5.33301 20.333 16 27l121 81c5.33301 2.66699 10.333 4 15 4s9.66699 -1.33301 15 -4l121 -81c10.667 -6.66699 16 -15.667 16 -27c0 -8.66699 -3 -15.834 -9 -21.501
s-13.333 -8.5 -22 -8.5c-6.66699 0 -13 2 -19 6l-102 68l-102 -68c-6 -4 -12 -6 -18 -6c-9.33301 0 -17 2.83301 -23 8.5z" />
    <glyph glyph-name="Cdotaccent" unicode="&#x10a;" horiz-adv-x="767" 
d="M256 44.5c-60 36.333 -107.668 85.333 -143.001 147s-53 128.167 -53 199.5s17.5 137.666 52.5 198.999s82.333 110.166 142 146.499s125.167 54.5 196.5 54.5c93.333 0 175.666 -29.667 246.999 -89c6 -4.66699 9 -11.334 9 -20.001c0 -8 -2.66699 -15.167 -8 -21.5
s-12.666 -9.5 -21.999 -9.5c-7.33301 0 -15.666 4 -24.999 12c-50.667 45.333 -117.667 68 -201 68c-58.667 0 -113.5 -15.667 -164.5 -47s-91.5 -73.166 -121.5 -125.499s-45 -108.166 -45 -167.499c0 -61.333 14.833 -118.166 44.5 -170.499s70 -93.833 121 -124.5
s106.167 -46 165.5 -46c78.667 0 147.667 24.333 207 73c4.66699 3.33301 9.66699 5 15 5c8 0 15.167 -3 21.5 -9s9.5 -13.333 9.5 -22s-2.33301 -15.667 -7 -21c-57.333 -57.333 -139.333 -86 -246 -86c-70 0 -135 18.167 -195 54.5zM409.999 909.5
c-8.66699 9 -13 20.167 -13 33.5c0 14.667 4.66699 26 14 34s20.333 12 33 12s23.5 -4 32.5 -12s13.5 -19.333 13.5 -34c0 -13.333 -4.5 -24.5 -13.5 -33.5s-20.167 -13.5 -33.5 -13.5s-24.333 4.5 -33 13.5z" />
    <glyph glyph-name="cdotaccent" unicode="&#x10b;" horiz-adv-x="593" 
d="M193 30.5c-41.333 24.333 -73.8359 57.835 -97.5029 100.502s-35.5 90 -35.5 142c0 52.667 11 100.167 33 142.5s52.667 75.666 92 99.999s83.333 36.5 132 36.5c42.667 0 81.667 -8.33301 117 -25s66 -41.334 92 -74.001c4.66699 -6.66699 7 -12.334 7 -17.001
c0 -9.33301 -4.66699 -16.666 -14 -21.999c-4.66699 -4 -10 -6 -16 -6c-9.33301 0 -17 4 -23 12c-42.667 50.667 -97 76 -163 76c-38.667 0 -73 -9.5 -103 -28.5s-53.167 -45.5 -69.5 -79.5s-24.5 -72.333 -24.5 -115c0 -42 9 -80 27 -114s43 -60.667 75 -80
s68.667 -29 110 -29c58.667 0 105.667 16.333 141 49c6 6 13 9 21 9c7.33301 0 13.333 -2.33301 18 -7c6.66699 -6 10 -13.333 10 -22c0 -7.33301 -2.66699 -13.333 -8 -18c-23.333 -21.333 -50.666 -37.833 -81.999 -49.5s-64.666 -17.5 -99.999 -17.5
c-51.333 0 -97.666 12.167 -138.999 36.5zM283.997 675.502c-8.66699 9 -13 20.167 -13 33.5c0 14.667 4.66699 26 14 34s20.333 12 33 12s23.5 -4 32.5 -12s13.5 -19.333 13.5 -34c0 -13.333 -4.5 -24.5 -13.5 -33.5s-20.167 -13.5 -33.5 -13.5s-24.333 4.5 -33 13.5z" />
    <glyph glyph-name="Ccaron" unicode="&#x10c;" horiz-adv-x="767" 
d="M256 44.5c-60 36.333 -107.668 85.333 -143.001 147s-53 128.167 -53 199.5s17.5 137.666 52.5 198.999s82.333 110.166 142 146.499s125.167 54.5 196.5 54.5c93.333 0 175.666 -29.667 246.999 -89c6 -4.66699 9 -11.334 9 -20.001c0 -8 -2.66699 -15.167 -8 -21.5
s-12.666 -9.5 -21.999 -9.5c-7.33301 0 -15.666 4 -24.999 12c-50.667 45.333 -117.667 68 -201 68c-58.667 0 -113.5 -15.667 -164.5 -47s-91.5 -73.166 -121.5 -125.499s-45 -108.166 -45 -167.499c0 -61.333 14.833 -118.166 44.5 -170.499s70 -93.833 121 -124.5
s106.167 -46 165.5 -46c78.667 0 147.667 24.333 207 73c4.66699 3.33301 9.66699 5 15 5c8 0 15.167 -3 21.5 -9s9.5 -13.333 9.5 -22s-2.33301 -15.667 -7 -21c-57.333 -57.333 -139.333 -86 -246 -86c-70 0 -135 18.167 -195 54.5zM428.999 886l-121 80
c-10.667 6.66699 -16 15.667 -16 27c0 8 2.5 14.5 7.5 19.5s11.167 7.5 18.5 7.5c8 0 16 -2.66699 24 -8l102 -70l102 68c8.66699 6 17 9 25 9c7.33301 0 13.333 -2.5 18 -7.5s7 -11.167 7 -18.5c0 -10 -5.33301 -19 -16 -27l-121 -80c-3.33301 -2.66699 -8.33301 -4 -15 -4
s-11.667 1.33301 -15 4z" />
    <glyph glyph-name="ccaron" unicode="&#x10d;" horiz-adv-x="593" 
d="M193 30.5c-41.333 24.333 -73.8359 57.835 -97.5029 100.502s-35.5 90 -35.5 142c0 52.667 11 100.167 33 142.5s52.667 75.666 92 99.999s83.333 36.5 132 36.5c42.667 0 81.667 -8.33301 117 -25s66 -41.334 92 -74.001c4.66699 -6.66699 7 -12.334 7 -17.001
c0 -9.33301 -4.66699 -16.666 -14 -21.999c-4.66699 -4 -10 -6 -16 -6c-9.33301 0 -17 4 -23 12c-42.667 50.667 -97 76 -163 76c-38.667 0 -73 -9.5 -103 -28.5s-53.167 -45.5 -69.5 -79.5s-24.5 -72.333 -24.5 -115c0 -42 9 -80 27 -114s43 -60.667 75 -80
s68.667 -29 110 -29c58.667 0 105.667 16.333 141 49c6 6 13 9 21 9c7.33301 0 13.333 -2.33301 18 -7c6.66699 -6 10 -13.333 10 -22c0 -7.33301 -2.66699 -13.333 -8 -18c-23.333 -21.333 -50.666 -37.833 -81.999 -49.5s-64.666 -17.5 -99.999 -17.5
c-51.333 0 -97.666 12.167 -138.999 36.5zM302.997 652.002l-121 80c-10.667 6.66699 -16 15.667 -16 27c0 8 2.5 14.5 7.5 19.5s11.167 7.5 18.5 7.5c8 0 16 -2.66699 24 -8l102 -70l102 68c8.66699 6 17 9 25 9c7.33301 0 13.333 -2.5 18 -7.5s7 -11.167 7 -18.5
c0 -10 -5.33301 -19 -16 -27l-121 -80c-3.33301 -2.66699 -8.33301 -4 -15 -4s-11.667 1.33301 -15 4z" />
    <glyph glyph-name="Dcaron" unicode="&#x10e;" horiz-adv-x="761" 
d="M108.5 8.5c-5.66699 5.66699 -8.5 12.832 -8.5 21.499v721c0 9.33301 2.83301 16.666 8.5 21.999s12.834 8 21.501 8h180c75.333 0 142.666 -16.667 201.999 -50s105.666 -79.5 138.999 -138.5s50 -126.167 50 -201.5s-16.667 -142.666 -50 -201.999
s-79.666 -105.666 -138.999 -138.999s-126.666 -50 -201.999 -50h-180c-8.66699 -0 -15.834 2.83301 -21.501 8.5zM310 53.998c64 0 121 14.5 171 43.5s89.167 69.167 117.5 120.5s42.5 109 42.5 173s-14.167 121.5 -42.5 172.5s-67.5 91 -117.5 120s-107 43.5 -171 43.5
h-150v-673h150zM366 885.998l-121 80c-10.667 6.66699 -16 15.667 -16 27c0 8 2.5 14.5 7.5 19.5s11.167 7.5 18.5 7.5c8 0 16 -2.66699 24 -8l102 -70l102 68c8.66699 6 17 9 25 9c7.33301 0 13.333 -2.5 18 -7.5s7 -11.167 7 -18.5c0 -10 -5.33301 -19 -16 -27l-121 -80
c-3.33301 -2.66699 -8.33301 -4 -15 -4s-11.667 1.33301 -15 4z" />
    <glyph glyph-name="dcaron" unicode="&#x10f;" horiz-adv-x="780" 
d="M611 773c5.33301 -5.33301 8.00098 -12.668 8.00098 -22.001v-481v-2c-0.666992 -51.333 -13.334 -98 -38.001 -140s-58.167 -74.833 -100.5 -98.5s-89.166 -35.5 -140.499 -35.5c-52.667 0 -100.334 12.167 -143.001 36.5s-76.167 57.833 -100.5 100.5
s-36.5 90.334 -36.5 143.001c0 52 12.167 99.333 36.5 142s57.833 76.167 100.5 100.5s90.334 36.5 143.001 36.5c47.333 0 90.166 -10.167 128.499 -30.5s68.5 -48.166 90.5 -83.499v312c0 9.33301 2.83301 16.666 8.5 21.999s12.834 8 21.501 8
c9.33301 0 16.666 -2.66699 21.999 -8zM452.001 79.498c33.333 19.667 59.5 46.5 78.5 80.5s28.5 72 28.5 114s-9.5 80 -28.5 114s-45.167 60.667 -78.5 80s-70.666 29 -111.999 29s-78.666 -9.66699 -111.999 -29s-59.666 -46 -78.999 -80s-29 -72 -29 -114
s9.66699 -80 29 -114s45.666 -60.833 78.999 -80.5s70.666 -29.5 111.999 -29.5s78.666 9.83301 111.999 29.5zM687.001 544.498c-3.33301 3.66699 -5 8.16797 -5 13.501c0 4.66699 3.33301 13 10 25c7.33301 13.333 13.166 26 17.499 38s7.16602 26.333 8.49902 43
c0.666992 8 0.333984 14.833 -0.999023 20.5s-3.66602 12.167 -6.99902 19.5c-0.666992 1.33301 -2.33398 5.66602 -5.00098 12.999s-4 16.333 -4 27c0 24.667 14.333 37 43 37c14.667 0 26 -6.33301 34 -19s12 -29.334 12 -50.001c0 -10 -1 -20.667 -3 -32
c-4 -18.667 -11.333 -39.167 -22 -61.5s-22 -41.166 -34 -56.499s-22.333 -23 -31 -23c-5.33301 0 -9.66602 1.83301 -12.999 5.5z" />
    <glyph glyph-name="Dcroat" unicode="&#x110;" horiz-adv-x="761" 
d="M512 731c59.333 -33.333 105.666 -79.502 138.999 -138.502s50 -126.167 50 -201.5s-16.667 -142.666 -50 -201.999s-79.666 -105.666 -138.999 -138.999s-126.666 -50 -201.999 -50h-180c-8.66699 -0 -15.834 2.83301 -21.501 8.5s-8.5 12.834 -8.5 21.501v334h-73
c-8 0 -14.5 2.5 -19.5 7.5s-7.5 11.5 -7.5 19.5s2.5 14.5 7.5 19.5s11.5 7.5 19.5 7.5h73v333c0 9.33301 2.83301 16.666 8.5 21.999s12.834 8 21.501 8h180c75.333 0 142.666 -16.667 201.999 -50zM481 97.498c50 29 89.167 69.167 117.5 120.5s42.5 109 42.5 173
s-14.167 121.5 -42.5 172.5s-67.5 91 -117.5 120s-107 43.5 -171 43.5h-150v-309h165c8 0 14.5 -2.5 19.5 -7.5s7.5 -11.5 7.5 -19.5s-2.5 -14.5 -7.5 -19.5s-11.5 -7.5 -19.5 -7.5h-165v-310h150c64 0 121 14.5 171 43.5z" />
    <glyph glyph-name="dcroat" unicode="&#x111;" horiz-adv-x="709" 
d="M701.5 676.5c5 -5 7.50098 -11.502 7.50098 -19.502s-2.5 -14.5 -7.5 -19.5s-11.5 -7.5 -19.5 -7.5h-63v-360v-2c-0.666992 -51.333 -13.334 -98 -38.001 -140s-58.167 -74.833 -100.5 -98.5s-89.166 -35.5 -140.499 -35.5c-52.667 0 -100.334 12.167 -143.001 36.5
s-76.167 57.833 -100.5 100.5s-36.5 90.334 -36.5 143.001c0 52 12.167 99.333 36.5 142s57.833 76.167 100.5 100.5s90.334 36.5 143.001 36.5c47.333 0 90.166 -10.167 128.499 -30.5s68.5 -48.166 90.5 -83.499v191h-175c-8 0 -14.5 2.5 -19.5 7.5s-7.5 11.5 -7.5 19.5
s2.5 14.5 7.5 19.5s11.5 7.5 19.5 7.5h175v67c0 9.33301 2.83301 16.666 8.5 21.999s12.834 8 21.501 8c9.33301 0 16.666 -2.66699 21.999 -8s8 -12.666 8 -21.999v-67h63c8 0 14.5 -2.5 19.5 -7.5zM452.001 79.498c33.333 19.667 59.5 46.5 78.5 80.5s28.5 72 28.5 114
s-9.5 80 -28.5 114s-45.167 60.667 -78.5 80s-70.666 29 -111.999 29s-78.666 -9.66699 -111.999 -29s-59.666 -46 -78.999 -80s-29 -72 -29 -114s9.66699 -80 29 -114s45.666 -60.833 78.999 -80.5s70.666 -29.5 111.999 -29.5s78.666 9.83301 111.999 29.5z" />
    <glyph glyph-name="Emacron" unicode="&#x112;" horiz-adv-x="686" 
d="M108.5 8.5c-5.66699 5.66699 -8.5 12.835 -8.5 21.502v721c0 8.66699 2.83301 15.834 8.5 21.501s12.834 8.5 21.501 8.5h481c8 0 15 -2.83301 21 -8.5s9 -12.834 9 -21.501c0 -8 -3 -15 -9 -21s-13 -9 -21 -9h-451v-300h331c8.66699 0 15.834 -2.83301 21.501 -8.5
s8.5 -12.834 8.5 -21.501s-2.83301 -16 -8.5 -22s-12.834 -9 -21.501 -9h-331v-300h451c8 0 15 -3 21 -9s9 -13 9 -21c0 -8.66699 -3 -15.834 -9 -21.501s-13 -8.5 -21 -8.5h-481c-8.66699 -0 -15.834 2.83301 -21.501 8.5zM219.5 903.501
c-5.66699 5.66699 -8.5 12.834 -8.5 21.501s2.83301 16 8.5 22s12.834 9 21.501 9h265c8.66699 0 15.834 -3 21.501 -9s8.5 -13.333 8.5 -22s-2.83301 -15.834 -8.5 -21.501s-12.834 -8.5 -21.501 -8.5h-265c-8.66699 0 -15.834 2.83301 -21.501 8.5z" />
    <glyph glyph-name="emacron" unicode="&#x113;" horiz-adv-x="609" 
d="M447.5 517.5c38.333 -23 68.166 -54.832 89.499 -95.499s32 -87 32 -139c0 -8.66699 -2.66699 -15.5 -8 -20.5s-12.333 -7.5 -21 -7.5h-419c2 -39.333 12.333 -74.5 31 -105.5s43.667 -55.167 75 -72.5s66.333 -26 105 -26c26 0 52.167 4.5 78.5 13.5
s47.166 20.833 62.499 35.5c6.66699 5.33301 13.667 8 21 8s13.333 -2 18 -6c7.33301 -6 11 -13 11 -21c0 -6.66699 -3 -13 -9 -19c-21.333 -19.333 -49.166 -35.333 -83.499 -48s-67.166 -19 -98.499 -19c-52.667 0 -99.5 11.833 -140.5 35.5s-73.167 56.667 -96.5 99
s-35 90.166 -35 143.499c0 54 10.833 102.167 32.5 144.5s52 75.333 91 99s83.5 35.5 133.5 35.5c48.667 0 92.167 -11.5 130.5 -34.5zM185.5 444.001c-35.667 -34.667 -56.833 -80.334 -63.5 -137.001h389c-4.66699 56.667 -24.667 102.334 -60 137.001s-80 52 -134 52
c-52 0 -95.833 -17.333 -131.5 -52zM160.501 669.501c-5.66699 5.66699 -8.5 12.834 -8.5 21.501s2.83301 16 8.5 22s12.834 9 21.501 9h265c8.66699 0 15.834 -3 21.501 -9s8.5 -13.333 8.5 -22s-2.83301 -15.834 -8.5 -21.501s-12.834 -8.5 -21.501 -8.5h-265
c-8.66699 0 -15.834 2.83301 -21.501 8.5z" />
    <glyph glyph-name="Ebreve" unicode="&#x114;" horiz-adv-x="686" 
d="M108.5 8.5c-5.66699 5.66699 -8.5 12.835 -8.5 21.502v721c0 8.66699 2.83301 15.834 8.5 21.501s12.834 8.5 21.501 8.5h481c8 0 15 -2.83301 21 -8.5s9 -12.834 9 -21.501c0 -8 -3 -15 -9 -21s-13 -9 -21 -9h-451v-300h331c8.66699 0 15.834 -2.83301 21.501 -8.5
s8.5 -12.834 8.5 -21.501s-2.83301 -16 -8.5 -22s-12.834 -9 -21.501 -9h-331v-300h451c8 0 15 -3 21 -9s9 -13 9 -21c0 -8.66699 -3 -15.834 -9 -21.501s-13 -8.5 -21 -8.5h-481c-8.66699 -0 -15.834 2.83301 -21.501 8.5zM297 897.001
c-23.333 10 -41.8359 23.5 -55.5029 40.5s-20.5 35.5 -20.5 55.5c0 8.66699 3 16 9 22s13.333 9 22 9s15.834 -3 21.501 -9s8.5 -13.333 8.5 -22c0 -16 8.16699 -29.5 24.5 -40.5s38.5 -16.5 66.5 -16.5s50.333 5.5 67 16.5s25 24.5 25 40.5c0 8.66699 2.83301 16 8.5 22
s12.834 9 21.501 9c8 0 15 -3 21 -9s9.33301 -13 10 -21c-2.66699 -33.333 -18.667 -60.333 -48 -81s-64.333 -31 -105 -31c-27.333 0 -52.666 5 -75.999 15z" />
    <glyph glyph-name="ebreve" unicode="&#x115;" horiz-adv-x="609" 
d="M447.5 517.5c38.333 -23 68.166 -54.832 89.499 -95.499s32 -87 32 -139c0 -8.66699 -2.66699 -15.5 -8 -20.5s-12.333 -7.5 -21 -7.5h-419c2 -39.333 12.333 -74.5 31 -105.5s43.667 -55.167 75 -72.5s66.333 -26 105 -26c26 0 52.167 4.5 78.5 13.5
s47.166 20.833 62.499 35.5c6.66699 5.33301 13.667 8 21 8s13.333 -2 18 -6c7.33301 -6 11 -13 11 -21c0 -6.66699 -3 -13 -9 -19c-21.333 -19.333 -49.166 -35.333 -83.499 -48s-67.166 -19 -98.499 -19c-52.667 0 -99.5 11.833 -140.5 35.5s-73.167 56.667 -96.5 99
s-35 90.166 -35 143.499c0 54 10.833 102.167 32.5 144.5s52 75.333 91 99s83.5 35.5 133.5 35.5c48.667 0 92.167 -11.5 130.5 -34.5zM185.5 444.001c-35.667 -34.667 -56.833 -80.334 -63.5 -137.001h389c-4.66699 56.667 -24.667 102.334 -60 137.001s-80 52 -134 52
c-52 0 -95.833 -17.333 -131.5 -52zM238.001 663.001c-23.333 10 -41.8359 23.5 -55.5029 40.5s-20.5 35.5 -20.5 55.5c0 8.66699 3 16 9 22s13.333 9 22 9s15.834 -3 21.501 -9s8.5 -13.333 8.5 -22c0 -16 8.16699 -29.5 24.5 -40.5s38.5 -16.5 66.5 -16.5
s50.333 5.5 67 16.5s25 24.5 25 40.5c0 8.66699 2.83301 16 8.5 22s12.834 9 21.501 9c8 0 15 -3 21 -9s9.33301 -13 10 -21c-2.66699 -33.333 -18.667 -60.333 -48 -81s-64.333 -31 -105 -31c-27.333 0 -52.666 5 -75.999 15z" />
    <glyph glyph-name="Edotaccent" unicode="&#x116;" horiz-adv-x="686" 
d="M108.5 8.5c-5.66699 5.66699 -8.5 12.835 -8.5 21.502v721c0 8.66699 2.83301 15.834 8.5 21.501s12.834 8.5 21.501 8.5h481c8 0 15 -2.83301 21 -8.5s9 -12.834 9 -21.501c0 -8 -3 -15 -9 -21s-13 -9 -21 -9h-451v-300h331c8.66699 0 15.834 -2.83301 21.501 -8.5
s8.5 -12.834 8.5 -21.501s-2.83301 -16 -8.5 -22s-12.834 -9 -21.501 -9h-331v-300h451c8 0 15 -3 21 -9s9 -13 9 -21c0 -8.66699 -3 -15.834 -9 -21.501s-13 -8.5 -21 -8.5h-481c-8.66699 -0 -15.834 2.83301 -21.501 8.5zM340 909.501c-8.66699 9 -13 20.167 -13 33.5
c0 14.667 4.66699 26 14 34s20.333 12 33 12s23.5 -4 32.5 -12s13.5 -19.333 13.5 -34c0 -13.333 -4.5 -24.5 -13.5 -33.5s-20.167 -13.5 -33.5 -13.5s-24.333 4.5 -33 13.5z" />
    <glyph glyph-name="edotaccent" unicode="&#x117;" horiz-adv-x="609" 
d="M447.5 517.5c38.333 -23 68.166 -54.832 89.499 -95.499s32 -87 32 -139c0 -8.66699 -2.66699 -15.5 -8 -20.5s-12.333 -7.5 -21 -7.5h-419c2 -39.333 12.333 -74.5 31 -105.5s43.667 -55.167 75 -72.5s66.333 -26 105 -26c26 0 52.167 4.5 78.5 13.5
s47.166 20.833 62.499 35.5c6.66699 5.33301 13.667 8 21 8s13.333 -2 18 -6c7.33301 -6 11 -13 11 -21c0 -6.66699 -3 -13 -9 -19c-21.333 -19.333 -49.166 -35.333 -83.499 -48s-67.166 -19 -98.499 -19c-52.667 0 -99.5 11.833 -140.5 35.5s-73.167 56.667 -96.5 99
s-35 90.166 -35 143.499c0 54 10.833 102.167 32.5 144.5s52 75.333 91 99s83.5 35.5 133.5 35.5c48.667 0 92.167 -11.5 130.5 -34.5zM185.5 444.001c-35.667 -34.667 -56.833 -80.334 -63.5 -137.001h389c-4.66699 56.667 -24.667 102.334 -60 137.001s-80 52 -134 52
c-52 0 -95.833 -17.333 -131.5 -52zM281.001 675.501c-8.66699 9 -13 20.167 -13 33.5c0 14.667 4.66699 26 14 34s20.333 12 33 12s23.5 -4 32.5 -12s13.5 -19.333 13.5 -34c0 -13.333 -4.5 -24.5 -13.5 -33.5s-20.167 -13.5 -33.5 -13.5s-24.333 4.5 -33 13.5z" />
    <glyph glyph-name="Eogonek" unicode="&#x118;" horiz-adv-x="686" 
d="M726 -159c6 -6 8.99902 -13.334 8.99902 -22.001c0 -10 -3.33301 -17.667 -10 -23l-41 -28c-18.667 -12.667 -39 -19 -61 -19c-30 0 -56 10.833 -78 32.5s-33 47.834 -33 78.501c0 35.333 15.667 65.666 47 90.999c20.667 16.667 33.334 31.334 38.001 44.001l3 5h-470
c-8.66699 -0 -15.834 2.83301 -21.501 8.5s-8.5 12.834 -8.5 21.501v721c0 8.66699 2.83301 15.834 8.5 21.501s12.834 8.5 21.501 8.5h481c8 0 15 -2.83301 21 -8.5s9 -12.834 9 -21.501c0 -8 -3 -15 -9 -21s-13 -9 -21 -9h-451v-300h331
c8.66699 0 15.834 -2.83301 21.501 -8.5s8.5 -12.834 8.5 -21.501s-2.83301 -16 -8.5 -22s-12.834 -9 -21.501 -9h-331v-300h451c8 0 15 -3 21 -9s9 -13 9 -21c0 -8.66699 -3 -15.667 -9 -21c6.66699 -2 12 -5.5 16 -10.5s6 -10.833 6 -17.5c0 -12.667 -5 -25.5 -15 -38.5
s-25 -26.833 -45 -41.5c-14 -11.333 -21 -25 -21 -41c0 -14 4.83301 -25.833 14.5 -35.5s21.5 -14.5 35.5 -14.5c10.667 0 20 2.66699 28 8l35 26c6 4 12 6 18 6c8.66699 0 16 -3 22 -9z" />
    <glyph glyph-name="eogonek" unicode="&#x119;" horiz-adv-x="609" 
d="M447.5 517.5c38.333 -23 68.168 -54.834 89.501 -95.501s32 -87 32 -139c0 -8.66699 -2.66699 -15.5 -8 -20.5s-12.333 -7.5 -21 -7.5h-419c2 -39.333 12.333 -74.5 31 -105.5s43.667 -55.167 75 -72.5s66.333 -26 105 -26c26 0 52.167 4.5 78.5 13.5
s47.166 20.833 62.499 35.5c6.66699 5.33301 13.667 8 21 8s13.333 -2 18 -6c7.33301 -6 11 -13 11 -21c0 -6.66699 -3 -13 -9 -19c-22 -20 -50.333 -36.333 -85 -49c-7.33301 -19.333 -26.333 -40 -57 -62c-14 -11.333 -21 -25 -21 -41c0 -14 4.83301 -25.833 14.5 -35.5
s21.5 -14.5 35.5 -14.5c10.667 0 20 2.66699 28 8l35 26c6 4 12 6 18 6c8.66699 0 16 -3 22 -9s9 -13.333 9 -22c0 -10 -3.33301 -17.667 -10 -23l-41 -28c-18.667 -12.667 -39 -19 -61 -19c-30 0 -56 10.833 -78 32.5s-33 47.834 -33 78.501c0 32 13.333 60.333 40 85
c-52 0 -98.5 12 -139.5 36s-73 57 -96 99s-34.5 89.667 -34.5 143c0 54 10.833 102.167 32.5 144.5s52 75.333 91 99s83.5 35.5 133.5 35.5c48.667 0 92.167 -11.5 130.5 -34.5zM185.502 443.999c-35.667 -34.667 -56.833 -80.334 -63.5 -137.001h389
c-4.66699 56.667 -24.667 102.334 -60 137.001s-80 52 -134 52c-52 0 -95.833 -17.333 -131.5 -52z" />
    <glyph glyph-name="Ecaron" unicode="&#x11a;" horiz-adv-x="686" 
d="M108.5 8.5c-5.66699 5.66699 -8.5 12.835 -8.5 21.502v721c0 8.66699 2.83301 15.834 8.5 21.501s12.834 8.5 21.501 8.5h481c8 0 15 -2.83301 21 -8.5s9 -12.834 9 -21.501c0 -8 -3 -15 -9 -21s-13 -9 -21 -9h-451v-300h331c8.66699 0 15.834 -2.83301 21.501 -8.5
s8.5 -12.834 8.5 -21.501s-2.83301 -16 -8.5 -22s-12.834 -9 -21.501 -9h-331v-300h451c8 0 15 -3 21 -9s9 -13 9 -21c0 -8.66699 -3 -15.834 -9 -21.501s-13 -8.5 -21 -8.5h-481c-8.66699 -0 -15.834 2.83301 -21.501 8.5zM359 886.001l-121 80
c-10.667 6.66699 -16 15.667 -16 27c0 8 2.5 14.5 7.5 19.5s11.167 7.5 18.5 7.5c8 0 16 -2.66699 24 -8l102 -70l102 68c8.66699 6 17 9 25 9c7.33301 0 13.333 -2.5 18 -7.5s7 -11.167 7 -18.5c0 -10 -5.33301 -19 -16 -27l-121 -80c-3.33301 -2.66699 -8.33301 -4 -15 -4
s-11.667 1.33301 -15 4z" />
    <glyph glyph-name="ecaron" unicode="&#x11b;" horiz-adv-x="609" 
d="M447.5 517.5c38.333 -23 68.166 -54.832 89.499 -95.499s32 -87 32 -139c0 -8.66699 -2.66699 -15.5 -8 -20.5s-12.333 -7.5 -21 -7.5h-419c2 -39.333 12.333 -74.5 31 -105.5s43.667 -55.167 75 -72.5s66.333 -26 105 -26c26 0 52.167 4.5 78.5 13.5
s47.166 20.833 62.499 35.5c6.66699 5.33301 13.667 8 21 8s13.333 -2 18 -6c7.33301 -6 11 -13 11 -21c0 -6.66699 -3 -13 -9 -19c-21.333 -19.333 -49.166 -35.333 -83.499 -48s-67.166 -19 -98.499 -19c-52.667 0 -99.5 11.833 -140.5 35.5s-73.167 56.667 -96.5 99
s-35 90.166 -35 143.499c0 54 10.833 102.167 32.5 144.5s52 75.333 91 99s83.5 35.5 133.5 35.5c48.667 0 92.167 -11.5 130.5 -34.5zM185.5 444.001c-35.667 -34.667 -56.833 -80.334 -63.5 -137.001h389c-4.66699 56.667 -24.667 102.334 -60 137.001s-80 52 -134 52
c-52 0 -95.833 -17.333 -131.5 -52zM300.001 652.001l-121 80c-10.667 6.66699 -16 15.667 -16 27c0 8 2.5 14.5 7.5 19.5s11.167 7.5 18.5 7.5c8 0 16 -2.66699 24 -8l102 -70l102 68c8.66699 6 17 9 25 9c7.33301 0 13.333 -2.5 18 -7.5s7 -11.167 7 -18.5
c0 -10 -5.33301 -19 -16 -27l-121 -80c-3.33301 -2.66699 -8.33301 -4 -15 -4s-11.667 1.33301 -15 4z" />
    <glyph glyph-name="Gcircumflex" unicode="&#x11c;" horiz-adv-x="767" 
d="M695.5 372c5.66699 -5.33301 8.49805 -12.333 8.49805 -21v-254c0 -4.66699 -0.333008 -8.5 -1 -11.5s-2.66699 -6.16699 -6 -9.5c-57.333 -57.333 -139.333 -86 -246 -86c-70 0 -135 18.167 -195 54.5s-107.667 85.333 -143 147s-53 128.167 -53 199.5
s17.5 137.666 52.5 198.999s82.333 110.166 142 146.499s125.167 54.5 196.5 54.5c93.333 0 175.666 -29.667 246.999 -89c6 -4.66699 9 -11.334 9 -20.001c0 -8 -2.66699 -15.167 -8 -21.5s-12.666 -9.5 -21.999 -9.5c-7.33301 0 -15.666 4 -24.999 12
c-50.667 45.333 -117.667 68 -201 68c-58.667 0 -113.5 -15.667 -164.5 -47s-91.5 -73.166 -121.5 -125.499s-45 -108.166 -45 -167.499c0 -61.333 14.833 -118.166 44.5 -170.499s70 -93.833 121 -124.5s106.167 -46 165.5 -46c72.667 0 137 20.667 193 62v214h-168
c-8.66699 0 -15.834 2.66699 -21.501 8s-8.5 12 -8.5 20c0 7.33301 2.83301 13.5 8.5 18.5s12.834 7.5 21.501 7.5h198c8.66699 0 15.834 -2.66699 21.501 -8zM290.998 890.5c-6 5.66699 -9 12.834 -9 21.501c0 11.333 5.33301 20.333 16 27l121 81
c5.33301 2.66699 10.333 4 15 4s9.66699 -1.33301 15 -4l121 -81c10.667 -6.66699 16 -15.667 16 -27c0 -8.66699 -3 -15.834 -9 -21.501s-13.333 -8.5 -22 -8.5c-6.66699 0 -13 2 -19 6l-102 68l-102 -68c-6 -4 -12 -6 -18 -6c-9.33301 0 -17 2.83301 -23 8.5z" />
    <glyph glyph-name="gcircumflex" unicode="&#x11d;" 
d="M484.5 517c42.333 -24 75.3311 -57.168 98.998 -99.501s35.5 -90.5 35.5 -144.5v-196c0 -53.333 -12 -101.833 -36 -145.5s-57 -78 -99 -103s-88.667 -37.5 -140 -37.5c-52.667 0 -98.834 9.83301 -138.501 29.5s-72.834 46.5 -99.501 80.5
c-5.33301 6.66699 -8 13.334 -8 20.001c0 8 3.33301 14.333 10 19c5.33301 4 11.333 6 18 6c10.667 0 19.334 -4.33301 26.001 -13c22 -26.667 49.167 -47.667 81.5 -63s69.166 -23 110.499 -23c40.667 0 77.334 10 110.001 30s58.334 47.5 77.001 82.5s28 74.167 28 117.5
v44c-19.333 -39.333 -48.166 -70.333 -86.499 -93s-82.5 -34 -132.5 -34c-54 0 -102.167 11.833 -144.5 35.5s-75.5 56.667 -99.5 99s-36 90.5 -36 144.5c0 53.333 12.333 101.333 37 144s58.334 76 101.001 100s90 36 142 36c54 0 102.167 -12 144.5 -36zM452.998 78.499
c33.333 19 59.333 45.333 78 79s28 72.167 28 115.5s-9.33301 82 -28 116s-44.667 60.5 -78 79.5s-71 28.5 -113 28.5c-42.667 0 -80.667 -9.5 -114 -28.5s-59.333 -45.5 -78 -79.5s-28 -72.667 -28 -116s9.33301 -81.833 28 -115.5s44.667 -60 78 -79
s71.333 -28.5 114 -28.5c42 0 79.667 9.5 113 28.5zM196.998 656.499c-6 5.66699 -9 12.834 -9 21.501c0 11.333 5.33301 20.333 16 27l121 81c5.33301 2.66699 10.333 4 15 4s9.66699 -1.33301 15 -4l121 -81c10.667 -6.66699 16 -15.667 16 -27
c0 -8.66699 -3 -15.834 -9 -21.501s-13.333 -8.5 -22 -8.5c-6.66699 0 -13 2 -19 6l-102 68l-102 -68c-6 -4 -12 -6 -18 -6c-9.33301 0 -17 2.83301 -23 8.5z" />
    <glyph glyph-name="Gbreve" unicode="&#x11e;" horiz-adv-x="767" 
d="M695.5 372c5.66699 -5.33301 8.49805 -12.333 8.49805 -21v-254c0 -4.66699 -0.333008 -8.5 -1 -11.5s-2.66699 -6.16699 -6 -9.5c-57.333 -57.333 -139.333 -86 -246 -86c-70 0 -135 18.167 -195 54.5s-107.667 85.333 -143 147s-53 128.167 -53 199.5
s17.5 137.666 52.5 198.999s82.333 110.166 142 146.499s125.167 54.5 196.5 54.5c93.333 0 175.666 -29.667 246.999 -89c6 -4.66699 9 -11.334 9 -20.001c0 -8 -2.66699 -15.167 -8 -21.5s-12.666 -9.5 -21.999 -9.5c-7.33301 0 -15.666 4 -24.999 12
c-50.667 45.333 -117.667 68 -201 68c-58.667 0 -113.5 -15.667 -164.5 -47s-91.5 -73.166 -121.5 -125.499s-45 -108.166 -45 -167.499c0 -61.333 14.833 -118.166 44.5 -170.499s70 -93.833 121 -124.5s106.167 -46 165.5 -46c72.667 0 137 20.667 193 62v214h-168
c-8.66699 0 -15.834 2.66699 -21.501 8s-8.5 12 -8.5 20c0 7.33301 2.83301 13.5 8.5 18.5s12.834 7.5 21.501 7.5h198c8.66699 0 15.834 -2.66699 21.501 -8zM356.998 897c-23.333 10 -41.8359 23.5 -55.5029 40.5s-20.5 35.5 -20.5 55.5c0 8.66699 3 16 9 22
s13.333 9 22 9s15.834 -3 21.501 -9s8.5 -13.333 8.5 -22c0 -16 8.16699 -29.5 24.5 -40.5s38.5 -16.5 66.5 -16.5s50.333 5.5 67 16.5s25 24.5 25 40.5c0 8.66699 2.83301 16 8.5 22s12.834 9 21.501 9c8 0 15 -3 21 -9s9.33301 -13 10 -21
c-2.66699 -33.333 -18.667 -60.333 -48 -81s-64.333 -31 -105 -31c-27.333 0 -52.666 5 -75.999 15z" />
    <glyph glyph-name="gbreve" unicode="&#x11f;" 
d="M484.5 517c42.333 -24 75.3311 -57.168 98.998 -99.501s35.5 -90.5 35.5 -144.5v-196c0 -53.333 -12 -101.833 -36 -145.5s-57 -78 -99 -103s-88.667 -37.5 -140 -37.5c-52.667 0 -98.834 9.83301 -138.501 29.5s-72.834 46.5 -99.501 80.5
c-5.33301 6.66699 -8 13.334 -8 20.001c0 8 3.33301 14.333 10 19c5.33301 4 11.333 6 18 6c10.667 0 19.334 -4.33301 26.001 -13c22 -26.667 49.167 -47.667 81.5 -63s69.166 -23 110.499 -23c40.667 0 77.334 10 110.001 30s58.334 47.5 77.001 82.5s28 74.167 28 117.5
v44c-19.333 -39.333 -48.166 -70.333 -86.499 -93s-82.5 -34 -132.5 -34c-54 0 -102.167 11.833 -144.5 35.5s-75.5 56.667 -99.5 99s-36 90.5 -36 144.5c0 53.333 12.333 101.333 37 144s58.334 76 101.001 100s90 36 142 36c54 0 102.167 -12 144.5 -36zM452.998 78.499
c33.333 19 59.333 45.333 78 79s28 72.167 28 115.5s-9.33301 82 -28 116s-44.667 60.5 -78 79.5s-71 28.5 -113 28.5c-42.667 0 -80.667 -9.5 -114 -28.5s-59.333 -45.5 -78 -79.5s-28 -72.667 -28 -116s9.33301 -81.833 28 -115.5s44.667 -60 78 -79
s71.333 -28.5 114 -28.5c42 0 79.667 9.5 113 28.5zM262.998 662.999c-23.333 10 -41.8359 23.5 -55.5029 40.5s-20.5 35.5 -20.5 55.5c0 8.66699 3 16 9 22s13.333 9 22 9s15.834 -3 21.501 -9s8.5 -13.333 8.5 -22c0 -16 8.16699 -29.5 24.5 -40.5s38.5 -16.5 66.5 -16.5
s50.333 5.5 67 16.5s25 24.5 25 40.5c0 8.66699 2.83301 16 8.5 22s12.834 9 21.501 9c8 0 15 -3 21 -9s9.33301 -13 10 -21c-2.66699 -33.333 -18.667 -60.333 -48 -81s-64.333 -31 -105 -31c-27.333 0 -52.666 5 -75.999 15z" />
    <glyph glyph-name="Gdotaccent" unicode="&#x120;" horiz-adv-x="767" 
d="M695.5 372c5.66699 -5.33301 8.49805 -12.333 8.49805 -21v-254c0 -4.66699 -0.333008 -8.5 -1 -11.5s-2.66699 -6.16699 -6 -9.5c-57.333 -57.333 -139.333 -86 -246 -86c-70 0 -135 18.167 -195 54.5s-107.667 85.333 -143 147s-53 128.167 -53 199.5
s17.5 137.666 52.5 198.999s82.333 110.166 142 146.499s125.167 54.5 196.5 54.5c93.333 0 175.666 -29.667 246.999 -89c6 -4.66699 9 -11.334 9 -20.001c0 -8 -2.66699 -15.167 -8 -21.5s-12.666 -9.5 -21.999 -9.5c-7.33301 0 -15.666 4 -24.999 12
c-50.667 45.333 -117.667 68 -201 68c-58.667 0 -113.5 -15.667 -164.5 -47s-91.5 -73.166 -121.5 -125.499s-45 -108.166 -45 -167.499c0 -61.333 14.833 -118.166 44.5 -170.499s70 -93.833 121 -124.5s106.167 -46 165.5 -46c72.667 0 137 20.667 193 62v214h-168
c-8.66699 0 -15.834 2.66699 -21.501 8s-8.5 12 -8.5 20c0 7.33301 2.83301 13.5 8.5 18.5s12.834 7.5 21.501 7.5h198c8.66699 0 15.834 -2.66699 21.501 -8zM399.998 909.5c-8.66699 9 -13 20.167 -13 33.5c0 14.667 4.66699 26 14 34s20.333 12 33 12s23.5 -4 32.5 -12
s13.5 -19.333 13.5 -34c0 -13.333 -4.5 -24.5 -13.5 -33.5s-20.167 -13.5 -33.5 -13.5s-24.333 4.5 -33 13.5z" />
    <glyph glyph-name="gdotaccent" unicode="&#x121;" 
d="M484.5 517c42.333 -24 75.3311 -57.168 98.998 -99.501s35.5 -90.5 35.5 -144.5v-196c0 -53.333 -12 -101.833 -36 -145.5s-57 -78 -99 -103s-88.667 -37.5 -140 -37.5c-52.667 0 -98.834 9.83301 -138.501 29.5s-72.834 46.5 -99.501 80.5
c-5.33301 6.66699 -8 13.334 -8 20.001c0 8 3.33301 14.333 10 19c5.33301 4 11.333 6 18 6c10.667 0 19.334 -4.33301 26.001 -13c22 -26.667 49.167 -47.667 81.5 -63s69.166 -23 110.499 -23c40.667 0 77.334 10 110.001 30s58.334 47.5 77.001 82.5s28 74.167 28 117.5
v44c-19.333 -39.333 -48.166 -70.333 -86.499 -93s-82.5 -34 -132.5 -34c-54 0 -102.167 11.833 -144.5 35.5s-75.5 56.667 -99.5 99s-36 90.5 -36 144.5c0 53.333 12.333 101.333 37 144s58.334 76 101.001 100s90 36 142 36c54 0 102.167 -12 144.5 -36zM452.998 78.499
c33.333 19 59.333 45.333 78 79s28 72.167 28 115.5s-9.33301 82 -28 116s-44.667 60.5 -78 79.5s-71 28.5 -113 28.5c-42.667 0 -80.667 -9.5 -114 -28.5s-59.333 -45.5 -78 -79.5s-28 -72.667 -28 -116s9.33301 -81.833 28 -115.5s44.667 -60 78 -79
s71.333 -28.5 114 -28.5c42 0 79.667 9.5 113 28.5zM305.998 675.499c-8.66699 9 -13 20.167 -13 33.5c0 14.667 4.66699 26 14 34s20.333 12 33 12s23.5 -4 32.5 -12s13.5 -19.333 13.5 -34c0 -13.333 -4.5 -24.5 -13.5 -33.5s-20.167 -13.5 -33.5 -13.5
s-24.333 4.5 -33 13.5z" />
    <glyph glyph-name="Gcommaaccent" unicode="&#x122;" horiz-adv-x="767" 
d="M695.5 372c5.66699 -5.33301 8.49805 -12.333 8.49805 -21v-254c0 -4.66699 -0.333008 -8.5 -1 -11.5s-2.66699 -6.16699 -6 -9.5c-57.333 -57.333 -139.333 -86 -246 -86c-70 0 -135 18.167 -195 54.5s-107.667 85.333 -143 147s-53 128.167 -53 199.5
s17.5 137.666 52.5 198.999s82.333 110.166 142 146.499s125.167 54.5 196.5 54.5c93.333 0 175.666 -29.667 246.999 -89c6 -4.66699 9 -11.334 9 -20.001c0 -8 -2.66699 -15.167 -8 -21.5s-12.666 -9.5 -21.999 -9.5c-7.33301 0 -15.666 4 -24.999 12
c-50.667 45.333 -117.667 68 -201 68c-58.667 0 -113.5 -15.667 -164.5 -47s-91.5 -73.166 -121.5 -125.499s-45 -108.166 -45 -167.499c0 -61.333 14.833 -118.166 44.5 -170.499s70 -93.833 121 -124.5s106.167 -46 165.5 -46c72.667 0 137 20.667 193 62v214h-168
c-8.66699 0 -15.834 2.66699 -21.501 8s-8.5 12 -8.5 20c0 7.33301 2.83301 13.5 8.5 18.5s12.834 7.5 21.501 7.5h198c8.66699 0 15.834 -2.66699 21.501 -8zM361.498 -212c-25.667 13.333 -38.499 28.667 -38.499 46c0 7.33301 2.16699 13.166 6.5 17.499
s10.5 6.5 18.5 6.5c7.33301 0 13.666 -1.16699 18.999 -3.5s11.333 -6.16602 18 -11.499c8.66699 -6.66699 17.334 -11.834 26.001 -15.501s19.667 -5.5 33 -5.5c18.667 0 33.667 4.33301 45 13s17 20.334 17 35.001c0 12.667 -5.5 22.834 -16.5 30.501
s-27.167 11.5 -48.5 11.5c-29.333 0 -44 8 -44 24c0 16.667 13.333 25 40 25c35.333 0 64.333 -8.83301 87 -26.5s34 -40.167 34 -67.5c0 -28.667 -11.333 -52.334 -34 -71.001s-50.334 -28 -83.001 -28c-27.333 0 -53.833 6.66699 -79.5 20z" />
    <glyph glyph-name="gcommaaccent" unicode="&#x123;" 
d="M484.5 517c42.333 -24 75.3311 -57.168 98.998 -99.501s35.5 -90.5 35.5 -144.5v-196c0 -53.333 -12 -101.833 -36 -145.5s-57 -78 -99 -103s-88.667 -37.5 -140 -37.5c-52.667 0 -98.834 9.83301 -138.501 29.5s-72.834 46.5 -99.501 80.5
c-5.33301 6.66699 -8 13.334 -8 20.001c0 8 3.33301 14.333 10 19c5.33301 4 11.333 6 18 6c10.667 0 19.334 -4.33301 26.001 -13c22 -26.667 49.167 -47.667 81.5 -63s69.166 -23 110.499 -23c40.667 0 77.334 10 110.001 30s58.334 47.5 77.001 82.5s28 74.167 28 117.5
v44c-19.333 -39.333 -48.166 -70.333 -86.499 -93s-82.5 -34 -132.5 -34c-54 0 -102.167 11.833 -144.5 35.5s-75.5 56.667 -99.5 99s-36 90.5 -36 144.5c0 53.333 12.333 101.333 37 144s58.334 76 101.001 100s90 36 142 36c54 0 102.167 -12 144.5 -36zM452.998 78.499
c33.333 19 59.333 45.333 78 79s28 72.167 28 115.5s-9.33301 82 -28 116s-44.667 60.5 -78 79.5s-71 28.5 -113 28.5c-42.667 0 -80.667 -9.5 -114 -28.5s-59.333 -45.5 -78 -79.5s-28 -72.667 -28 -116s9.33301 -81.833 28 -115.5s44.667 -60 78 -79
s71.333 -28.5 114 -28.5c42 0 79.667 9.5 113 28.5zM300.498 685.499c-11.667 15 -17.499 35.166 -17.499 60.499c0 24 3.83301 48.333 11.5 73s17.667 45.167 30 61.5s25.833 24.5 40.5 24.5c12.667 0 19 -5.66699 19 -17c0 -6.66699 -4.66699 -16.667 -14 -30
c-6 -9.33301 -10.5 -17 -13.5 -23s-4.5 -13 -4.5 -21c0 -12 1.83301 -21.5 5.5 -28.5s9.5 -16.167 17.5 -27.5c7.33301 -8.66699 12.666 -16.167 15.999 -22.5s5 -14.166 5 -23.499c0 -15.333 -5 -27.333 -15 -36s-22 -13 -36 -13c-18 0 -32.833 7.5 -44.5 22.5z" />
    <glyph glyph-name="Hcircumflex" unicode="&#x124;" horiz-adv-x="825" 
d="M108.5 8.5c-5.66699 5.66699 -8.5 12.834 -8.5 21.501v721c0 8.66699 2.83301 15.834 8.5 21.501s12.834 8.5 21.501 8.5s15.834 -2.83301 21.501 -8.5s8.5 -12.834 8.5 -21.501v-330h505v330c0 8.66699 2.83301 15.834 8.5 21.501s12.834 8.5 21.501 8.5
c8 0 15 -2.83301 21 -8.5s9 -12.834 9 -21.501v-721c0 -8.66699 -3 -15.834 -9 -21.501s-13 -8.5 -21 -8.5c-8.66699 -0 -15.834 2.83301 -21.501 8.5s-8.5 12.834 -8.5 21.501v337h-505v-337c0 -8.66699 -2.83301 -15.834 -8.5 -21.501s-12.834 -8.5 -21.501 -8.5
s-15.834 2.83301 -21.501 8.5zM270 890.5c-6 5.66699 -9 12.834 -9 21.501c0 11.333 5.33301 20.333 16 27l121 81c5.33301 2.66699 10.333 4 15 4s9.66699 -1.33301 15 -4l121 -81c10.667 -6.66699 16 -15.667 16 -27c0 -8.66699 -3 -15.834 -9 -21.501
s-13.333 -8.5 -22 -8.5c-6.66699 0 -13 2 -19 6l-102 68l-102 -68c-6 -4 -12 -6 -18 -6c-9.33301 0 -17 2.83301 -23 8.5z" />
    </font>
</defs>
</svg>
