<?xml version="1.0" encoding="utf-8"?>
<!-- Generator: Adobe Illustrator 17.0.0, SVG Export Plug-In . SVG Version: 6.00 Build 0)  -->
<!DOCTYPE svg PUBLIC "-//W3C//DTD SVG 1.1//EN" "http://www.w3.org/Graphics/SVG/1.1/DTD/svg11.dtd">
<svg version="1.1" id="Слой_1" xmlns="http://www.w3.org/2000/svg" xmlns:xlink="http://www.w3.org/1999/xlink" x="0px" y="0px"
	 width="127.837px" height="127.837px" viewBox="228.714 337.324 127.837 127.837"
	 enable-background="new 228.714 337.324 127.837 127.837" xml:space="preserve">
<g id="Слой_x0020_1">
	<g id="_64906736">
		<path fill="#FFFFFF" d="M292.633,337.324c-35.282,0-63.918,28.636-63.918,63.918c0,35.282,28.636,63.918,63.918,63.918
			c35.282,0,63.918-28.636,63.918-63.918C356.48,365.89,327.915,337.324,292.633,337.324z M292.633,461.697
			c-33.373,0-60.454-27.081-60.454-60.454s27.08-60.454,60.454-60.454s60.454,27.081,60.454,60.454
			C353.086,434.616,326.006,461.697,292.633,461.697z"/>
		<path fill="#FFFFFF" d="M292.633,367.092c-18.808,0-34.08,15.273-34.08,34.08s15.272,34.08,34.08,34.08
			c18.808,0,34.08-15.273,34.08-34.08S311.441,367.092,292.633,367.092z M292.633,431.434c-16.687,0-30.262-13.505-30.262-30.262
			c0-16.687,13.505-30.262,30.262-30.262c16.687,0,30.262,13.505,30.262,30.262C322.824,417.859,309.319,431.434,292.633,431.434z"
			/>
		<path fill="#FFFFFF" d="M245.967,392.617c-0.778,0-1.485,0.636-1.485,1.485v14.495c0,0.778,0.636,1.485,1.485,1.485
			c0.778,0,1.485-0.636,1.485-1.485v-14.495C247.451,393.253,246.744,392.546,245.967,392.617z"/>
		<path fill="#FFFFFF" d="M341.279,394.031c0-0.778-0.636-1.485-1.485-1.485c-0.778,0-1.485,0.636-1.485,1.485v14.495
			c0,0.778,0.636,1.485,1.485,1.485c0.778,0,1.485-0.636,1.485-1.485V394.031z"/>
		<path fill="#FFFFFF" d="M300.269,446.778l-14.495,0.071c-0.778,0-1.485,0.636-1.485,1.485c0,0.778,0.636,1.485,1.485,1.485
			l14.495-0.071c0.778,0,1.485-0.636,1.485-1.485C301.683,447.414,301.047,446.707,300.269,446.778z"/>
		<path fill="#FFFFFF" d="M285.562,355.779l14.495-0.071c0.778,0,1.485-0.636,1.485-1.485c0-0.778-0.636-1.485-1.485-1.485
			l-14.495,0.071c-0.778,0-1.485,0.636-1.485,1.485S284.784,355.779,285.562,355.779z"/>
		<path fill="#FFFFFF" d="M254.805,428.394c-0.566-0.566-1.485-0.566-2.051,0c-0.566,0.565-0.566,1.485,0,2.051l10.252,10.182
			c0.566,0.566,1.485,0.566,2.051,0c0.565-0.565,0.565-1.485,0-2.051L254.805,428.394z"/>
		<path fill="#FFFFFF" d="M329.258,374.162c0.566,0.566,1.485,0.566,2.051,0c0.565-0.566,0.565-1.485,0-2.051l-10.252-10.182
			c-0.566-0.565-1.485-0.565-2.051,0c-0.565,0.566-0.565,1.485,0,2.051L329.258,374.162z"/>
		<path fill="#FFFFFF" d="M254.664,374.304l10.182-10.252c0.565-0.566,0.565-1.485,0-2.051c-0.566-0.566-1.485-0.566-2.051,0
			l-10.182,10.252c-0.566,0.566-0.566,1.485,0,2.051C253.179,374.87,254.098,374.87,254.664,374.304z"/>
		<path fill="#FFFFFF" d="M329.4,428.253l-10.182,10.252c-0.565,0.566-0.565,1.485,0,2.051c0.566,0.566,1.485,0.566,2.051,0
			l10.182-10.252c0.565-0.565,0.565-1.485,0-2.051C330.885,427.687,329.966,427.687,329.4,428.253z"/>
	</g>
</g>
</svg>
